<svg width="348" height="224" viewBox="0 0 348 224" fill="none" xmlns="http://www.w3.org/2000/svg">
<g clip-path="url(#clip0_1435_5834)">
<circle cx="172.615" cy="113.367" r="103.433" fill="#FFF6EB"/>
<path d="M211.251 165.368H133.718V172.378H211.251V165.368Z" fill="#DBE6EC"/>
<path d="M172.484 165.368H133.718V172.378H172.484V165.368Z" fill="#E8F3F8"/>
<path d="M216.463 229.002V172.351L128.477 172.351V229.002H216.463Z" fill="#263E53"/>
<path d="M30.0762 39.8529L110.656 92.7389L102.952 57.0192L250.835 138.788L244.914 93.1104L316.923 126.006L217.939 49.9595L227.748 101.26L90.6411 30.2666L93.4897 63.1376L30.0762 39.8529Z" fill="#FFCF0F"/>
<path d="M222.15 99.8728C222.075 100.393 219.673 116.668 217.022 123.653C214.322 130.737 209.64 143.172 208.03 149.935C207.262 153.155 206.247 159.942 205.528 165.367H140.653C141 159.571 141.223 154.22 140.951 152.387C138.151 146.591 113.38 111.119 112.117 108.344C110.804 105.471 110.458 98.4361 116.576 81.6166C122.694 64.822 123.289 63.2862 125.37 60.388C127.227 57.787 131.637 56.0778 137.334 56.4989C138.226 53.5016 142.164 42.5281 151.8 41.4877C162.179 40.3731 168.347 48.3741 164.582 59.2237C166.316 55.6319 170.552 49.2658 178.677 50.0089C189.923 51.0493 190.418 62.9146 186.356 72.1294C186.504 71.8817 192.078 62.1715 199.831 66.1844C206.47 69.6275 210.681 73.4918 206.841 82.8056C206.866 82.7313 206.891 82.6818 206.915 82.6075C210.433 81.6662 214.149 81.7405 217.22 84.0442C222.422 87.9828 223.933 94.3241 222.15 99.8728Z" fill="#F0AE74"/>
<path opacity="0.54" d="M152.544 60.0161C152.544 60.0161 145.905 57.8115 139.266 56.7711C138.598 56.672 137.954 56.5977 137.31 56.5482C137.433 56.127 137.632 55.5325 137.879 54.839C138.672 54.8885 156.68 58.8518 161.114 59.8675C163.369 52.6591 163.468 48.0022 163.27 45.6985L163.294 45.7233C165.796 48.9435 166.49 53.749 164.558 59.273C165.028 58.2821 165.697 57.0931 166.564 55.9041C166.886 57.4894 166.936 59.2482 166.663 61.1308C162.923 60.4867 158.736 60.4124 157.052 60.4867C153.98 60.561 152.544 60.0161 152.544 60.0161Z" fill="#DC9964"/>
<path opacity="0.54" d="M211.028 114.711C211.003 114.735 210.978 114.76 210.978 114.785C206.371 119.516 202.953 120.433 195.026 117.609C191.607 116.395 189.948 113.794 189.353 110.673C189.353 110.673 189.378 110.673 189.378 110.648C185.836 112.407 177.959 113.199 173.624 105.322C173.624 105.322 172.559 103.489 172.93 99.4021C170.28 100.764 166.118 100.938 161.114 97.1479C157.944 94.7451 156.358 92.5901 156.358 88.6267C156.358 87.7845 156.433 86.868 156.581 85.8524C156.68 85.0597 156.854 84.1927 157.052 83.2267C158.761 82.6074 159.851 82.0872 159.851 82.0872C174.838 75.7458 174.887 68.2898 173.426 64.4503C173.376 64.3265 173.326 64.2026 173.252 64.1035C174.441 64.6485 175.333 65.3421 175.655 66.209C177.116 70.0238 177.067 77.5046 162.08 83.8459C162.08 83.8459 159.925 84.8863 156.903 85.7533C164.211 94.9185 169.958 95.8598 177.736 92.491C180.089 87.1405 183.458 78.6936 186.306 72.1788C186.306 72.1788 186.306 72.1788 186.306 72.1541C186.455 71.8816 187.694 69.8008 189.725 67.9925C189.725 67.9925 189.75 67.9925 189.75 67.9678C189.626 71.1137 188.784 74.4825 187.446 77.5541C184.151 85.0597 180.163 95.1415 177.86 100.096C180.114 102.87 185.489 107.973 193.564 105.818C193.688 105.793 193.787 105.768 193.911 105.743C196.76 101.483 200.252 94.9433 204.686 87.1405C205.553 85.6047 206.272 84.168 206.817 82.8551C206.842 82.8056 206.866 82.7312 206.891 82.6817C207.609 82.4835 208.328 82.3349 209.071 82.2358C208.774 84.7129 207.684 87.6854 205.603 91.3515C201.739 98.1635 198.568 104.059 195.918 108.27C198.172 110.202 203.77 114.438 211.028 114.711Z" fill="#DC9964"/>
<path d="M172.187 62.9639C173.425 67.2245 164.409 71.5594 164.409 71.5594C158.761 70.9649 153.188 69.2804 151.924 67.2988C150.636 65.3171 152.543 60.0161 152.543 60.0161C152.543 60.0161 153.98 60.5611 157.077 60.462C159.702 60.3629 168.694 60.5363 172.187 62.9639Z" fill="#F6E2CA"/>
<path opacity="0.39" d="M158.167 60.4375C156.309 64.4504 153.163 65.9366 151.603 66.5063C151.058 64.1779 152.544 60.0164 152.544 60.0164C152.544 60.0164 153.981 60.5613 157.077 60.4622C157.374 60.4375 157.721 60.4375 158.167 60.4375Z" fill="white"/>
<path opacity="0.54" d="M177.884 100.071C177.735 100.418 177.785 100.294 177.884 100.071V100.071Z" fill="#DC9964"/>
<path opacity="0.54" d="M177.884 100.071C177.735 100.418 177.785 100.294 177.884 100.071V100.071Z" fill="#DC9964"/>
<path d="M222.15 99.8478C222.15 99.8478 221.976 101.037 221.679 102.919C220.837 108.072 219.004 118.426 217.047 123.628C214.347 130.712 209.665 143.147 208.055 149.91C207.287 153.13 206.272 159.917 205.553 165.342H202.036C202.928 159.868 204.191 152.759 205.107 149.464C206.94 142.776 212.018 130.489 214.917 123.479C216.552 119.516 218.211 112.506 219.351 107.155C216.428 111.886 212.192 117.163 208.03 119.665C205.256 121.349 199.757 121.671 196.215 120.061C187.074 115.875 189.403 114.364 187.52 113.125C185.811 112.01 184.993 113.298 182.541 112.877C183.557 124.222 178.058 135.691 177.909 136.013C180.758 128.508 178.726 116.816 177.413 111.02C172.583 108.419 172.286 104.901 170.824 102.647C169.412 100.467 168.991 101.631 166.564 101.21C164.136 100.789 162.179 99.6249 159.702 97.8166C157.225 96.0083 156.457 94.2496 152.841 92.2927C149.695 90.5835 147.119 92.2679 146.153 92.2927C142.858 98.2625 139.91 99.8478 139.811 99.8974C142.784 96.6028 144.691 92.6147 145.187 91.5248C144.865 91.2523 144.518 90.9551 144.196 90.7074C138.077 93.8285 132.752 92.045 132.578 91.9954C136.269 92.8377 141.669 90.311 143.626 89.2954C143.973 88.4037 144.196 87.3137 144.344 86.4468C134.832 81.2696 135.476 76.4641 135.501 76.365C135.551 76.4888 137.26 81.2201 145.707 85.0596C149.744 85.5055 154.253 84.2421 157.077 83.2265C155.442 90.9798 156.755 93.8285 161.164 97.1478C166.168 100.938 170.329 100.789 172.98 99.4019C172.608 103.514 173.673 105.322 173.673 105.322C178.008 113.175 185.836 112.407 189.403 110.673C189.997 113.794 191.632 116.395 195.075 117.609C205.281 121.25 208.03 118.649 215.437 109.707C215.437 109.707 215.437 109.707 215.437 109.682C219.252 104.257 222.15 99.8478 222.15 99.8478Z" fill="#DC9964"/>
<path d="M222.15 99.8484C222.15 99.8732 240.704 125.437 250.835 138.788C244.692 135.395 213.134 117.956 209.69 116.024C211.4 114.488 213.183 112.382 215.388 109.707C215.388 109.707 215.388 109.707 215.388 109.682C219.252 104.258 222.15 99.8484 222.15 99.8484Z" fill="#FFCB00"/>
<path opacity="0.2" d="M224.801 99.7245C224.801 101.013 217.122 117.857 215.635 119.318C215.388 119.194 209.889 116.148 209.69 116.024C211.4 114.488 213.183 112.382 215.388 109.707C215.388 109.707 215.388 109.707 215.388 109.682C219.252 104.208 222.15 99.8236 222.15 99.8236C222.299 99.3777 222.398 98.9566 222.497 98.5107L224.801 99.7245Z" fill="black"/>
</g>
<defs>
<clipPath id="clip0_1435_5834">
<rect width="286.429" height="201.561" fill="white" transform="translate(30.2852 9.93359)"/>
</clipPath>
</defs>
</svg>
