<svg width="348" height="224" viewBox="0 0 348 224" fill="none" xmlns="http://www.w3.org/2000/svg">
<g clip-path="url(#clip0_1435_5833)">
<path d="M55.039 157.592C64.8127 141.684 83.5513 130.158 102.357 132.517C121.231 134.876 137.138 150.043 156.146 149.975C174.144 149.908 189.108 136.022 198.409 120.924C207.711 105.825 213.508 88.704 224.36 74.6838C229.753 67.7411 236.358 61.6746 243.706 56.8215C248.559 53.6534 253.816 50.9572 259.546 50.1484C271.679 48.3958 283.744 55.3385 291.024 64.9775C298.304 74.6164 301.606 86.5471 304.033 98.2755C311.448 134.135 312.391 171.208 306.729 207.404C306.325 209.831 305.853 212.527 304.033 214.212C302.55 215.628 300.528 216.167 298.573 216.639C278.15 221.424 256.85 219.739 235.887 218.324C200.836 215.965 66.363 220.953 46.6134 219.739C31.0428 218.796 46.8156 171.006 55.039 157.592Z" fill="#FFF6EB"/>
<path d="M168.346 132.653C174.278 130.967 179.603 127.665 184.321 123.822C196.454 113.847 204.812 99.0175 204.88 83.5143C204.947 68.0112 195.78 52.3058 181.221 46.2393C167.537 40.5773 150.956 44.015 139.295 53.0472C127.634 62.0795 120.624 76.0323 117.927 90.3222C115.77 102.118 116.647 119.509 129.184 125.71C140.104 131.035 156.483 136.023 168.346 132.653Z" fill="#FFF6EB"/>
<path d="M125.342 32.4209C124.871 34.3083 124.736 36.4652 125.545 38.2178C126.893 41.3184 130.533 42.8013 133.903 43.2731C135.992 43.5428 138.149 43.6102 140.171 42.9361C142.194 42.3295 143.946 41.0488 145.631 39.7681C147.856 38.1504 150.08 36.4652 151.428 34.1735C153.248 31.1402 153.248 27.0959 151.361 24.0627C145.025 13.4127 127.769 23.1865 125.342 32.4209Z" fill="#FFF6EB"/>
<path d="M216.137 36.1284C215.598 35.7914 214.991 35.4544 214.385 35.2522C210.206 33.5671 204.611 36.6003 202.926 40.5098C200.904 45.2281 203.667 51.362 208.588 53.1145C212.834 54.6648 218.159 52.8449 220.316 48.9354C222.743 44.5541 220.182 38.8246 216.137 36.1284Z" fill="#FFF6EB"/>
<path d="M96.8985 18.5354C97.7747 16.5806 99.1228 14.7607 100.808 13.48C102.965 11.8623 105.594 10.986 108.223 10.8512C113.548 10.5816 118.873 13.5474 121.434 18.1983C125.68 25.8825 121.636 37.4762 112.334 38.622C108.897 39.0265 105.392 38.0154 102.628 35.9933C100.067 34.1733 98.0444 31.5445 96.8985 28.5787C96.0222 26.1521 95.6852 23.5233 96.157 21.0293C96.2918 20.1531 96.5614 19.3442 96.8985 18.5354Z" fill="#DC997A"/>
<path d="M118.198 26.3545C118.644 26.3545 119.006 25.9924 119.006 25.5457C119.006 25.099 118.644 24.7368 118.198 24.7368C117.751 24.7368 117.389 25.099 117.389 25.5457C117.389 25.9924 117.751 26.3545 118.198 26.3545Z" fill="black"/>
<path d="M110.312 26.3545C110.759 26.3545 111.121 25.9924 111.121 25.5457C111.121 25.099 110.759 24.7368 110.312 24.7368C109.865 24.7368 109.503 25.099 109.503 25.5457C109.503 25.9924 109.865 26.3545 110.312 26.3545Z" fill="black"/>
<path d="M114.355 24.5342C114.49 25.0061 114.558 25.5453 114.558 26.0845C114.49 26.6238 114.355 27.0956 114.153 27.5674C114.018 27.9045 114.558 28.1741 114.76 27.8371C115.299 26.826 115.299 25.4779 114.895 24.3994C114.76 24.1298 114.288 24.2646 114.355 24.5342Z" fill="#DC997A"/>
<path d="M115.637 29.3201C115.569 29.9267 114.963 30.3312 114.356 30.3312C113.682 30.3312 113.075 29.8593 112.738 29.3201C112.603 29.0505 112.199 29.3201 112.334 29.5897C112.738 30.3312 113.547 30.9378 114.423 30.8704C115.232 30.803 115.974 30.1964 116.041 29.3875C116.108 29.1853 115.704 29.1179 115.637 29.3201Z" fill="black"/>
<path d="M105.323 28.2417C105.323 28.9157 106.065 29.3876 107.008 29.3876C107.952 29.3876 108.693 28.8483 108.693 28.2417C108.693 27.5676 107.952 27.0958 107.008 27.0958C106.065 27.0284 105.323 27.5676 105.323 28.2417Z" fill="#DC997A"/>
<path d="M119.816 29.9942C120.747 29.9942 121.501 29.4811 121.501 28.8483C121.501 28.2154 120.747 27.7024 119.816 27.7024C118.885 27.7024 118.131 28.2154 118.131 28.8483C118.131 29.4811 118.885 29.9942 119.816 29.9942Z" fill="#DC997A"/>
<path d="M99.1893 28.4437C100.492 28.4437 101.548 27.3875 101.548 26.0845C101.548 24.7816 100.492 23.7253 99.1893 23.7253C97.8863 23.7253 96.8301 24.7816 96.8301 26.0845C96.8301 27.3875 97.8863 28.4437 99.1893 28.4437Z" fill="#DC997A"/>
<path d="M98.1111 25.141C98.5155 25.4106 98.8526 25.6802 99.1896 26.0172C99.3244 26.152 99.5266 26.3543 99.6614 26.5565C99.7962 26.7587 99.931 26.9609 100.066 27.1631C100.133 27.2305 100.268 27.2305 100.403 27.1631C100.47 27.0957 100.538 26.9609 100.47 26.8261C100.335 26.6239 100.201 26.4217 99.9984 26.2194C99.8636 26.0172 99.6614 25.8824 99.5266 25.6802C99.1896 25.3432 98.7852 25.0062 98.3133 24.8039C98.1111 24.6691 97.9089 25.0062 98.1111 25.141Z" fill="#DC997A"/>
<path d="M98.8526 25.7474C98.7178 26.2192 98.6504 26.691 98.6504 27.2303C98.6504 27.3651 98.7852 27.4999 98.92 27.4999C99.0548 27.4999 99.1896 27.3651 99.1896 27.2303C99.1896 26.7584 99.1896 26.354 99.3244 25.8822C99.3244 25.7474 99.3244 25.68 99.1896 25.6125C98.9874 25.6125 98.8526 25.6125 98.8526 25.7474Z" fill="#DC997A"/>
<path d="M94.5387 12.9408C94.8083 12.3342 95.1453 11.8623 95.4824 11.5927C96.6283 10.8513 97.7067 11.5253 97.3697 12.806C98.8526 6.67215 103.908 1.34715 110.177 0.133864C110.986 -0.000945964 111.794 -0.135756 112.536 0.201269C114.558 1.01013 113.682 3.90854 113.008 5.32405C114.019 2.96487 118.939 1.41456 121.164 0.942724C124.601 0.201269 129.589 0.403484 132.083 3.16709C132.96 4.11076 133.364 5.32405 133.566 6.53734C134.173 10.4468 132.083 14.5585 128.646 16.4459C129.657 15.9066 130.533 19.4791 130.466 19.8835C130.263 24.1974 124.871 24.8715 121.703 24.0626C120.827 23.8604 113.817 20.8946 114.491 19.4117C113.682 21.299 112.266 22.7819 110.177 23.119C108.155 23.456 105.998 22.5123 104.852 20.8272C105.458 22.3775 102.964 23.5234 101.886 23.9278C99.257 24.9389 96.2238 24.2649 94.6061 21.9057C93.595 20.4228 93.258 18.468 93.5276 16.6481C93.7298 15.8392 93.9995 14.1541 94.5387 12.9408Z" fill="#6B441C"/>
<path d="M98.3808 31.4775C98.246 32.3538 97.8416 33.1627 97.5046 33.9715C97.235 34.5782 96.9653 35.1848 96.6957 35.7915C96.4261 36.3981 95.9543 37.0047 95.4824 37.4766C97.0327 40.2402 98.1786 45.9022 100.538 47.9244C102.493 49.6095 106.604 50.4857 109.098 51.1598C109.435 51.2272 108.963 48.5984 109.233 48.3288C109.503 48.0592 109.368 47.5873 109.233 47.1829C108.492 44.8911 108.289 42.3297 108.694 39.9706C108.761 39.4987 108.896 38.9595 109.3 38.6899C107.143 38.3528 105.324 37.1396 103.436 36.0611C101.481 34.8478 99.1897 33.4997 98.3808 31.4775Z" fill="#DC997A"/>
<path d="M98.1113 31.3425C100.942 34.7128 104.784 37.2068 109.031 38.5549C108.424 39.5659 108.357 40.6444 108.424 41.8577C105.93 40.7118 103.908 38.8919 101.953 37.0045C100.336 35.3194 98.718 33.5669 98.1113 31.3425Z" fill="#DC997A"/>
<path d="M95.4822 36.8022C87.3936 40.1051 81.4619 47.3848 78.3613 55.5408C75.2607 63.6968 75.3281 79.2 75.7325 87.8952C87.9328 92.681 98.1784 90.7936 111.188 89.2433C111.794 89.1759 114.693 90.3892 115.164 89.9848C115.569 89.5804 115.973 84.525 116.108 83.9857C117.052 80.9525 117.861 77.9193 118.535 74.8187C120.085 67.9434 120.961 60.394 117.726 54.1253C115.704 50.2158 112.603 48.0589 109.233 45.2279C109.3 45.2953 109.368 45.3627 109.368 45.3627C109.233 45.2953 108.896 45.1605 108.761 45.0931C108.694 46.1041 109.772 47.25 109.098 47.9915C108.896 48.1937 108.559 48.3285 108.289 48.3959C106.941 48.5981 105.66 47.7219 104.582 46.913C101.279 44.3516 98.3132 41.3858 95.8192 38.0155C95.5496 37.7459 95.7518 37.1393 95.4822 36.8022Z" fill="#D4C497"/>
<path d="M114.288 50.0137C120.018 53.0469 124.871 57.4282 129.791 61.6747C142.329 72.4595 155.742 82.3007 169.83 90.9285C167.808 95.9165 165.651 100.837 161.606 104.409C157.09 104.544 152.17 102.859 148.125 100.837C137.071 95.3772 126.758 88.3671 117.591 80.0763C118.872 69.9656 119.141 58.9785 114.288 50.0137Z" fill="#D4C497"/>
<path d="M114.288 50.5527C117.389 51.6986 119.68 53.8556 120.961 56.8888C124.062 63.9663 124.399 71.9201 124.601 79.6717C124.668 81.4916 124.736 83.4464 123.927 85.0641C122.444 84.7945 121.096 83.7834 119.95 82.7723C119.141 81.9635 118.265 81.222 117.456 80.4131C118.13 75.223 118.4 69.9654 118.198 64.7752C118.13 59.585 116.782 55.1363 114.288 50.5527Z" fill="#D4C497"/>
<path d="M163.359 101.242C163.764 102.523 165.314 102.995 166.662 103.264C169.426 103.803 172.257 104.41 175.155 104.343C176.369 104.343 177.717 104.14 178.593 103.332C179.537 102.523 179.874 100.905 178.93 100.096C179.739 100.029 180.413 99.2199 180.413 98.411C180.413 97.6022 179.739 96.8607 178.93 96.7933C179.537 96.9281 180.076 96.3889 180.143 95.7822C180.143 95.1756 179.739 94.6364 179.267 94.3667C178.728 94.0971 178.121 93.9623 177.582 93.8949C174.751 93.5579 171.852 93.7601 169.224 92.749C166.932 95.7822 164.977 97.9392 163.359 101.242Z" fill="#DC997A"/>
<path d="M172.392 93.4902C173.066 92.3443 173.807 91.1985 174.481 90.0526C174.683 89.6481 175.155 89.2437 175.56 89.5133C175.695 89.6481 175.762 89.7829 175.762 89.9852C176.032 91.1984 176.099 92.4791 175.897 93.6924C174.751 94.3665 173.133 94.2317 172.122 93.288" fill="#DC997A"/>
<path d="M163.427 87.7604C161.674 90.0521 159.922 92.4113 158.304 94.8379C157.495 96.0512 156.686 97.2645 155.877 98.4778C155.473 99.0844 155.136 99.6236 154.731 100.23C154.327 100.837 153.855 101.511 153.518 102.185C153.383 102.455 153.788 102.859 153.99 102.589C154.462 102.05 154.799 101.376 155.203 100.77C155.608 100.163 155.945 99.6236 156.349 99.017C157.158 97.8037 157.967 96.523 158.776 95.3097C160.393 92.8831 162.079 90.4566 163.764 88.0974C163.966 87.7604 163.562 87.5582 163.427 87.7604Z" fill="#D4C497"/>
<path d="M57.5332 102.32C57.8702 102.455 58.2073 105.286 58.2747 105.758C58.8139 108.387 59.6902 110.881 60.6338 113.24C61.1731 114.521 61.6449 115.936 62.319 117.082C62.3864 117.284 63.5997 119.037 63.6671 118.7C64.2063 116.341 62.319 113.375 61.6449 111.42C62.3864 113.712 63.2626 115.869 64.3411 117.823C64.6781 118.43 65.0826 119.104 65.5544 119.037C65.7566 118.7 65.6218 118.228 65.5544 117.823C64.9478 115.397 64.2063 113.105 63.4648 110.746C64.0041 112.161 64.4759 113.577 65.0826 114.992C65.5544 116.206 66.161 117.486 66.9025 118.363C67.1047 118.565 67.3069 118.767 67.5091 118.43C67.5765 118.295 67.5765 118.093 67.644 117.958C67.7114 116.947 67.5091 116.004 67.3069 115.06C66.7677 112.633 66.161 110.207 65.6218 107.78C66.3633 109.263 67.1047 110.679 67.981 111.959C68.4528 112.701 69.5987 114.318 69.2617 112.229C68.9921 110.611 68.3854 109.128 68.0484 107.51C67.9136 106.634 67.7114 104.14 66.8351 104.073C63.7345 103.736 60.5664 103.331 57.5332 102.32Z" fill="#DC997A"/>
<path d="M79.8442 39.4311C75.1932 41.6554 71.1489 45.0931 67.5091 48.8004C65.7565 50.6203 64.0714 52.5076 62.6559 54.5972C59.2183 59.72 57.3983 65.7864 56.2524 71.9203C54.3651 82.2332 54.1629 92.8158 55.7132 103.129C60.7686 104.679 66.0262 105.421 71.2838 105.353C71.1489 101.241 71.6208 97.1297 72.0926 93.0854C73.3059 82.9747 74.7888 72.7965 78.2265 63.1576C80.1812 57.563 82.81 52.1706 86.3151 47.3849C88.0676 44.9583 90.0897 42.7339 92.2467 40.577C94.7407 38.1504 93.5274 36.7349 90.292 36.8697C86.5847 36.8697 83.0796 37.8808 79.8442 39.4311Z" fill="#D4C497"/>
<path d="M70.071 98.4778C67.8466 99.0845 65.4874 99.3541 63.1957 99.2193C60.8365 99.1519 58.6121 98.68 56.3878 97.9386C55.9159 97.8038 55.7137 98.4778 56.1855 98.68C60.5669 100.298 65.6896 100.298 70.1384 98.8822C70.4754 98.8148 70.3406 98.4104 70.071 98.4778Z" fill="#D4C497"/>
<path d="M84.7639 203.833C83.8202 206.057 82.4721 208.079 81.124 210.101C78.3604 210.371 75.5968 210.034 72.8332 209.495C72.4962 207.338 72.294 205.181 72.2266 203.024C76.6079 202.889 80.45 203.293 84.7639 203.833Z" fill="#DC997A"/>
<path d="M82.203 208.888C82.0682 210.438 82.0008 211.988 82.0008 213.606C82.0008 214.145 82.0008 214.752 81.6638 215.224C81.192 215.898 80.1809 215.965 79.3046 215.898C72.6315 215.83 64.6103 215.965 57.9372 215.965C58.0721 215.965 57.8698 216.235 57.8024 216.1C57.6676 216.033 57.735 215.83 57.8024 215.696C60.1616 211.786 64.8126 210.303 69.1939 209.629C70.2724 209.427 82.203 208.685 82.203 208.888Z" fill="#3D5365"/>
<path d="M109.637 208.888C109.772 210.438 109.839 211.988 109.839 213.606C109.839 214.145 109.839 214.752 110.176 215.224C110.648 215.898 111.659 215.965 112.535 215.898C119.209 215.83 127.23 215.965 133.903 215.965C133.768 215.965 133.97 216.235 134.038 216.1C134.172 216.033 134.105 215.83 134.038 215.696C131.678 211.786 127.027 210.303 122.646 209.629C121.5 209.427 109.57 208.685 109.637 208.888Z" fill="#3D5365"/>
<path d="M103.571 90.9969C100.133 122.273 91.3031 197.699 89.0114 203.833C86.5848 203.9 69.2617 203.361 66.3633 202.08C69.7335 164.064 72.9016 125.98 75.7326 87.8962C85.1693 91.1991 93.5275 91.1991 103.571 90.9969Z" fill="#B46058"/>
<path d="M107.008 203.833C107.951 206.057 109.3 208.079 110.648 210.101C113.411 210.371 116.175 210.034 118.938 209.495C119.276 207.338 119.478 205.181 119.545 203.024C115.164 202.889 111.322 203.293 107.008 203.833Z" fill="#DC997A"/>
<path d="M88.2695 90.9966C91.7072 122.273 100.537 197.699 102.829 203.833C105.256 203.9 122.579 203.361 125.477 202.08C122.107 164.064 118.939 125.98 116.108 87.896C106.671 91.1988 98.3129 91.1988 88.2695 90.9966Z" fill="#B46058"/>
<path d="M116.31 87.2214H75.3955V91.805H116.31V87.2214Z" fill="#3D5365"/>
<path d="M103.436 87.2217H94.8086V91.6704H103.436V87.2217Z" fill="#E8C436"/>
<path d="M100.201 96.4565C100.201 96.4565 97.437 148.426 95.8867 154.762L96.8304 163.996C96.8304 164.064 101.953 131.035 100.201 96.4565Z" fill="#B46058"/>
<path d="M155.651 66.2972L155.64 66.2714L155.625 66.2473C155.016 65.2319 154.373 64.2173 153.734 63.2077L153.732 63.2056C153.092 62.1937 152.454 61.1869 151.85 60.1808L151.824 60.1371L151.788 60.1011C151.479 59.7921 151.065 59.8517 150.819 60.0157C150.694 60.0992 150.575 60.2304 150.522 60.4052C150.466 60.5847 150.491 60.7815 150.604 60.95C151.744 63.029 152.897 65.1293 154.254 67.0974C154.525 67.5007 154.993 67.537 155.317 67.3493C155.645 67.1598 155.84 66.7402 155.651 66.2972Z" fill="#507B99" stroke="#507B99" stroke-width="0.82783"/>
<path d="M165.583 64.3708C165.583 64.9101 166.392 64.9101 166.392 64.3708L165.651 57.4955C165.583 57.1585 165.044 57.2259 165.111 57.5629C165.381 59.7873 165.583 62.079 165.583 64.3708ZM164.702 57.6252C164.97 59.8374 165.169 62.1066 165.169 64.3708C165.169 64.6179 165.266 64.8337 165.435 64.9835C165.595 65.1265 165.798 65.1892 165.988 65.1892C166.177 65.1892 166.38 65.1265 166.541 64.9835C166.709 64.8337 166.806 64.6179 166.806 64.3708H166.806L166.806 64.3586C166.738 62.0427 166.465 59.7306 166.058 57.4236L166.058 57.4236L166.056 57.4143C165.969 56.9774 165.568 56.8296 165.279 56.8657C165.131 56.8842 164.967 56.9516 164.845 57.0912C164.718 57.2374 164.668 57.4293 164.702 57.6252Z" fill="#507B99" stroke="#507B99" stroke-width="0.82783"/>
<path d="M180.276 57.1448L180.276 57.1448L180.275 57.1478C179.941 58.8878 179.539 60.5615 179.07 62.2362C179.004 62.4681 179.043 62.6956 179.166 62.8775C179.282 63.0496 179.456 63.1558 179.629 63.2031C179.802 63.2503 180.005 63.2469 180.192 63.1603C180.389 63.069 180.542 62.8966 180.608 62.6647L180.608 62.6647L180.61 62.6586C181.087 60.884 181.36 59.1125 181.628 57.3668L181.629 57.3636C181.666 57.1649 181.616 56.9698 181.487 56.8217C181.366 56.6821 181.202 56.6147 181.053 56.5962C180.765 56.5601 180.363 56.7079 180.276 57.1448Z" fill="#507B99" stroke="#507B99" stroke-width="0.82783"/>
<path d="M193.066 57.6533C192.87 57.6916 192.729 57.8237 192.649 57.9817C191.7 59.8116 190.817 61.713 190.069 63.6853L190.068 63.6868C189.976 63.932 189.997 64.1847 190.13 64.3917C190.255 64.5848 190.451 64.6953 190.637 64.7401C190.825 64.7852 191.042 64.7735 191.237 64.6771C191.438 64.5775 191.596 64.3963 191.662 64.1499C192.264 62.2788 192.928 60.3542 193.721 58.5654C193.918 58.2264 193.717 57.8902 193.524 57.7552C193.413 57.6771 193.25 57.6174 193.066 57.6533Z" fill="#507B99" stroke="#507B99" stroke-width="0.82783"/>
<path d="M234.674 50.6206C228.944 53.6538 224.091 58.0352 219.17 62.2817C206.633 73.0665 193.219 82.9076 179.132 91.5354C181.154 96.5234 183.311 101.444 187.355 105.016C191.871 105.151 196.792 103.466 200.836 101.444C211.891 95.9842 222.204 88.974 231.371 80.6832C230.09 70.5725 229.82 59.5855 234.674 50.6206Z" fill="#C8E1EA"/>
<path d="M234.404 50.3511C231.303 51.497 229.281 54.4628 227.933 57.496C224.832 64.5735 224.495 72.5273 224.293 80.2789C224.226 82.0988 224.158 84.0536 224.967 85.6713C226.45 85.4017 227.798 84.3906 228.944 83.3795C229.753 82.5707 230.629 81.8292 231.438 81.0203C230.764 75.8302 230.495 70.5726 230.697 65.3824C230.832 60.2596 231.91 54.9346 234.404 50.3511Z" fill="#C8E1EA"/>
<path d="M185.198 88.6373C186.883 90.9964 188.568 93.423 190.186 95.8496C190.995 97.0629 191.803 98.2762 192.612 99.4895C193.017 100.096 193.421 100.703 193.826 101.309C194.23 101.916 194.567 102.59 195.039 103.129C195.241 103.399 195.645 103.062 195.511 102.725C195.174 102.051 194.702 101.444 194.297 100.77C193.893 100.164 193.556 99.6243 193.151 99.0176C192.343 97.8043 191.534 96.591 190.725 95.3778C189.107 92.9512 187.355 90.592 185.602 88.3002C185.4 88.1654 184.995 88.3676 185.198 88.6373Z" fill="#C8E1EA"/>
<path d="M185.535 101.916C185.13 103.197 183.58 103.669 182.232 103.939C179.468 104.478 176.637 105.084 173.739 105.017C172.526 105.017 171.178 104.815 170.301 104.006C169.358 103.197 169.021 101.579 169.964 100.77C169.155 100.703 168.481 99.8942 168.481 99.0854C168.481 98.2765 169.155 97.535 169.964 97.4676C169.358 97.6024 168.818 97.0632 168.751 96.4566C168.751 95.8499 169.155 95.3107 169.627 95.0411C170.167 94.7714 170.773 94.6366 171.312 94.5692C174.143 94.2322 177.042 94.4344 179.671 93.4233C182.03 96.3892 183.985 98.5461 185.535 101.916Z" fill="#E8BDAC"/>
<path d="M176.503 94.0969C175.828 92.951 175.087 91.8051 174.413 90.6593C174.211 90.2548 173.739 89.8504 173.334 90.12C173.2 90.2548 173.132 90.3896 173.132 90.5918C172.863 91.8051 172.795 93.0858 172.997 94.2991C174.143 94.9732 175.761 94.8384 176.772 93.8947" fill="#E8BDAC"/>
<path d="M252.063 19.1421C251.187 17.1873 249.839 15.3674 248.154 14.0867C245.997 12.469 243.368 11.5927 240.739 11.4579C235.414 11.1883 230.089 14.1541 227.528 18.805C223.281 26.4892 227.326 38.0829 236.628 39.2287C240.065 39.6332 243.57 38.6221 246.334 36.5999C248.895 34.78 250.918 32.1512 252.063 29.1854C252.94 26.7588 253.277 24.13 252.805 21.636C252.67 20.7598 252.4 19.9509 252.063 19.1421Z" fill="#E8BDAC"/>
<path d="M231.573 26.1524C231.573 26.6242 231.236 26.9612 230.764 26.9612C230.292 26.9612 229.955 26.6242 229.955 26.1524C229.955 25.6805 230.292 25.3435 230.764 25.3435C231.236 25.3435 231.573 25.7479 231.573 26.1524Z" fill="black"/>
<path d="M238.582 26.9612C239.029 26.9612 239.391 26.5991 239.391 26.1524C239.391 25.7056 239.029 25.3435 238.582 25.3435C238.136 25.3435 237.773 25.7056 237.773 26.1524C237.773 26.5991 238.136 26.9612 238.582 26.9612Z" fill="black"/>
<path d="M234.067 25.0739C233.662 26.1524 233.662 27.5005 234.201 28.5115C234.336 28.8486 234.943 28.5789 234.808 28.2419C234.606 27.7701 234.404 27.2308 234.404 26.759C234.336 26.2198 234.404 25.6805 234.606 25.2087C234.673 24.8717 234.134 24.7369 234.067 25.0739Z" fill="#E8BDAC"/>
<path d="M232.854 29.9944C232.921 30.8033 233.662 31.4099 234.471 31.4773C235.347 31.5447 236.156 30.9381 236.561 30.1966C236.696 29.927 236.291 29.7248 236.156 29.927C235.819 30.4663 235.213 30.9381 234.539 30.9381C233.932 30.9381 233.325 30.5337 233.258 29.927C233.258 29.7248 232.854 29.7922 232.854 29.9944Z" fill="black"/>
<path d="M243.57 28.8488C243.57 29.5228 242.829 29.9947 241.885 29.9947C240.942 29.9947 240.2 29.4554 240.2 28.8488C240.2 28.1747 240.942 27.7029 241.885 27.7029C242.829 27.7029 243.57 28.1747 243.57 28.8488Z" fill="#E8BDAC"/>
<path d="M230.764 29.4555C230.764 30.1295 230.022 30.6013 229.079 30.6013C228.135 30.6013 227.394 30.0621 227.394 29.4555C227.394 28.7814 228.135 28.3096 229.079 28.3096C230.022 28.3096 230.764 28.7814 230.764 29.4555Z" fill="#E8BDAC"/>
<path d="M234.943 21.0973C232.449 23.7261 228.876 25.3438 225.304 25.0742C224.697 21.2321 226.113 17.1204 228.876 14.3568C230.966 12.2672 233.932 10.9865 236.898 10.7843C240.403 10.5821 238.583 14.8286 237.774 16.716C237.1 18.3337 236.156 19.8166 234.943 21.0973Z" fill="#B46058"/>
<path d="M236.898 10.7843C236.426 15.3679 237.976 19.4122 240.942 22.9172C243.908 26.4223 248.694 28.377 253.21 27.5682C253.749 24.7372 254.086 22.041 253.48 19.21C252.806 15.8397 250.177 13.5479 247.211 11.7954C244.178 10.1103 240.336 10.1777 236.898 10.7843Z" fill="#B46058"/>
<path d="M256.31 21.0297C258.602 20.0186 261.568 20.6252 262.916 22.7148C263.32 23.3888 263.59 24.1977 263.724 25.0065C264.061 27.3657 263.118 29.8597 261.365 31.4774C260.152 32.6233 258.534 33.3648 256.917 33.3648C255.299 33.4322 253.614 32.6907 252.603 31.41C251.052 29.4553 251.861 27.7702 252.535 25.748C253.142 23.7259 254.355 21.9059 256.31 21.0297Z" fill="#B46058"/>
<path d="M252.131 26.7593C252.131 28.04 251.053 29.1185 249.772 29.1185C248.492 29.1185 247.413 28.04 247.413 26.7593C247.413 25.4786 248.492 24.4001 249.772 24.4001C251.053 24.4001 252.131 25.4112 252.131 26.7593Z" fill="#E8BDAC"/>
<path d="M250.649 25.4108C250.177 25.6804 249.84 25.95 249.435 26.2871C249.233 26.4219 249.098 26.6241 248.963 26.8263C248.829 27.0285 248.626 27.2307 248.492 27.4329C248.424 27.5677 248.424 27.6352 248.559 27.77C248.626 27.8374 248.761 27.8374 248.896 27.77C249.031 27.5677 249.166 27.3655 249.3 27.1633C249.435 26.9611 249.57 26.8263 249.772 26.6241C250.109 26.2871 250.446 26.0174 250.851 25.7478C250.986 25.613 250.851 25.3434 250.649 25.4108Z" fill="#E8BDAC"/>
<path d="M249.704 26.4892C249.771 26.961 249.839 27.3654 249.839 27.8373C249.839 27.9721 249.974 28.1069 250.108 28.1069C250.243 28.1069 250.378 27.9721 250.378 27.8373C250.378 27.3654 250.311 26.8262 250.176 26.3544C250.176 26.2196 250.041 26.1522 249.906 26.2196C249.704 26.287 249.637 26.3544 249.704 26.4892Z" fill="#E8BDAC"/>
<path d="M250.581 32.0842C250.716 32.9605 251.12 33.7694 251.457 34.5782C251.727 35.1849 251.997 35.7915 252.266 36.3981C252.536 37.0048 253.008 37.6114 253.48 38.0833C251.929 40.8469 249.57 43.0038 247.211 45.026C245.256 46.7111 243.234 48.3288 240.807 49.0029C240.47 49.0703 239.999 49.1377 239.796 48.8681C239.527 48.5985 239.661 48.1266 239.796 47.7222C240.538 45.4304 240.74 42.869 240.336 40.5099C240.268 40.038 240.133 39.4988 239.729 39.2292C241.886 38.8921 243.706 37.6788 245.593 36.6004C247.413 35.4545 249.772 34.1064 250.581 32.0842Z" fill="#E8BDAC"/>
<path d="M250.783 32.0166C247.952 35.3869 244.11 37.8808 239.863 39.2289C240.47 40.24 240.537 41.3185 240.47 42.5318C242.964 41.3859 244.986 39.566 246.941 37.6786C248.559 35.9261 250.244 34.1736 250.783 32.0166Z" fill="#E8BDAC"/>
<path d="M253.479 37.4094C261.568 40.7123 267.499 47.992 270.6 56.148C273.7 64.304 271.476 74.1451 271.072 82.8404C258.871 87.6261 250.783 91.4682 237.774 89.9179C237.167 89.8505 234.134 86.5477 233.662 86.1432C233.257 85.7388 233.055 85.1996 232.853 84.6603C231.909 81.6271 231.1 78.5939 230.426 75.4932C228.876 68.6179 228 61.0686 231.235 54.7999C233.257 50.8904 236.358 48.7335 239.728 45.9025C239.661 45.9699 239.594 46.0373 239.594 46.0373C239.728 45.9699 240.065 45.835 240.2 45.7676C240.268 46.7787 239.189 47.9246 239.863 48.6661C240.065 48.8683 240.402 49.0031 240.672 49.0705C242.02 49.2727 243.301 48.3964 244.379 47.5876C247.682 45.0262 250.648 42.0604 253.142 38.6901C253.344 38.3531 253.209 37.7464 253.479 37.4094Z" fill="#C8E1EA"/>
<path d="M242.493 48.6654C242.627 49.8113 241.819 50.8898 240.605 51.0246C239.459 51.1594 238.381 50.3505 238.246 49.1372C238.111 47.9914 238.92 46.9129 240.133 46.7781C241.279 46.6433 242.358 47.4521 242.493 48.6654Z" fill="#E8C436"/>
<path d="M248.761 40.0379C249.031 39.7683 249.435 39.4987 249.84 39.6335C250.109 39.7009 250.244 40.0379 250.311 40.2402C251.659 43.6104 251.39 47.3851 250.648 50.9576C250.514 51.5642 250.311 52.3057 249.705 52.5753C249.233 52.7775 248.694 52.6427 248.222 52.4405C246.604 51.8338 245.054 51.1598 243.638 50.2835C243.032 49.9465 242.492 49.542 242.088 49.0028C240.672 47.1829 243.032 45.7 244.245 44.4867C245.66 43.0038 247.211 41.4534 248.761 40.0379Z" fill="#E8C436"/>
<path d="M243.369 61.8097C243.436 62.0793 243.571 62.3489 243.841 62.4163C244.043 62.4837 244.245 62.4163 244.38 62.2815C244.919 62.0119 245.459 61.6074 245.93 61.203C246.133 61.0008 246.267 60.7986 246.335 60.5964C246.402 60.2593 246.335 59.9223 246.2 59.6527C245.189 56.6195 243.706 53.6536 241.886 51.0249C241.616 50.6204 241.212 49.8116 240.605 49.9464C239.864 50.0812 240.134 50.89 240.201 51.3619C240.605 53.047 241.077 54.7321 241.549 56.4173C242.223 58.1698 242.762 59.9897 243.369 61.8097Z" fill="#E8C436"/>
<path d="M231.169 40.9814C230.832 40.7117 230.427 40.4421 230.09 40.6443C229.82 40.7791 229.753 41.0488 229.618 41.3184C228.472 44.756 229.079 48.5307 230.09 52.0358C230.292 52.6424 230.562 53.3839 231.169 53.5861C231.64 53.7883 232.18 53.5861 232.651 53.3839C234.202 52.7098 235.685 51.8336 237.1 50.8899C237.639 50.4855 238.179 50.081 238.583 49.5418C239.864 47.587 237.37 46.3064 236.089 45.2279C234.471 43.745 232.786 42.3295 231.169 40.9814Z" fill="#E8C436"/>
<path d="M238.044 62.349C237.977 62.6186 237.842 62.8882 237.64 63.023C237.438 63.0904 237.235 63.023 237.101 62.9556C236.494 62.686 235.955 62.349 235.483 61.9445C235.281 61.8097 235.078 61.6075 235.011 61.3379C234.876 61.0009 234.944 60.6638 235.078 60.3942C235.887 57.2936 237.101 54.2604 238.786 51.4968C239.055 51.0923 239.325 50.2161 239.999 50.2835C240.74 50.4183 240.538 51.1597 240.471 51.699C240.201 53.4515 239.864 55.1366 239.46 56.8218C238.988 58.6417 238.583 60.529 238.044 62.349Z" fill="#E8C436"/>
<path d="M243.705 158.67C234.269 174.443 226.719 192.642 225.304 210.976C221.731 210.976 219.574 210.707 216.069 209.763C217.485 191.227 220.788 172.825 225.776 154.963C231.977 156.513 237.369 158.131 243.705 158.67Z" fill="#E8BDAC"/>
<path d="M225.371 211.179C225.371 211.112 225.304 211.112 225.304 211.179C225.573 212.595 225.506 214.145 225.236 215.56C218.63 215.897 211.688 216.032 205.082 216.1C206.093 214.145 207.846 212.595 209.8 211.583C211.755 210.572 213.979 210.033 216.204 209.898C216.002 209.224 215.867 208.55 215.867 207.876C219.372 208.415 222.877 208.82 226.382 209.157C225.978 209.764 225.775 210.572 225.371 211.179Z" fill="#96C4B0"/>
<path d="M281.519 149.638C285.496 166.557 291.091 183.341 298.505 199.046C296.281 201.473 293.989 203.36 290.956 204.641C278.621 190.216 268.578 173.904 261.163 156.446C268.106 154.289 274.577 151.93 281.519 149.638Z" fill="#E8BDAC"/>
<path d="M298.641 199.585C298.641 199.518 298.506 199.585 298.573 199.653C299.652 200.596 300.528 201.944 301.135 203.225C296.012 207.404 290.485 211.718 285.227 215.628C284.89 213.471 285.362 211.179 286.373 209.157C287.384 207.135 288.867 205.449 290.485 203.967C289.945 203.562 289.406 203.09 289.002 202.551C292.102 200.933 295.203 199.181 298.236 197.361C298.304 198.035 298.573 198.776 298.641 199.585Z" fill="#96C4B0"/>
<path d="M271.072 82.8401C272.959 84.7948 286.642 127.395 288.327 143.774C281.385 151.054 271.611 155.098 261.702 157.188C251.457 159.345 240.672 159.547 230.561 156.716C226.113 155.503 221.799 153.75 219.103 150.043C222.945 143.707 234.538 92.8834 235.415 86.6822C243.234 86.4126 263.185 83.3793 271.072 82.8401Z" fill="#507B99"/>
<path opacity="0.2" d="M280.711 122.946C281.654 127.866 280.037 133.056 277.003 137.033C273.97 141.01 269.724 143.976 265.208 146.133C254.625 151.256 242.56 152.536 230.898 151.323C233.527 152.941 236.56 153.48 239.661 153.817C250.378 154.896 261.5 153.817 271.207 149.234C273.835 148.02 276.397 146.47 278.217 144.246C281.115 140.673 281.857 135.82 281.789 131.169C281.722 128.405 281.654 125.574 280.711 122.946Z" fill="#507B99"/>
<path d="M291.428 102.927C291.091 103.062 290.754 105.893 290.687 106.365C290.148 108.994 289.271 111.488 288.328 113.847C287.788 115.128 287.317 116.543 286.642 117.689C286.575 117.891 285.362 119.644 285.294 119.307C284.755 116.947 286.642 113.982 287.317 112.027C286.575 114.319 285.699 116.476 284.62 118.43C284.283 119.037 283.879 119.711 283.407 119.644C283.205 119.307 283.34 118.835 283.407 118.43C284.014 116.004 284.755 113.712 285.497 111.353C284.957 112.768 284.485 114.184 283.879 115.599C283.407 116.813 282.8 118.093 282.059 118.97C281.857 119.172 281.655 119.374 281.452 119.037C281.385 118.902 281.385 118.7 281.317 118.565C281.25 117.554 281.452 116.61 281.654 115.667C282.194 113.24 282.8 110.814 283.34 108.387C282.598 109.87 281.857 111.285 280.98 112.566C280.509 113.308 279.363 114.925 279.7 112.836C279.969 111.218 280.576 109.735 280.913 108.117C281.048 107.241 281.25 104.747 282.126 104.68C285.16 104.343 288.328 103.938 291.428 102.927Z" fill="#E8BDAC"/>
<path d="M269.117 40.038C273.768 42.2624 277.813 45.7 281.453 49.4073C283.205 51.2273 284.89 53.1146 286.306 55.2041C289.743 60.3269 291.563 66.3934 292.709 72.5272C294.597 82.7728 294.799 93.3554 293.316 103.668C288.26 105.219 283.003 105.96 277.745 105.893C277.88 101.781 277.408 97.6693 276.936 93.625C275.723 83.5142 274.24 73.3361 270.803 63.6972C268.848 58.1026 266.219 52.7102 262.714 47.9244C260.961 45.4978 258.939 43.2735 256.782 41.1165C254.288 38.6899 255.502 37.2744 258.737 37.4092C262.31 37.544 265.882 38.4877 269.117 40.038Z" fill="#C8E1EA"/>
<path d="M278.757 99.5571C283.205 100.973 288.328 100.973 292.709 99.3549C293.181 99.2201 292.979 98.4787 292.507 98.6135C290.283 99.2875 288.058 99.8268 285.699 99.8942C283.408 99.9616 281.048 99.692 278.824 99.1527C278.554 99.0179 278.487 99.4223 278.757 99.5571Z" fill="#C8E1EA"/>
<path d="M271.814 67.0671C271.814 67.0671 267.904 51.0921 262.646 47.9241L271.409 77.8519C271.409 77.8519 272.959 68.9544 271.814 67.0671Z" fill="#C8E1EA"/>
<path d="M309.897 215.56H33.9414V220.952H309.897V215.56Z" fill="#3D5365"/>
</g>
<defs>
<clipPath id="clip0_1435_5833">
<path d="M0 52.9811C0 23.7205 23.7205 0 52.9811 0H295.019C324.28 0 348 23.7205 348 52.9811V207.443C348 216.587 340.587 224 331.443 224H16.5566C7.41266 224 0 216.587 0 207.443V52.9811Z" fill="white"/>
</clipPath>
</defs>
</svg>
