<svg width="348" height="224" viewBox="0 0 348 224" fill="none" xmlns="http://www.w3.org/2000/svg">
<path d="M222.968 57.324C222.931 55.4358 221.42 53.8497 219.305 53.2832C219.796 52.5657 220.06 51.7349 220.06 50.8663C220.023 48.8648 218.588 47.1276 216.511 46.3346C217.153 45.466 217.53 44.4464 217.492 43.3889C217.455 40.2545 214.32 37.7243 210.468 37.762C209.335 37.762 208.278 37.9886 207.334 38.404C207.183 36.7802 205.71 35.4584 203.784 35.1941C204.162 34.3632 204.388 33.4947 204.388 32.5505C204.35 28.6608 200.423 25.5264 195.627 25.5641C194.116 25.5641 192.719 25.904 191.473 26.4705C191.02 24.8844 189.282 23.7514 187.243 23.7514C186.828 23.7514 186.45 23.827 186.072 23.9025C186.223 23.4116 186.337 22.8828 186.337 22.3541C186.299 19.2197 183.165 16.6895 179.313 16.7272C178.104 16.7272 176.971 16.9916 175.989 17.4448C176.14 16.8405 176.216 16.2363 176.216 15.6321C176.178 10.6472 171.269 6.75743 165.302 6.79519C159.335 6.83296 154.501 10.836 154.577 15.7076C154.577 16.0852 154.615 16.4629 154.69 16.8405C154.652 16.8405 154.615 16.8405 154.577 16.8405C149.781 16.8783 145.929 20.0883 145.967 23.978C145.967 24.469 146.042 24.9221 146.155 25.3753C146.08 25.3753 146.042 25.3753 145.967 25.3753C142.152 25.4131 139.093 27.9433 139.056 31.04C137.696 30.5113 136.186 30.2092 134.599 30.2092C129.124 30.2469 124.705 33.9101 124.743 38.404C124.743 39.3859 124.97 40.2923 125.385 41.1231C125.347 41.1231 125.347 41.1231 125.309 41.1231C122.364 41.1608 119.985 43.1246 120.022 45.5415C120.022 45.617 120.06 45.6548 120.06 45.6926C118.889 45.2394 117.568 44.9751 116.17 44.9751C111.374 45.0128 107.522 48.2228 107.56 52.1125C107.56 52.9811 107.787 53.7742 108.127 54.5295C104.841 55.0204 102.349 57.3618 102.349 60.1941C102.386 63.3286 105.521 65.8588 109.373 65.821L219.569 64.1972C221.495 64.1972 223.044 62.8376 223.006 61.2138C223.006 60.534 222.704 59.9298 222.289 59.4388C222.742 58.8346 223.006 58.0793 222.968 57.324Z" fill="#F9E8D4"/>
<path d="M141.096 36.1762C141.096 36.1762 141.247 36.1385 141.549 36.1007C141.7 36.1007 141.889 36.0629 142.078 36.0629C142.266 36.0629 142.493 36.0252 142.757 36.0629C143.022 36.1007 143.324 36.1385 143.626 36.1762C143.928 36.214 144.23 36.3273 144.532 36.4406C144.834 36.5539 145.174 36.6294 145.439 36.8182C145.703 37.007 146.005 37.1959 146.307 37.3469C146.572 37.5735 146.798 37.8001 147.025 38.0267C147.289 38.2533 147.44 38.5176 147.591 38.782C147.742 39.0463 147.893 39.2729 147.969 39.5373C148.044 39.8016 148.082 40.0282 148.158 40.2548C148.233 40.4814 148.233 40.6702 148.195 40.859C148.195 41.0478 148.158 41.1989 148.158 41.3122C148.12 41.5765 148.082 41.6898 148.082 41.6898C148.082 41.6898 148.007 41.5388 147.931 41.3122C147.893 41.1989 147.818 41.0478 147.78 40.8968C147.742 40.7457 147.667 40.5569 147.516 40.3681C147.402 40.1793 147.289 39.9904 147.176 39.8016C147.062 39.575 146.874 39.424 146.723 39.1974C146.572 39.0086 146.383 38.782 146.194 38.5931C145.967 38.4043 145.816 38.2155 145.59 38.0267C145.363 37.8756 145.136 37.6868 144.872 37.5357C144.646 37.3469 144.381 37.2714 144.117 37.1203C143.853 37.007 143.626 36.856 143.399 36.7805C143.173 36.7049 142.946 36.5916 142.72 36.5161C142.531 36.4028 142.266 36.365 142.078 36.3273C141.889 36.2895 141.7 36.2517 141.587 36.214C141.285 36.2517 141.096 36.1762 141.096 36.1762Z" fill="#EFD4B9"/>
<path d="M162.848 36.7424C162.848 36.7424 162.848 36.5913 162.885 36.327C162.885 36.2137 162.923 36.0626 162.961 35.8738C162.999 35.685 162.999 35.4962 163.112 35.3073C163.225 35.0808 163.301 34.8542 163.452 34.6276C163.565 34.3632 163.754 34.1367 163.943 33.9101C164.169 33.6835 164.32 33.4191 164.585 33.2303C164.849 33.0415 165.114 32.8527 165.416 32.6261C165.718 32.475 166.058 32.324 166.36 32.1729C166.662 32.0218 167.002 31.9463 167.342 31.8708C167.682 31.7953 167.984 31.7197 168.286 31.7197C168.588 31.7197 168.89 31.7197 169.154 31.7575C169.419 31.7575 169.645 31.7953 169.834 31.8708C170.023 31.9085 170.212 31.9841 170.363 32.0218C170.627 32.0974 170.778 32.1729 170.778 32.1729C170.778 32.1729 170.627 32.1729 170.325 32.2107C170.174 32.2107 170.023 32.2484 169.796 32.2484C169.608 32.2484 169.381 32.2862 169.154 32.324C168.928 32.3617 168.663 32.4373 168.437 32.475C168.172 32.5128 167.946 32.6638 167.644 32.7016C167.379 32.7771 167.115 32.8904 166.851 33.0037C166.586 33.1548 166.322 33.2303 166.095 33.3814C165.869 33.5324 165.604 33.6835 165.378 33.8723C165.114 34.0234 164.962 34.2122 164.736 34.401C164.547 34.5898 164.32 34.7409 164.169 34.9297C164.018 35.1185 163.867 35.2696 163.716 35.4584C163.565 35.6095 163.452 35.7983 163.376 35.9493C163.263 36.1004 163.188 36.2515 163.112 36.327C162.961 36.6291 162.848 36.7424 162.848 36.7424Z" fill="#EFD4B9"/>
<path d="M122.893 52.4901C122.893 52.4901 122.93 52.339 123.044 52.1124C123.081 51.9991 123.157 51.8481 123.232 51.697C123.308 51.5459 123.384 51.3571 123.572 51.1683C123.723 50.9795 123.912 50.7907 124.101 50.5641C124.29 50.3375 124.516 50.1864 124.781 49.9976C125.045 49.8465 125.272 49.5822 125.612 49.5067C125.914 49.3934 126.254 49.2423 126.556 49.129C126.896 49.0157 127.235 48.978 127.575 48.9024C127.915 48.8269 128.255 48.8269 128.595 48.8269C128.935 48.8269 129.237 48.8269 129.539 48.9024C129.841 48.978 130.106 49.0535 130.37 49.0913C130.634 49.129 130.823 49.2423 131.012 49.3556C131.201 49.4311 131.352 49.5444 131.465 49.62C131.692 49.771 131.843 49.8465 131.843 49.8465C131.843 49.8465 131.692 49.8088 131.39 49.8088C131.239 49.771 131.087 49.771 130.899 49.7332C130.71 49.6955 130.483 49.6577 130.257 49.6577C130.03 49.6577 129.766 49.6577 129.501 49.62C129.237 49.5822 128.973 49.6955 128.671 49.6955C128.368 49.6955 128.104 49.7333 127.802 49.8088C127.5 49.8843 127.235 49.9221 126.933 50.0354C126.669 50.1487 126.367 50.2242 126.103 50.3375C125.838 50.413 125.574 50.6018 125.347 50.7151C125.121 50.8662 124.856 50.9417 124.668 51.0928C124.479 51.2438 124.29 51.3571 124.063 51.4704C123.874 51.5837 123.723 51.7348 123.572 51.8481C123.421 51.9614 123.308 52.0746 123.195 52.1879C123.044 52.4145 122.893 52.4901 122.893 52.4901Z" fill="#EFD4B9"/>
<path d="M160.997 18.238C160.997 18.238 161.11 18.1625 161.299 18.0114C161.412 17.9359 161.526 17.8604 161.677 17.7848C161.828 17.7093 161.979 17.596 162.206 17.5205C162.432 17.4449 162.659 17.3694 162.923 17.2939C163.187 17.1806 163.452 17.1806 163.754 17.1428C164.056 17.1428 164.358 17.0295 164.66 17.1051C164.962 17.1428 165.264 17.1428 165.604 17.1806C165.906 17.2561 166.209 17.3317 166.511 17.4449C166.813 17.5205 167.077 17.6715 167.304 17.7848C167.53 17.9359 167.795 18.0492 167.983 18.2002C168.172 18.3513 168.323 18.5401 168.474 18.6912C168.625 18.8422 168.739 18.9933 168.814 19.1443C168.89 19.2954 168.965 19.4087 169.041 19.522C169.154 19.7108 169.192 19.8619 169.192 19.8619C169.192 19.8619 169.079 19.7863 168.852 19.6353C168.739 19.5598 168.625 19.4842 168.512 19.3709C168.399 19.2576 168.248 19.1443 168.059 19.0688C167.87 18.9555 167.681 18.88 167.493 18.7667C167.304 18.6534 167.039 18.6156 166.851 18.5023C166.624 18.3891 166.397 18.3135 166.133 18.2758C165.869 18.2002 165.642 18.1247 165.378 18.0869C165.113 18.0492 164.849 18.0114 164.585 17.9736C164.32 17.9359 164.056 17.9736 163.829 17.9359C163.565 17.9359 163.338 17.8981 163.112 17.9736C162.885 18.0114 162.659 18.0114 162.47 18.0492C162.281 18.0492 162.054 18.1247 161.903 18.1625C161.715 18.2002 161.564 18.238 161.45 18.2758C161.148 18.238 160.997 18.238 160.997 18.238Z" fill="#EFD4B9"/>
<path d="M157.297 51.5839C157.297 51.5839 157.41 51.5084 157.599 51.3574C157.712 51.2818 157.826 51.2063 157.977 51.1308C158.128 51.0552 158.279 50.9419 158.505 50.8664C158.732 50.7909 158.959 50.7154 159.223 50.6398C159.487 50.5265 159.752 50.5265 160.054 50.4888C160.356 50.4888 160.658 50.3755 160.96 50.451C161.262 50.4888 161.564 50.4888 161.904 50.5265C162.206 50.6021 162.508 50.6776 162.81 50.7909C163.113 50.8664 163.377 51.0175 163.604 51.1308C163.83 51.2818 164.094 51.3951 164.283 51.5462C164.472 51.6972 164.623 51.8861 164.774 52.0371C164.925 52.1882 165.039 52.3392 165.114 52.4903C165.19 52.6414 165.265 52.7546 165.341 52.8679C165.454 53.0568 165.492 53.2078 165.492 53.2078C165.492 53.2078 165.378 53.1323 165.152 52.9812C165.039 52.9057 164.925 52.8302 164.812 52.7169C164.699 52.6036 164.548 52.4903 164.359 52.4148C164.17 52.3015 163.981 52.2259 163.792 52.1126C163.604 51.9994 163.339 51.9616 163.15 51.8483C162.924 51.735 162.697 51.6595 162.433 51.6217C162.168 51.5462 161.942 51.4707 161.678 51.4329C161.413 51.3951 161.149 51.3574 160.884 51.3196C160.62 51.2818 160.356 51.3196 160.129 51.2818C159.865 51.2818 159.638 51.2441 159.412 51.3196C159.185 51.3574 158.959 51.3574 158.77 51.3951C158.581 51.3951 158.354 51.4707 158.203 51.5084C158.014 51.5462 157.863 51.5839 157.75 51.6217C157.448 51.5462 157.297 51.5839 157.297 51.5839Z" fill="#EFD4B9"/>
<path d="M180.56 40.1789C180.56 40.1789 180.597 40.0656 180.711 39.839C180.748 39.7257 180.824 39.6124 180.899 39.4614C180.975 39.3103 181.051 39.1593 181.202 39.0082C181.353 38.8571 181.504 38.6683 181.655 38.4795C181.806 38.2907 182.032 38.1396 182.259 37.9886C182.486 37.8375 182.712 37.6487 183.014 37.5354C183.279 37.4221 183.581 37.3088 183.883 37.1955C184.185 37.12 184.487 37.0822 184.789 37.0067C185.091 36.9311 185.393 36.9689 185.696 36.9689C185.998 36.9689 186.262 36.9689 186.526 37.0444C186.791 37.12 187.017 37.1577 187.244 37.2333C187.47 37.271 187.659 37.3843 187.81 37.4599C187.961 37.5354 188.112 37.6109 188.226 37.6864C188.452 37.7997 188.566 37.913 188.566 37.913C188.566 37.913 188.415 37.913 188.15 37.8753C188.037 37.8375 187.886 37.8375 187.697 37.7997C187.546 37.762 187.357 37.7242 187.131 37.762C186.904 37.762 186.715 37.762 186.451 37.7242C186.224 37.6864 185.96 37.762 185.733 37.762C185.469 37.762 185.242 37.7997 184.978 37.8753C184.714 37.9508 184.449 37.9886 184.223 38.0641C183.958 38.1396 183.732 38.2529 183.505 38.3284C183.241 38.404 183.052 38.555 182.825 38.6683C182.599 38.7816 182.372 38.8571 182.221 39.0082C182.032 39.1215 181.881 39.2348 181.693 39.3481C181.504 39.4236 181.39 39.5747 181.277 39.688C181.164 39.8012 181.051 39.8768 180.937 39.9901C180.673 40.1034 180.56 40.1789 180.56 40.1789Z" fill="#EFD4B9"/>
<path d="M199.971 47.3166C199.971 47.3166 200.122 47.2788 200.424 47.2411C200.575 47.2411 200.764 47.2033 200.953 47.2033C201.141 47.2033 201.368 47.1655 201.632 47.2033C201.897 47.2411 202.199 47.2788 202.501 47.3166C202.803 47.3544 203.105 47.4677 203.407 47.581C203.709 47.6942 204.049 47.7698 204.314 47.9586C204.578 48.1474 204.88 48.3362 205.182 48.4873C205.447 48.7139 205.673 48.9405 205.9 49.1671C206.164 49.3936 206.315 49.658 206.466 49.9223C206.617 50.1867 206.768 50.4133 206.844 50.6776C206.919 50.942 206.957 51.1686 207.033 51.3952C207.108 51.6217 207.108 51.8106 207.07 51.9994C207.07 52.1882 207.033 52.3393 207.033 52.4526C206.995 52.7169 206.957 52.8302 206.957 52.8302C206.957 52.8302 206.882 52.6792 206.806 52.4526C206.768 52.3393 206.693 52.1882 206.655 52.0372C206.617 51.8861 206.542 51.6973 206.391 51.5085C206.277 51.3196 206.164 51.1308 206.051 50.942C205.937 50.7154 205.749 50.5643 205.598 50.3378C205.447 50.1489 205.258 49.9223 205.069 49.7335C204.842 49.5447 204.691 49.3559 204.465 49.1671C204.238 49.016 204.011 48.8272 203.747 48.6761C203.521 48.4873 203.256 48.4118 202.992 48.2607C202.728 48.1474 202.501 47.9964 202.274 47.9208C202.048 47.8453 201.821 47.732 201.595 47.6565C201.406 47.5432 201.141 47.5054 200.953 47.4677C200.764 47.4299 200.575 47.3921 200.462 47.3544C200.122 47.3544 199.971 47.3166 199.971 47.3166Z" fill="#EFD4B9"/>
<path d="M215.907 57.0593L207.183 63.1772L198.271 57.2104L189.547 63.3282L180.673 57.3614L171.949 63.4415L163.074 57.5125L154.313 63.5926L145.438 57.6258L136.715 63.7436L127.84 57.7768L119.079 63.8947L110.204 57.9279L101.48 64.0457L101.783 67.369L117.379 209.363L212.395 208.57L224.857 66.3871L224.819 63.0261L215.907 57.0593Z" fill="#FFA13C"/>
<path d="M127.84 56.7952L119.079 63.8949L131.39 209.25L143.06 209.137L136.715 63.7438L127.84 56.7952Z" fill="#F9F7F7"/>
<path d="M163.075 56.4932L154.313 63.5929L159.827 209.024L164.736 208.948L169.684 208.91L171.949 63.4418L163.075 56.4932Z" fill="#F9F7F7"/>
<path d="M198.309 56.1907L207.184 63.1771L198.082 208.684L186.413 208.797L189.548 63.3282L198.309 56.1907Z" fill="#F9F7F7"/>
<g clip-path="url(#clip0_1435_5832)">
<path d="M260.312 30.8018H251.72V105.656H260.312V30.8018Z" fill="#FFCA88"/>
<path d="M281.234 207.597H230.798L218.079 105.559H293.953L281.234 207.597Z" fill="#FF514F"/>
<path d="M294.632 100.025H217.4C215.312 100.025 213.613 101.724 213.613 103.812V107.355C213.613 109.443 215.312 111.142 217.4 111.142H294.632C296.72 111.142 298.419 109.443 298.419 107.355V103.812C298.37 101.724 296.671 100.025 294.632 100.025Z" fill="#FFF6EB"/>
<path d="M287.642 94.6846H224.341C222.254 94.6846 220.555 96.3836 220.555 98.471V104.393C220.555 106.481 222.254 108.18 224.341 108.18H287.642C289.729 108.18 291.428 106.481 291.428 104.393V98.471C291.428 96.335 289.729 94.6846 287.642 94.6846Z" fill="#FFF6EB"/>
<path d="M280.603 204.441H231.38C230.069 204.441 229.001 205.509 229.001 206.82C229.001 208.131 230.069 209.199 231.38 209.199H280.603C281.913 209.199 282.981 208.131 282.981 206.82C282.981 205.509 281.913 204.441 280.603 204.441Z" fill="white"/>
</g>
<path d="M130.711 106.946C130.711 105.662 129.654 104.604 128.256 104.227C128.559 103.736 128.785 103.169 128.747 102.603C128.747 101.243 127.766 100.073 126.33 99.5439C126.746 98.9775 127.01 98.2599 127.01 97.5424C126.972 95.4276 124.858 93.7282 122.252 93.766C121.497 93.766 120.779 93.917 120.137 94.1814C120.062 93.0862 119.042 92.2176 117.758 92.0288C118.022 91.4623 118.173 90.8959 118.173 90.2539C118.136 87.6104 115.492 85.4955 112.282 85.5333C111.262 85.5333 110.318 85.7599 109.488 86.1375C109.185 85.0801 108.015 84.2871 106.655 84.2871C106.391 84.2871 106.126 84.3249 105.862 84.4004C105.975 84.0605 106.051 83.7206 106.013 83.3807C105.975 81.2659 103.861 79.5665 101.255 79.6043C100.424 79.6043 99.6688 79.7931 99.0268 80.0952C99.1401 79.6798 99.1778 79.3022 99.1778 78.8868C99.1401 75.6013 95.8546 72.9578 91.8138 72.9955C87.773 73.0333 84.563 75.7146 84.6007 79.0001C84.6007 79.2644 84.6385 79.5288 84.6763 79.7554C84.6385 79.7554 84.6385 79.7554 84.6007 79.7554C81.3908 79.7931 78.785 81.9457 78.8228 84.5514C78.8228 84.8913 78.8606 85.1934 78.9361 85.4955C78.8983 85.4955 78.8606 85.4955 78.8228 85.4955C76.2548 85.5333 74.1778 87.2327 74.1778 89.3098C73.2714 88.9321 72.2518 88.7433 71.1944 88.7433C67.4935 88.7811 64.5478 91.2357 64.5856 94.2569C64.5856 94.8989 64.7367 95.5409 65.001 96.1074C64.9632 96.1074 64.9632 96.1074 64.9632 96.1074C62.9617 96.1074 61.3756 97.4669 61.4134 99.0907C61.4134 99.1285 61.4134 99.1663 61.4134 99.204C60.6203 98.9019 59.7517 98.7131 58.8076 98.7131C55.5977 98.7509 52.9919 100.903 53.0297 103.509C53.0297 104.076 53.1807 104.642 53.4073 105.133C51.1792 105.473 49.5176 107.059 49.5176 108.947C49.5553 111.062 51.6702 112.761 54.2759 112.724L128.445 111.629C129.729 111.629 130.787 110.722 130.749 109.627C130.749 109.174 130.56 108.758 130.258 108.456C130.56 107.965 130.711 107.474 130.711 106.946Z" fill="#FFF2E6"/>
<path d="M75.5752 92.7085C75.5752 92.7085 75.6885 92.6708 75.8773 92.6708C75.9906 92.6708 76.1039 92.633 76.2172 92.633C76.3683 92.633 76.5193 92.5952 76.6704 92.633C76.8592 92.6708 77.048 92.6708 77.2368 92.7085C77.4634 92.7463 77.6522 92.8218 77.8411 92.8973C78.0299 92.9729 78.2942 93.0106 78.4453 93.1617C78.6341 93.275 78.8229 93.3883 79.0118 93.5393C79.2006 93.6904 79.3516 93.8415 79.5027 93.9925C79.6915 94.1436 79.767 94.3324 79.8803 94.4835C79.9936 94.6723 80.1069 94.8233 80.1447 94.9744C80.1825 95.1632 80.2202 95.3143 80.258 95.4653C80.2958 95.6164 80.2958 95.7674 80.2958 95.8807C80.2958 95.994 80.258 96.1073 80.258 96.1829C80.2202 96.3717 80.2202 96.4472 80.2202 96.4472C80.2202 96.4472 80.1825 96.3717 80.1069 96.1829C80.0692 96.1073 80.0314 95.994 79.9936 95.9185C79.9559 95.8052 79.9181 95.6919 79.8426 95.5786C79.767 95.4653 79.6915 95.3143 79.616 95.201C79.5405 95.0499 79.3894 94.9366 79.3139 94.7856C79.2006 94.6345 79.0873 94.5212 78.9362 94.4079C78.7852 94.2946 78.6719 94.1436 78.5208 94.0303C78.3698 93.917 78.2187 93.8037 78.0299 93.6904C77.8788 93.5771 77.69 93.5016 77.5389 93.426C77.3879 93.3505 77.1991 93.2372 77.048 93.1995C76.897 93.1617 76.7459 93.0862 76.5948 93.0106C76.4438 92.9351 76.2927 92.9351 76.1794 92.8973C76.0284 92.8596 75.9151 92.8218 75.8395 92.8218C75.6885 92.7463 75.5752 92.7085 75.5752 92.7085Z" fill="#EFD4B9"/>
<path d="M90.2285 93.0866C90.2285 93.0866 90.2285 92.9733 90.2663 92.8223C90.2663 92.7467 90.304 92.6334 90.304 92.5202C90.3418 92.4069 90.3418 92.2558 90.4173 92.1425C90.4929 91.9915 90.5684 91.8404 90.6439 91.6893C90.7195 91.5005 90.8327 91.3872 90.9838 91.1984C91.1349 91.0473 91.2482 90.8585 91.437 90.7452C91.6258 90.6319 91.8146 90.4809 92.0034 90.3298C92.1923 90.2165 92.4189 90.141 92.6454 90.0277C92.8343 89.9144 93.0986 89.8766 93.2874 89.8389C93.514 89.8011 93.7028 89.7256 93.9294 89.7256C94.1183 89.7256 94.3448 89.7256 94.4959 89.7256C94.6847 89.7256 94.8358 89.7633 94.9491 89.8011C95.1001 89.8389 95.2134 89.8766 95.289 89.9144C95.4778 89.9899 95.5911 90.0277 95.5911 90.0277C95.5911 90.0277 95.4778 90.0277 95.289 90.0655C95.1757 90.0655 95.0624 90.0655 94.9491 90.1032C94.8358 90.1032 94.6847 90.1032 94.5337 90.1788C94.3826 90.2165 94.2315 90.2543 94.0427 90.2921C93.8539 90.3298 93.7028 90.4053 93.514 90.4431C93.3252 90.4809 93.1364 90.5564 92.9853 90.6697C92.7965 90.7452 92.6454 90.8208 92.4566 90.934C92.3056 91.0473 92.1167 91.1606 91.9657 91.2362C91.8146 91.3495 91.7013 91.4627 91.5503 91.576C91.437 91.6893 91.2482 91.8026 91.1726 91.9159C91.0593 92.0292 90.9838 92.1425 90.8705 92.2558C90.7572 92.3691 90.6817 92.4824 90.6439 92.5957C90.5684 92.709 90.5306 92.7845 90.4551 92.86C90.2663 93.0111 90.2285 93.0866 90.2285 93.0866Z" fill="#EFD4B9"/>
<path d="M63.3018 103.698C63.3018 103.698 63.3395 103.585 63.4151 103.434C63.4528 103.358 63.4906 103.245 63.5283 103.132C63.5661 103.018 63.6416 102.905 63.7549 102.792C63.8682 102.679 63.9815 102.527 64.0948 102.376C64.2081 102.225 64.3969 102.112 64.548 101.999C64.7368 101.885 64.8879 101.734 65.1145 101.659C65.341 101.583 65.5299 101.47 65.7564 101.395C65.983 101.319 66.2096 101.281 66.4362 101.243C66.6628 101.168 66.8894 101.206 67.116 101.206C67.3426 101.206 67.5691 101.206 67.758 101.243C67.9468 101.281 68.1356 101.319 68.3244 101.395C68.5133 101.432 68.6265 101.508 68.7398 101.583C68.8531 101.659 68.9664 101.697 69.042 101.772C69.193 101.885 69.3063 101.923 69.3063 101.923C69.3063 101.923 69.193 101.923 69.0042 101.885C68.8909 101.885 68.7776 101.848 68.6643 101.848C68.551 101.81 68.4 101.81 68.2111 101.81C68.0601 101.81 67.8713 101.81 67.7202 101.81C67.5314 101.81 67.3426 101.848 67.1537 101.848C66.9649 101.848 66.7761 101.885 66.5873 101.923C66.3984 101.961 66.2096 101.999 66.0208 102.074C65.832 102.15 65.6432 102.225 65.4543 102.263C65.2655 102.339 65.1145 102.414 64.9256 102.527C64.7746 102.603 64.5857 102.679 64.4725 102.792C64.3592 102.905 64.2081 102.981 64.0948 103.056C63.9438 103.132 63.8682 103.245 63.7549 103.321C63.6416 103.396 63.5661 103.472 63.4906 103.547C63.4151 103.623 63.3018 103.698 63.3018 103.698Z" fill="#EFD4B9"/>
<path d="M88.9814 80.6239C88.9814 80.6239 89.057 80.5484 89.208 80.4729C89.2836 80.4351 89.3591 80.3596 89.4724 80.3218C89.5857 80.2463 89.6612 80.1708 89.8123 80.133C89.9633 80.0952 90.1144 80.0197 90.3032 79.9819C90.492 79.9064 90.6808 79.9064 90.8697 79.8687C91.0585 79.8687 91.2851 79.7931 91.4739 79.8309C91.6627 79.8309 91.8893 79.8687 92.1159 79.8687C92.3047 79.9064 92.5313 79.9819 92.7201 80.0197C92.9089 80.0575 93.0978 80.1708 93.2488 80.2463C93.3999 80.3596 93.5887 80.4351 93.702 80.5484C93.8153 80.6617 93.9286 80.775 94.0419 80.8883C94.1552 80.9638 94.2307 81.0771 94.2685 81.1904C94.344 81.3037 94.3818 81.3792 94.4195 81.4548C94.4951 81.6058 94.5328 81.6813 94.5328 81.6813C94.5328 81.6813 94.4573 81.6436 94.3062 81.5303C94.2307 81.4925 94.1552 81.417 94.0796 81.3415C94.0041 81.2659 93.8908 81.1904 93.7775 81.1526C93.6642 81.0771 93.5132 81.0016 93.3999 80.9261C93.2866 80.8505 93.0978 80.8128 92.9467 80.7372C92.7957 80.6617 92.6446 80.6239 92.4558 80.5862C92.267 80.5484 92.1159 80.4729 91.9271 80.4729C91.7383 80.4351 91.5872 80.4351 91.3984 80.3974C91.2095 80.3596 91.0585 80.3974 90.8697 80.3974C90.7186 80.3974 90.5298 80.3974 90.3787 80.3974C90.2277 80.4351 90.0766 80.4351 89.9256 80.4351C89.7745 80.4351 89.6612 80.4729 89.5479 80.5106C89.4346 80.5484 89.3213 80.5484 89.2458 80.5862C89.057 80.6239 88.9814 80.6239 88.9814 80.6239Z" fill="#EFD4B9"/>
<path d="M86.4512 103.094C86.4512 103.094 86.5267 103.018 86.6778 102.943C86.7533 102.905 86.8288 102.83 86.9421 102.792C87.0554 102.716 87.1309 102.641 87.282 102.603C87.433 102.565 87.5841 102.49 87.7729 102.452C87.9617 102.376 88.1506 102.376 88.3394 102.339C88.5282 102.339 88.7548 102.263 88.9436 102.301C89.1324 102.301 89.359 102.339 89.5856 102.339C89.7744 102.376 90.001 102.452 90.1899 102.49C90.3787 102.527 90.5675 102.641 90.7186 102.716C90.8696 102.83 91.0584 102.905 91.1717 103.018C91.285 103.132 91.3983 103.245 91.5116 103.358C91.6249 103.434 91.7004 103.547 91.7382 103.66C91.8137 103.774 91.8515 103.849 91.8893 103.925C91.9648 104.076 92.0025 104.151 92.0025 104.151C92.0025 104.151 91.927 104.114 91.776 104C91.7004 103.962 91.6249 103.887 91.5494 103.811C91.4738 103.736 91.3605 103.66 91.2473 103.623C91.134 103.547 90.9829 103.472 90.8696 103.396C90.7563 103.321 90.5675 103.283 90.4164 103.207C90.2654 103.132 90.1143 103.094 89.9255 103.056C89.7367 103.018 89.5856 102.943 89.3968 102.943C89.208 102.905 89.0569 102.905 88.8681 102.867C88.6793 102.83 88.5282 102.867 88.3394 102.867C88.1883 102.867 87.9995 102.867 87.8485 102.867C87.6974 102.905 87.5463 102.905 87.3953 102.905C87.2442 102.905 87.1309 102.943 87.0176 102.981C86.9043 103.018 86.7911 103.018 86.7155 103.056C86.5645 103.056 86.4512 103.094 86.4512 103.094Z" fill="#EFD4B9"/>
<path d="M102.161 95.3899C102.161 95.3899 102.199 95.3144 102.237 95.1633C102.274 95.0878 102.312 95.0122 102.35 94.8989C102.388 94.7857 102.425 94.7101 102.539 94.5968C102.614 94.4835 102.728 94.3702 102.841 94.2569C102.954 94.1059 103.105 94.0304 103.256 93.9171C103.407 93.8415 103.558 93.6905 103.747 93.6149C103.936 93.5394 104.125 93.4639 104.314 93.3884C104.503 93.3128 104.729 93.3128 104.918 93.2751C105.107 93.2373 105.333 93.2373 105.522 93.2373C105.711 93.2373 105.9 93.2373 106.089 93.2751C106.277 93.3128 106.429 93.3506 106.58 93.3884C106.731 93.4261 106.844 93.4639 106.957 93.5394C107.071 93.5772 107.146 93.6527 107.222 93.6905C107.373 93.766 107.448 93.8415 107.448 93.8415C107.448 93.8415 107.335 93.8415 107.184 93.8038C107.108 93.8038 106.995 93.766 106.882 93.766C106.768 93.7282 106.655 93.7282 106.504 93.7282C106.353 93.7282 106.202 93.7282 106.051 93.7282C105.9 93.7282 105.711 93.766 105.56 93.766C105.409 93.766 105.22 93.8038 105.069 93.8415C104.88 93.8793 104.729 93.9171 104.54 93.9548C104.389 94.0304 104.2 94.0681 104.049 94.1437C103.898 94.1814 103.747 94.2947 103.596 94.3702C103.445 94.4458 103.294 94.5213 103.181 94.5968C103.067 94.6724 102.954 94.7479 102.841 94.8234C102.728 94.8989 102.652 94.9745 102.539 95.05C102.463 95.1255 102.388 95.2011 102.312 95.2388C102.237 95.3521 102.161 95.3899 102.161 95.3899Z" fill="#EFD4B9"/>
<path d="M115.228 100.186C115.228 100.186 115.341 100.148 115.53 100.148C115.643 100.148 115.756 100.111 115.87 100.111C116.021 100.111 116.172 100.073 116.323 100.111C116.512 100.148 116.7 100.148 116.889 100.186C117.116 100.224 117.305 100.299 117.493 100.375C117.682 100.45 117.947 100.488 118.098 100.639C118.286 100.753 118.475 100.866 118.664 101.017C118.853 101.168 119.004 101.319 119.155 101.47C119.344 101.621 119.419 101.81 119.533 101.961C119.646 102.15 119.759 102.301 119.797 102.452C119.835 102.641 119.873 102.792 119.91 102.943C119.948 103.094 119.948 103.245 119.948 103.358C119.948 103.472 119.91 103.585 119.91 103.66C119.873 103.849 119.873 103.925 119.873 103.925C119.873 103.925 119.835 103.849 119.759 103.66C119.722 103.585 119.684 103.472 119.646 103.396C119.608 103.283 119.57 103.169 119.495 103.056C119.419 102.943 119.344 102.792 119.268 102.679C119.193 102.527 119.042 102.414 118.966 102.263C118.853 102.112 118.74 101.999 118.589 101.885C118.438 101.772 118.324 101.621 118.173 101.508C118.022 101.395 117.871 101.281 117.682 101.168C117.531 101.055 117.342 100.979 117.191 100.904C117.04 100.828 116.851 100.715 116.7 100.677C116.549 100.639 116.398 100.564 116.247 100.488C116.096 100.413 115.945 100.413 115.832 100.375C115.681 100.337 115.567 100.299 115.492 100.299C115.303 100.224 115.228 100.186 115.228 100.186Z" fill="#EFD4B9"/>
<path d="M125.952 106.757L120.061 110.873L114.094 106.87L108.203 110.986L102.236 106.983L96.3449 111.062L90.3404 107.059L84.4491 111.175L78.4823 107.172L72.5911 111.289L66.6243 107.248L60.733 111.364L54.7663 107.361L48.875 111.477L49.0638 113.705L59.5623 209.363L123.573 208.834L131.957 113.063V110.798L125.952 106.757Z" fill="#BF343F"/>
<path d="M66.6237 106.568L60.7324 111.364L69.0406 209.288L76.8956 209.212L72.5905 111.289L66.6237 106.568Z" fill="#F9F7F7"/>
<path d="M90.3405 106.379L84.4492 111.175L88.1879 209.136L91.4734 209.098L94.7967 209.06L96.345 111.062L90.3405 106.379Z" fill="#F9F7F7"/>
<path d="M114.094 106.19L120.061 110.873L113.943 208.91L106.088 208.985L108.203 110.987L114.094 106.19Z" fill="#F9F7F7"/>
<path d="M177.425 158.514L174.669 209.08L265.133 214.011L267.889 163.445L177.425 158.514Z" fill="#022340"/>
<path d="M178.072 146.102L177.395 158.533L267.858 163.464L268.536 151.032L178.072 146.102Z" fill="#095289"/>
<mask id="mask0_1435_5832" style="mask-type:luminance" maskUnits="userSpaceOnUse" x="177" y="146" width="92" height="18">
<path d="M178.072 146.102L177.395 158.533L267.858 163.464L268.536 151.032L178.072 146.102Z" fill="white"/>
</mask>
<g mask="url(#mask0_1435_5832)">
<path d="M222.348 139.727L202.785 167.053L208.702 171.288L228.264 143.963L222.348 139.727Z" fill="white"/>
<path d="M239.861 140.701L220.299 168.026L226.215 172.262L245.778 144.936L239.861 140.701Z" fill="white"/>
<path d="M257.338 141.644L237.775 168.97L243.692 173.205L263.255 145.88L257.338 141.644Z" fill="white"/>
<path d="M274.852 142.617L255.289 169.942L261.206 174.178L280.768 146.852L274.852 142.617Z" fill="white"/>
</g>
<path d="M265.328 121.865L176.567 140.039L179.065 152.236L267.825 134.062L265.328 121.865Z" fill="#095289"/>
<mask id="mask1_1435_5832" style="mask-type:luminance" maskUnits="userSpaceOnUse" x="176" y="121" width="92" height="32">
<path d="M265.328 121.863L176.567 140.037L179.065 152.234L267.825 134.06L265.328 121.863Z" fill="white"/>
</mask>
<g mask="url(#mask1_1435_5832)">
<path d="M205.627 122.789L200.397 127.849L223.764 152.002L228.994 146.942L205.627 122.789Z" fill="white"/>
<path d="M222.813 119.243L217.583 124.303L240.95 148.456L246.18 143.397L222.813 119.243Z" fill="white"/>
<path d="M239.969 115.731L234.739 120.79L258.106 144.943L263.336 139.884L239.969 115.731Z" fill="white"/>
<path d="M257.17 112.237L251.94 117.297L275.311 141.45L280.54 136.39L257.17 112.237Z" fill="white"/>
</g>
<path d="M197.55 148.225C197.382 151.59 194.48 154.198 191.073 154.03C187.708 153.862 185.1 150.959 185.268 147.552C185.437 144.187 188.339 141.58 191.746 141.748C195.111 141.958 197.719 144.86 197.55 148.225Z" fill="#4692C1"/>
<path d="M192.629 144.229C192.587 144.776 192.125 145.197 191.578 145.197C191.031 145.155 190.61 144.692 190.61 144.145C190.652 143.598 191.115 143.178 191.662 143.178C192.209 143.178 192.629 143.682 192.629 144.229Z" fill="#001E3F"/>
<path d="M192.208 151.675C192.166 152.221 191.704 152.642 191.157 152.642C190.61 152.6 190.189 152.137 190.189 151.59C190.232 151.044 190.694 150.623 191.241 150.623C191.83 150.665 192.25 151.128 192.208 151.675Z" fill="#001E3F"/>
<path d="M195.069 149.109C194.522 149.067 194.102 148.604 194.102 148.057C194.144 147.51 194.606 147.09 195.153 147.09C195.7 147.132 196.121 147.595 196.121 148.141C196.121 148.73 195.658 149.151 195.069 149.109Z" fill="#001E3F"/>
<path d="M187.624 148.688C187.077 148.646 186.656 148.183 186.656 147.636C186.698 147.09 187.161 146.669 187.708 146.669C188.255 146.711 188.675 147.174 188.675 147.72C188.633 148.309 188.17 148.73 187.624 148.688Z" fill="#001E3F"/>
<path d="M262.702 168.707L182.618 164.375L182.576 164.964L208.696 166.394L207.77 183.303L181.65 181.872L181.608 182.461L261.693 186.836L261.735 186.247L237.508 184.943L238.433 168.034L262.66 169.338L262.702 168.707ZM236.961 184.859L208.359 183.303L209.285 166.394L237.886 167.95L236.961 184.859Z" fill="#4692C1"/>
<path d="M182.462 167.024L182.43 167.612L186.797 167.85L186.83 167.262L182.462 167.024Z" fill="#4692C1"/>
<path d="M211.333 168.593L211.301 169.181L215.669 169.419L215.701 168.831L211.333 168.593Z" fill="#4692C1"/>
<path d="M240.523 170.175L240.491 170.763L244.859 171.001L244.891 170.413L240.523 170.175Z" fill="#4692C1"/>
<path d="M181.045 192.562L181.013 193.15L261.103 197.515L261.135 196.927L181.045 192.562Z" fill="#4692C1"/>
<path d="M180.456 203.637L180.424 204.225L260.514 208.59L260.546 208.002L180.456 203.637Z" fill="#4692C1"/>
<path d="M181.515 184.392L181.483 184.98L190.303 185.461L190.335 184.873L181.515 184.392Z" fill="#4692C1"/>
<path d="M180.933 195.007L180.901 195.595L189.721 196.075L189.753 195.487L180.933 195.007Z" fill="#4692C1"/>
<path d="M104.804 177.452C104.804 177.452 129.804 159.891 133.203 159.854C137.206 159.816 139.66 169.484 138.867 169.975C138.187 170.428 135.695 162.384 133.505 163.441C131.994 164.159 123.308 175.488 123.308 175.488L104.804 177.452Z" fill="#F7EDEE"/>
<path d="M187.81 176.81C187.81 176.81 162.508 159.627 159.109 159.665C155.106 159.703 152.803 169.408 153.596 169.899C154.313 170.315 156.655 162.271 158.845 163.253C160.356 163.932 169.23 175.149 169.23 175.149L187.81 176.81Z" fill="#F7EDEE"/>
<path d="M187.848 176.772C184.033 173.789 146.307 174.506 146.307 174.506C146.307 174.506 108.58 174.393 104.804 177.452C101.027 180.473 95.6269 202.867 103.255 207.626C110.317 212.006 133.656 211.78 136.186 204.982C138.716 198.185 141.095 192.369 146.458 192.331C151.858 192.293 154.275 198.071 156.956 204.831C159.6 211.591 182.938 211.44 189.925 206.946C197.44 202.074 191.662 179.756 187.848 176.772ZM119.607 206.191C110.544 206.266 104.992 201.432 104.917 193.124C104.841 184.816 110.317 179.907 119.381 179.831C128.444 179.756 133.996 184.589 134.071 192.898C134.147 201.168 128.671 206.115 119.607 206.191ZM173.459 205.738C164.396 205.813 158.845 200.979 158.769 192.671C158.694 184.363 164.169 179.453 173.233 179.378C182.296 179.302 187.848 184.136 187.923 192.444C187.999 200.753 182.523 205.662 173.459 205.738Z" fill="white"/>
<path d="M119.607 206.191C110.544 206.266 104.992 201.432 104.917 193.124C104.841 184.816 110.317 179.906 119.381 179.831C128.444 179.755 133.995 184.589 134.071 192.897C134.146 201.168 128.671 206.115 119.607 206.191Z" fill="#3578AA"/>
<path d="M173.46 205.737C164.396 205.813 158.845 200.979 158.769 192.671C158.694 184.363 164.17 179.453 173.233 179.378C182.297 179.302 187.848 184.136 187.923 192.444C187.999 200.753 182.523 205.662 173.46 205.737Z" fill="#DD313D"/>
<mask id="mask2_1435_5832" style="mask-type:luminance" maskUnits="userSpaceOnUse" x="104" y="179" width="31" height="28">
<path d="M119.607 206.191C110.544 206.266 104.992 201.432 104.917 193.124C104.841 184.816 110.317 179.906 119.381 179.831C128.444 179.755 133.995 184.589 134.071 192.897C134.146 201.168 128.671 206.115 119.607 206.191Z" fill="white"/>
</mask>
<g mask="url(#mask2_1435_5832)">
<g opacity="0.1">
<path d="M155.572 142.418L82.5449 216.622L84.8058 218.847L157.833 144.643L155.572 142.418Z" fill="white"/>
<path d="M152.007 156.194L78.9795 230.397L80.0561 231.457L153.083 157.253L152.007 156.194Z" fill="white"/>
<path d="M157.016 158.235L83.9883 232.438L88.7791 237.153L161.806 162.949L157.016 158.235Z" fill="white"/>
</g>
</g>
<mask id="mask3_1435_5832" style="mask-type:luminance" maskUnits="userSpaceOnUse" x="158" y="179" width="30" height="27">
<path d="M173.46 205.737C164.396 205.813 158.845 200.979 158.769 192.671C158.694 184.363 164.17 179.453 173.233 179.378C182.297 179.302 187.848 184.136 187.923 192.444C187.999 200.753 182.523 205.662 173.46 205.737Z" fill="white"/>
</mask>
<g mask="url(#mask3_1435_5832)">
<g opacity="0.1">
<path d="M211.92 140.642L138.893 214.845L141.153 217.07L214.181 142.867L211.92 140.642Z" fill="white"/>
<path d="M208.327 154.392L135.3 228.596L136.376 229.655L209.404 155.451L208.327 154.392Z" fill="white"/>
<path d="M213.363 156.457L140.336 230.661L145.127 235.376L218.154 161.172L213.363 156.457Z" fill="white"/>
</g>
</g>
<defs>
<clipPath id="clip0_1435_5832">
<rect width="84.757" height="178.397" fill="white" transform="translate(213.613 30.8018)"/>
</clipPath>
</defs>
</svg>
