<svg width="40" height="40" viewBox="0 0 40 40" fill="none" xmlns="http://www.w3.org/2000/svg">
<path d="M34.4623 17.1862C34.4623 10.8184 28.0784 5.6377 20.2305 5.6377C12.3827 5.6377 6 10.8184 6 17.1862C6 22.8947 11.0626 27.6767 17.9016 28.5798C18.3654 28.6794 18.9954 28.8849 19.1553 29.281C19.2992 29.6402 19.2488 30.2037 19.2008 30.5679C19.2008 30.5679 19.0335 31.5718 18.9978 31.7858C18.9363 32.1451 18.7124 33.1933 20.2305 32.5535C21.7499 31.9138 28.4266 27.7272 31.4124 24.291C33.4744 22.0298 34.4635 19.7341 34.4635 17.185" fill="white"/>
<path d="M17.1671 14.9844H16.1694C16.0168 14.9844 15.8926 15.1086 15.8926 15.2612V21.4617C15.8926 21.6143 16.0168 21.7385 16.1694 21.7385H17.1671C17.3197 21.7385 17.444 21.6143 17.444 21.4617V15.2612C17.444 15.1086 17.3197 14.9844 17.1671 14.9844Z" fill="#B72706"/>
<path d="M24.0386 14.9844H23.0409C22.8871 14.9844 22.7641 15.1086 22.7641 15.2612V18.9446L19.9221 15.1074C19.916 15.0976 19.9086 15.0877 19.9 15.0791H19.8988C19.8938 15.0717 19.8877 15.0656 19.8815 15.0607C19.8803 15.0594 19.8778 15.057 19.8766 15.0557C19.8717 15.052 19.8668 15.0471 19.8618 15.0434C19.8594 15.041 19.8569 15.0397 19.8544 15.0373C19.8495 15.0336 19.8446 15.0311 19.8397 15.0274C19.8372 15.0262 19.8348 15.0237 19.8311 15.0225C19.8262 15.0201 19.8213 15.0164 19.8163 15.0139C19.8139 15.0127 19.8102 15.0114 19.8077 15.0102C19.8028 15.0077 19.7979 15.0053 19.7917 15.0041C19.788 15.0041 19.7856 15.0016 19.7831 15.0004C19.7782 14.9979 19.772 14.9967 19.7671 14.9954C19.7634 14.9954 19.761 14.9942 19.7573 14.993C19.7524 14.9918 19.7462 14.9905 19.7413 14.9893C19.7376 14.9893 19.7339 14.9893 19.729 14.9881C19.724 14.9881 19.7191 14.9868 19.7142 14.9868C19.7093 14.9868 19.7044 14.9868 19.6994 14.9868C19.6957 14.9868 19.6933 14.9868 19.6896 14.9868H18.6918C18.5393 14.9868 18.415 15.1111 18.415 15.2636V21.4642C18.415 21.6168 18.5393 21.741 18.6918 21.741H19.6896C19.8434 21.741 19.9677 21.6168 19.9677 21.4642V17.7808L22.8133 21.6229C22.8329 21.65 22.8575 21.6733 22.8834 21.6918C22.8834 21.6918 22.8858 21.693 22.8858 21.6943C22.892 21.6979 22.8969 21.7016 22.9031 21.7041C22.9055 21.7053 22.908 21.7066 22.9104 21.7078C22.9141 21.7103 22.9191 21.7127 22.924 21.7139C22.9289 21.7152 22.9326 21.7176 22.9375 21.7201C22.94 21.7201 22.9424 21.7226 22.9461 21.7238C22.9523 21.7262 22.9584 21.7275 22.9646 21.7299C22.9658 21.7299 22.967 21.7299 22.9683 21.7299C22.9904 21.7361 23.015 21.7398 23.0396 21.7398H24.0374C24.1911 21.7398 24.3142 21.6155 24.3142 21.463V15.2624C24.3142 15.1099 24.1899 14.9856 24.0374 14.9856" fill="#B72706"/>
<path d="M14.7612 20.1859H12.0484V15.2612C12.0484 15.1086 11.9242 14.9844 11.7716 14.9844H10.7739C10.6213 14.9844 10.4971 15.1086 10.4971 15.2612V21.4617C10.4971 21.5368 10.5266 21.6044 10.5746 21.6537C10.5746 21.6549 10.577 21.6561 10.5783 21.6574C10.5795 21.6586 10.5807 21.6598 10.582 21.661C10.6324 21.709 10.6988 21.7385 10.7739 21.7385H14.7624C14.915 21.7385 15.0392 21.6143 15.0392 21.4617V20.464C15.0392 20.3114 14.915 20.1872 14.7624 20.1872" fill="#B72706"/>
<path d="M29.5515 16.5367C29.704 16.5367 29.8283 16.4125 29.8283 16.2599V15.2622C29.8283 15.1084 29.704 14.9854 29.5515 14.9854H25.5629C25.4879 14.9854 25.4202 15.0149 25.371 15.0641C25.371 15.0641 25.3686 15.0665 25.3673 15.0665C25.3661 15.0678 25.3636 15.0702 25.3624 15.0715C25.3144 15.1207 25.2861 15.1883 25.2861 15.2622V21.4627C25.2861 21.5378 25.3156 21.6054 25.3636 21.6546C25.3636 21.6559 25.3661 21.6571 25.3673 21.6583C25.3673 21.6583 25.3698 21.6608 25.371 21.662C25.4202 21.71 25.4879 21.7395 25.5629 21.7395H29.5515C29.704 21.7395 29.8283 21.6153 29.8283 21.4627V20.465C29.8283 20.3124 29.704 20.1882 29.5515 20.1882H26.8387V19.14H29.5515C29.704 19.14 29.8283 19.0157 29.8283 18.8632V17.8654C29.8283 17.7116 29.704 17.5886 29.5515 17.5886H26.8387V16.5404H29.5515V16.5367Z" fill="#B72706"/>
</svg>
