<svg width="2727" height="180" viewBox="0 0 2727 180" fill="none" xmlns="http://www.w3.org/2000/svg">
<path d="M2711.97 134.959C2707.72 134.959 2704.2 133.674 2701.4 131.103C2698.72 128.421 2697.38 125.124 2697.38 121.212C2697.38 117.3 2698.72 114.059 2701.4 111.488C2704.2 108.806 2707.72 107.464 2711.97 107.464C2716.1 107.464 2719.51 108.806 2722.19 111.488C2724.88 114.059 2726.22 117.3 2726.22 121.212C2726.22 125.124 2724.88 128.421 2722.19 131.103C2719.51 133.674 2716.1 134.959 2711.97 134.959Z" fill="#FFF6EB"/>
<path d="M2657.26 55.3251C2660.28 50.4074 2664.19 46.5514 2669 43.7572C2673.92 40.963 2679.5 39.5659 2685.76 39.5659V64.2106H2679.56C2672.18 64.2106 2666.59 65.943 2662.79 69.4078C2659.11 72.8726 2657.26 78.908 2657.26 87.5141V133.786H2633.79V40.9071H2657.26V55.3251Z" fill="#FFF6EB"/>
<path d="M2616.66 85.3343C2616.66 88.6874 2616.44 91.7051 2615.99 94.3875H2548.09C2548.65 101.094 2551 106.347 2555.13 110.147C2559.27 113.947 2564.35 115.847 2570.39 115.847C2579.11 115.847 2585.31 112.103 2589 104.614H2614.31C2611.63 113.556 2606.49 120.932 2598.89 126.744C2591.29 132.444 2581.96 135.294 2570.89 135.294C2561.95 135.294 2553.9 133.338 2546.75 129.427C2539.71 125.403 2534.18 119.759 2530.15 112.494C2526.24 105.229 2524.28 96.8464 2524.28 87.3461C2524.28 77.7342 2526.24 69.2957 2530.15 62.0308C2534.06 54.766 2539.54 49.1776 2546.58 45.2657C2553.62 41.3539 2561.73 39.3979 2570.89 39.3979C2579.72 39.3979 2587.6 41.298 2594.53 45.0981C2601.57 48.8982 2606.99 54.3189 2610.79 61.3602C2614.7 68.2898 2616.66 76.2812 2616.66 85.3343ZM2592.35 78.6283C2592.24 72.5929 2590.06 67.7869 2585.81 64.2103C2581.56 60.522 2576.37 58.6778 2570.22 58.6778C2564.41 58.6778 2559.49 60.4661 2555.47 64.0427C2551.55 67.5074 2549.15 72.3693 2548.26 78.6283H2592.35Z" fill="#FFF6EB"/>
<path d="M2471.79 39.5655C2478.83 39.5655 2485.09 41.1303 2490.56 44.2597C2496.04 47.2775 2500.29 51.804 2503.31 57.8395C2506.43 63.7632 2508 70.9163 2508 79.2988V133.785H2484.53V82.4842C2484.53 75.1075 2482.68 69.4633 2479 65.5514C2475.31 61.5278 2470.28 59.516 2463.91 59.516C2457.42 59.516 2452.28 61.5278 2448.48 65.5514C2444.79 69.4633 2442.95 75.1075 2442.95 82.4842V133.785H2419.48V9.72363H2442.95V52.4746C2445.97 48.451 2449.99 45.3215 2455.02 43.0862C2460.05 40.7391 2465.64 39.5655 2471.79 39.5655Z" fill="#FFF6EB"/>
<path d="M2381.81 60.1865V105.117C2381.81 108.247 2382.54 110.538 2383.99 111.991C2385.55 113.332 2388.12 114.003 2391.7 114.003H2402.6V133.785H2387.84C2368.06 133.785 2358.17 124.173 2358.17 104.949V60.1865H2347.11V40.9067H2358.17V17.9385H2381.81V40.9067H2402.6V60.1865H2381.81Z" fill="#FFF6EB"/>
<path d="M2337.35 85.3343C2337.35 88.6874 2337.13 91.7051 2336.68 94.3875H2268.78C2269.34 101.094 2271.69 106.347 2275.82 110.147C2279.96 113.947 2285.04 115.847 2291.08 115.847C2299.8 115.847 2306 112.103 2309.69 104.614H2335C2332.32 113.556 2327.18 120.932 2319.58 126.744C2311.98 132.444 2302.65 135.294 2291.58 135.294C2282.64 135.294 2274.59 133.338 2267.44 129.427C2260.4 125.403 2254.87 119.759 2250.84 112.494C2246.93 105.229 2244.97 96.8464 2244.97 87.3461C2244.97 77.7342 2246.93 69.2957 2250.84 62.0308C2254.75 54.766 2260.23 49.1776 2267.27 45.2657C2274.31 41.3539 2282.42 39.3979 2291.58 39.3979C2300.41 39.3979 2308.29 41.298 2315.22 45.0981C2322.26 48.8982 2327.68 54.3189 2331.48 61.3602C2335.39 68.2898 2337.35 76.2812 2337.35 85.3343ZM2313.04 78.6283C2312.93 72.5929 2310.75 67.7869 2306.5 64.2103C2302.26 60.522 2297.06 58.6778 2290.91 58.6778C2285.1 58.6778 2280.18 60.4661 2276.16 64.0427C2272.25 67.5074 2269.84 72.3693 2268.95 78.6283H2313.04Z" fill="#FFF6EB"/>
<path d="M2173.77 39.3979C2180.7 39.3979 2186.79 40.795 2192.04 43.5892C2197.29 46.2716 2201.43 49.7923 2204.45 54.1512V40.9068H2228.09V134.456C2228.09 143.062 2226.35 150.718 2222.89 157.424C2219.42 164.242 2214.23 169.607 2207.3 173.519C2200.37 177.542 2191.99 179.554 2182.15 179.554C2168.96 179.554 2158.12 176.481 2149.63 170.333C2141.24 164.186 2136.49 155.804 2135.38 145.186H2158.68C2159.91 149.433 2162.53 152.786 2166.56 155.245C2170.69 157.815 2175.67 159.101 2181.48 159.101C2188.3 159.101 2193.83 157.033 2198.08 152.898C2202.32 148.874 2204.45 142.727 2204.45 134.456V120.038C2201.43 124.397 2197.24 128.029 2191.87 130.935C2186.62 133.841 2180.59 135.294 2173.77 135.294C2165.94 135.294 2158.79 133.283 2152.31 129.259C2145.83 125.235 2140.68 119.591 2136.88 112.326C2133.2 104.95 2131.35 96.5111 2131.35 87.0108C2131.35 77.6224 2133.2 69.2957 2136.88 62.0308C2140.68 54.766 2145.77 49.1776 2152.14 45.2657C2158.62 41.3539 2165.83 39.3979 2173.77 39.3979ZM2204.45 87.3461C2204.45 81.646 2203.33 76.7841 2201.09 72.7605C2198.86 68.6251 2195.84 65.4956 2192.04 63.372C2188.24 61.1367 2184.16 60.019 2179.8 60.019C2175.44 60.019 2171.42 61.0808 2167.73 63.2044C2164.04 65.328 2161.03 68.4575 2158.68 72.5929C2156.44 76.6165 2155.33 81.4225 2155.33 87.0108C2155.33 92.5992 2156.44 97.517 2158.68 101.764C2161.03 105.9 2164.04 109.085 2167.73 111.32C2171.53 113.556 2175.56 114.673 2179.8 114.673C2184.16 114.673 2188.24 113.611 2192.04 111.488C2195.84 109.253 2198.86 106.123 2201.09 102.099C2203.33 97.964 2204.45 93.0463 2204.45 87.3461Z" fill="#FFF6EB"/>
<path d="M2071.72 135.294C2062.78 135.294 2054.73 133.338 2047.58 129.427C2040.42 125.403 2034.78 119.759 2030.64 112.494C2026.62 105.229 2024.61 96.8464 2024.61 87.3461C2024.61 77.8459 2026.68 69.4634 2030.81 62.1985C2035.06 54.9336 2040.82 49.3452 2048.08 45.4334C2055.35 41.4098 2063.45 39.3979 2072.39 39.3979C2081.33 39.3979 2089.43 41.4098 2096.7 45.4334C2103.96 49.3452 2109.66 54.9336 2113.8 62.1985C2118.05 69.4634 2120.17 77.8459 2120.17 87.3461C2120.17 96.8464 2117.99 105.229 2113.63 112.494C2109.38 119.759 2103.57 125.403 2096.2 129.427C2088.93 133.338 2080.77 135.294 2071.72 135.294ZM2071.72 114.841C2075.97 114.841 2079.93 113.835 2083.62 111.823C2087.42 109.7 2090.44 106.57 2092.68 102.435C2094.91 98.2993 2096.03 93.2698 2096.03 87.3461C2096.03 78.5165 2093.68 71.7546 2088.99 67.0604C2084.4 62.2544 2078.76 59.8514 2072.05 59.8514C2065.35 59.8514 2059.7 62.2544 2055.12 67.0604C2050.65 71.7546 2048.42 78.5165 2048.42 87.3461C2048.42 96.1758 2050.6 102.994 2054.95 107.8C2059.42 112.494 2065.01 114.841 2071.72 114.841Z" fill="#FFF6EB"/>
<path d="M1992.81 60.1865V105.117C1992.81 108.247 1993.53 110.538 1994.99 111.991C1996.55 113.332 1999.12 114.003 2002.7 114.003H2013.59V133.785H1998.84C1979.06 133.785 1969.17 124.173 1969.17 104.949V60.1865H1958.1V40.9067H1969.17V17.9385H1992.81V40.9067H2013.59V60.1865H1992.81Z" fill="#FFF6EB"/>
<path d="M1908.4 85.3343C1908.4 88.6874 1908.18 91.7051 1907.73 94.3875H1839.83C1840.39 101.094 1842.74 106.347 1846.87 110.147C1851.01 113.947 1856.09 115.847 1862.13 115.847C1870.85 115.847 1877.05 112.103 1880.74 104.614H1906.05C1903.37 113.556 1898.23 120.932 1890.63 126.744C1883.03 132.444 1873.7 135.294 1862.63 135.294C1853.69 135.294 1845.64 133.338 1838.49 129.427C1831.45 125.403 1825.91 119.759 1821.89 112.494C1817.98 105.229 1816.02 96.8464 1816.02 87.3461C1816.02 77.7342 1817.98 69.2957 1821.89 62.0308C1825.8 54.766 1831.28 49.1776 1838.32 45.2657C1845.36 41.3539 1853.47 39.3979 1862.63 39.3979C1871.46 39.3979 1879.34 41.298 1886.27 45.0981C1893.31 48.8982 1898.73 54.3189 1902.53 61.3602C1906.44 68.2898 1908.4 76.2812 1908.4 85.3343ZM1884.09 78.6283C1883.98 72.5929 1881.8 67.7869 1877.55 64.2103C1873.3 60.522 1868.11 58.6778 1861.96 58.6778C1856.15 58.6778 1851.23 60.4661 1847.21 64.0427C1843.29 67.5074 1840.89 72.3693 1840 78.6283H1884.09Z" fill="#FFF6EB"/>
<path d="M1761.73 39.5659C1773.13 39.5659 1782.29 43.0866 1789.22 50.1279C1796.27 57.0575 1799.79 66.7813 1799.79 79.2992V133.786H1776.32V82.4846C1776.32 75.2197 1774.47 69.6872 1770.78 65.8871C1767.09 61.9753 1762.06 60.0193 1755.69 60.0193C1749.32 60.0193 1744.24 61.9753 1740.44 65.8871C1736.75 69.6872 1734.91 75.2197 1734.91 82.4846V133.786H1711.43V82.4846C1711.43 75.2197 1709.59 69.6872 1705.9 65.8871C1702.21 61.9753 1697.18 60.0193 1690.81 60.0193C1684.33 60.0193 1679.19 61.9753 1675.39 65.8871C1671.7 69.6872 1669.86 75.2197 1669.86 82.4846V133.786H1646.39V40.9071H1669.86V52.1397C1672.87 48.2279 1676.73 45.1543 1681.42 42.9189C1686.23 40.6836 1691.48 39.5659 1697.18 39.5659C1704.45 39.5659 1710.93 41.1307 1716.63 44.2601C1722.33 47.2779 1726.75 51.6368 1729.88 57.3369C1732.89 51.9721 1737.25 47.6691 1742.95 44.4278C1748.76 41.1865 1755.02 39.5659 1761.73 39.5659Z" fill="#FFF6EB"/>
<path d="M1611.63 29.8419C1607.49 29.8419 1604.03 28.5566 1601.23 25.986C1598.55 23.3035 1597.21 20.0064 1597.21 16.0946C1597.21 12.1827 1598.55 8.94144 1601.23 6.37079C1604.03 3.68838 1607.49 2.34717 1611.63 2.34717C1615.76 2.34717 1619.17 3.68838 1621.85 6.37079C1624.65 8.94144 1626.05 12.1827 1626.05 16.0946C1626.05 20.0064 1624.65 23.3035 1621.85 25.986C1619.17 28.5566 1615.76 29.8419 1611.63 29.8419ZM1623.2 40.9069V133.786H1599.72V40.9069H1623.2Z" fill="#FFF6EB"/>
<path d="M1562.05 60.1865V105.117C1562.05 108.247 1562.78 110.538 1564.23 111.991C1565.8 113.332 1568.37 114.003 1571.95 114.003H1582.84V133.785H1568.09C1548.31 133.785 1538.42 124.173 1538.42 104.949V60.1865H1527.35V40.9067H1538.42V17.9385H1562.05V40.9067H1582.84V60.1865H1562.05Z" fill="#FFF6EB"/>
<path d="M1457.11 60.1865V105.117C1457.11 108.247 1457.84 110.538 1459.29 111.991C1460.85 113.332 1463.42 114.003 1467 114.003H1477.9V133.785H1463.14C1443.36 133.785 1433.47 124.173 1433.47 104.949V60.1865H1422.41V40.9067H1433.47V17.9385H1457.11V40.9067H1477.9V60.1865H1457.11Z" fill="#FFF6EB"/>
<path d="M1310.12 87.0108C1310.12 77.6224 1311.97 69.2957 1315.66 62.0308C1319.46 54.766 1324.54 49.1776 1330.91 45.2657C1337.39 41.3539 1344.6 39.3979 1352.54 39.3979C1359.47 39.3979 1365.5 40.795 1370.65 43.5892C1375.9 46.3834 1380.09 49.9041 1383.22 54.1512V40.9068H1406.86V133.785H1383.22V120.206C1380.2 124.565 1376.01 128.197 1370.65 131.103C1365.39 133.897 1359.3 135.294 1352.37 135.294C1344.55 135.294 1337.39 133.283 1330.91 129.259C1324.54 125.235 1319.46 119.591 1315.66 112.326C1311.97 104.95 1310.12 96.5111 1310.12 87.0108ZM1383.22 87.3461C1383.22 81.646 1382.1 76.7841 1379.87 72.7605C1377.63 68.6251 1374.61 65.4956 1370.81 63.372C1367.01 61.1367 1362.93 60.019 1358.57 60.019C1354.22 60.019 1350.19 61.0808 1346.5 63.2044C1342.81 65.328 1339.8 68.4575 1337.45 72.5929C1335.21 76.6165 1334.1 81.4225 1334.1 87.0108C1334.1 92.5992 1335.21 97.517 1337.45 101.764C1339.8 105.9 1342.81 109.085 1346.5 111.32C1350.3 113.556 1354.33 114.673 1358.57 114.673C1362.93 114.673 1367.01 113.611 1370.81 111.488C1374.61 109.253 1377.63 106.123 1379.87 102.099C1382.1 97.964 1383.22 93.0463 1383.22 87.3461Z" fill="#FFF6EB"/>
<path d="M1299.03 85.3343C1299.03 88.6874 1298.8 91.7051 1298.36 94.3875H1230.46C1231.02 101.094 1233.36 106.347 1237.5 110.147C1241.63 113.947 1246.72 115.847 1252.76 115.847C1261.47 115.847 1267.68 112.103 1271.36 104.614H1296.68C1294 113.556 1288.86 120.932 1281.26 126.744C1273.66 132.444 1264.32 135.294 1253.26 135.294C1244.32 135.294 1236.27 133.338 1229.12 129.427C1222.08 125.403 1216.54 119.759 1212.52 112.494C1208.61 105.229 1206.65 96.8464 1206.65 87.3461C1206.65 77.7342 1208.61 69.2957 1212.52 62.0308C1216.43 54.766 1221.91 49.1776 1228.95 45.2657C1235.99 41.3539 1244.09 39.3979 1253.26 39.3979C1262.09 39.3979 1269.97 41.298 1276.9 45.0981C1283.94 48.8982 1289.36 54.3189 1293.16 61.3602C1297.07 68.2898 1299.03 76.2812 1299.03 85.3343ZM1274.72 78.6283C1274.61 72.5929 1272.43 67.7869 1268.18 64.2103C1263.93 60.522 1258.73 58.6778 1252.59 58.6778C1246.78 58.6778 1241.86 60.4661 1237.83 64.0427C1233.92 67.5074 1231.52 72.3693 1230.63 78.6283H1274.72Z" fill="#FFF6EB"/>
<path d="M1168.38 55.3251C1171.4 50.4074 1175.31 46.5514 1180.11 43.7572C1185.03 40.963 1190.62 39.5659 1196.88 39.5659V64.2106H1190.68C1183.3 64.2106 1177.71 65.943 1173.91 69.4078C1170.22 72.8726 1168.38 78.908 1168.38 87.5141V133.786H1144.91V40.9071H1168.38V55.3251Z" fill="#FFF6EB"/>
<path d="M1067.66 39.3979C1074.59 39.3979 1080.68 40.795 1085.94 43.5892C1091.19 46.2716 1095.33 49.7923 1098.34 54.1512V40.9068H1121.98V134.456C1121.98 143.062 1120.25 150.718 1116.79 157.424C1113.32 164.242 1108.12 169.607 1101.19 173.519C1094.26 177.542 1085.88 179.554 1076.05 179.554C1062.86 179.554 1052.02 176.481 1043.52 170.333C1035.14 164.186 1030.39 155.804 1029.27 145.186H1052.58C1053.8 149.433 1056.43 152.786 1060.45 155.245C1064.59 157.815 1069.56 159.101 1075.38 159.101C1082.19 159.101 1087.73 157.033 1091.97 152.898C1096.22 148.874 1098.34 142.727 1098.34 134.456V120.038C1095.33 124.397 1091.13 128.029 1085.77 130.935C1080.52 133.841 1074.48 135.294 1067.66 135.294C1059.84 135.294 1052.69 133.283 1046.2 129.259C1039.72 125.235 1034.58 119.591 1030.78 112.326C1027.09 104.95 1025.25 96.5111 1025.25 87.0108C1025.25 77.6224 1027.09 69.2957 1030.78 62.0308C1034.58 54.766 1039.67 49.1776 1046.04 45.2657C1052.52 41.3539 1059.73 39.3979 1067.66 39.3979ZM1098.34 87.3461C1098.34 81.646 1097.23 76.7841 1094.99 72.7605C1092.76 68.6251 1089.74 65.4956 1085.94 63.372C1082.14 61.1367 1078.06 60.019 1073.7 60.019C1069.34 60.019 1065.32 61.0808 1061.63 63.2044C1057.94 65.328 1054.92 68.4575 1052.58 72.5929C1050.34 76.6165 1049.22 81.4225 1049.22 87.0108C1049.22 92.5992 1050.34 97.517 1052.58 101.764C1054.92 105.9 1057.94 109.085 1061.63 111.32C1065.43 113.556 1069.45 114.673 1073.7 114.673C1078.06 114.673 1082.14 113.611 1085.94 111.488C1089.74 109.253 1092.76 106.123 1094.99 102.099C1097.23 97.964 1098.34 93.0463 1098.34 87.3461Z" fill="#FFF6EB"/>
<path d="M871.677 87.0108C871.677 77.6224 873.521 69.2957 877.209 62.0308C881.009 54.766 886.095 49.1776 892.466 45.2657C898.948 41.3539 906.157 39.3979 914.092 39.3979C921.022 39.3979 927.057 40.795 932.199 43.5892C937.452 46.3834 941.643 49.9041 944.773 54.1512V40.9068H968.411V133.785H944.773V120.206C941.755 124.565 937.564 128.197 932.199 131.103C926.946 133.897 920.854 135.294 913.925 135.294C906.101 135.294 898.948 133.283 892.466 129.259C886.095 125.235 881.009 119.591 877.209 112.326C873.521 104.95 871.677 96.5111 871.677 87.0108ZM944.773 87.3461C944.773 81.646 943.655 76.7841 941.42 72.7605C939.184 68.6251 936.167 65.4956 932.366 63.372C928.566 61.1367 924.487 60.019 920.128 60.019C915.769 60.019 911.745 61.0808 908.057 63.2044C904.369 65.328 901.351 68.4575 899.004 72.5929C896.769 76.6165 895.651 81.4225 895.651 87.0108C895.651 92.5992 896.769 97.517 899.004 101.764C901.351 105.9 904.369 109.085 908.057 111.32C911.857 113.556 915.881 114.673 920.128 114.673C924.487 114.673 928.566 113.611 932.366 111.488C936.167 109.253 939.184 106.123 941.42 102.099C943.655 97.964 944.773 93.0463 944.773 87.3461Z" fill="#FFF6EB"/>
<path d="M820.633 85.3343C820.633 88.6874 820.409 91.7051 819.962 94.3875H752.063C752.622 101.094 754.969 106.347 759.105 110.147C763.24 113.947 768.325 115.847 774.361 115.847C783.079 115.847 789.282 112.103 792.97 104.614H818.285C815.603 113.556 810.462 120.932 802.862 126.744C795.261 132.444 785.929 135.294 774.864 135.294C765.922 135.294 757.875 133.338 750.722 129.427C743.681 125.403 738.148 119.759 734.125 112.494C730.213 105.229 728.257 96.8464 728.257 87.3461C728.257 77.7342 730.213 69.2957 734.125 62.0308C738.036 54.766 743.513 49.1776 750.554 45.2657C757.596 41.3539 765.699 39.3979 774.864 39.3979C783.693 39.3979 791.573 41.298 798.503 45.0981C805.544 48.8982 810.965 54.3189 814.765 61.3602C818.677 68.2898 820.633 76.2812 820.633 85.3343ZM796.323 78.6283C796.211 72.5929 794.032 67.7869 789.785 64.2103C785.538 60.522 780.34 58.6778 774.193 58.6778C768.381 58.6778 763.464 60.4661 759.44 64.0427C755.528 67.5074 753.125 72.3693 752.231 78.6283H796.323Z" fill="#FFF6EB"/>
<path d="M672.658 112.158L696.129 40.9067H721.109L686.741 133.785H658.24L624.039 40.9067H649.187L672.658 112.158Z" fill="#FFF6EB"/>
<path d="M514.272 87.0108C514.272 77.6224 516.117 69.2957 519.805 62.0308C523.605 54.766 528.69 49.1776 535.061 45.2657C541.544 41.3539 548.753 39.3979 556.688 39.3979C563.618 39.3979 569.653 40.795 574.794 43.5892C580.048 46.3834 584.239 49.9041 587.368 54.1512V40.9068H611.007V133.785H587.368V120.206C584.351 124.565 580.159 128.197 574.794 131.103C569.541 133.897 563.45 135.294 556.521 135.294C548.697 135.294 541.544 133.283 535.061 129.259C528.69 125.235 523.605 119.591 519.805 112.326C516.117 104.95 514.272 96.5111 514.272 87.0108ZM587.368 87.3461C587.368 81.646 586.251 76.7841 584.015 72.7605C581.78 68.6251 578.762 65.4956 574.962 63.372C571.162 61.1367 567.083 60.019 562.724 60.019C558.365 60.019 554.341 61.0808 550.653 63.2044C546.964 65.328 543.947 68.4575 541.6 72.5929C539.364 76.6165 538.247 81.4225 538.247 87.0108C538.247 92.5992 539.364 97.517 541.6 101.764C543.947 105.9 546.964 109.085 550.653 111.32C554.453 113.556 558.476 114.673 562.724 114.673C567.083 114.673 571.162 113.611 574.962 111.488C578.762 109.253 581.78 106.123 584.015 102.099C586.251 97.964 587.368 93.0463 587.368 87.3461Z" fill="#FFF6EB"/>
<path d="M461.775 39.5655C468.816 39.5655 475.075 41.1303 480.552 44.2597C486.028 47.2775 490.276 51.804 493.293 57.8395C496.423 63.7632 497.988 70.9163 497.988 79.2988V133.785H474.516V82.4842C474.516 75.1075 472.672 69.4633 468.984 65.5514C465.296 61.5278 460.266 59.516 453.895 59.516C447.413 59.516 442.271 61.5278 438.471 65.5514C434.783 69.4633 432.939 75.1075 432.939 82.4842V133.785H409.468V9.72363H432.939V52.4746C435.957 48.451 439.98 45.3215 445.01 43.0862C450.039 40.7391 455.628 39.5655 461.775 39.5655Z" fill="#FFF6EB"/>
<path d="M313.705 135.294C306.105 135.294 299.287 133.953 293.252 131.271C287.216 128.477 282.41 124.732 278.834 120.038C275.369 115.344 273.469 110.147 273.134 104.447H296.773C297.22 108.023 298.952 110.985 301.97 113.332C305.099 115.679 308.955 116.853 313.538 116.853C318.008 116.853 321.473 115.959 323.932 114.17C326.503 112.382 327.788 110.091 327.788 107.297C327.788 104.279 326.223 102.044 323.094 100.591C320.076 99.0258 315.214 97.3493 308.508 95.5611C301.579 93.8845 295.878 92.1521 291.408 90.3639C287.049 88.5756 283.249 85.8373 280.007 82.149C276.878 78.4606 275.313 73.487 275.313 67.228C275.313 62.0867 276.766 57.3925 279.672 53.1453C282.69 48.8982 286.937 45.5451 292.414 43.0863C298.002 40.6274 304.54 39.3979 312.029 39.3979C323.094 39.3979 331.923 42.1921 338.518 47.7805C345.112 53.2571 348.744 60.6896 349.415 70.0781H326.95C326.614 66.3898 325.05 63.4838 322.256 61.3602C319.573 59.1249 315.941 58.0072 311.358 58.0072C307.111 58.0072 303.814 58.7896 301.467 60.3543C299.231 61.9191 298.114 64.0985 298.114 66.8927C298.114 70.0222 299.679 72.4252 302.808 74.1017C305.938 75.6665 310.799 77.2871 317.394 78.9636C324.1 80.6401 329.632 82.3725 333.991 84.1608C338.35 85.9491 342.094 88.7432 345.224 92.5433C348.465 96.2316 350.142 101.149 350.253 107.297C350.253 112.661 348.744 117.467 345.727 121.715C342.821 125.962 338.574 129.315 332.985 131.774C327.509 134.121 321.082 135.294 313.705 135.294Z" fill="#FFF6EB"/>
<path d="M260.172 0L258.16 35.542H242.233L240.054 0H260.172Z" fill="#FFF6EB"/>
<path d="M207.749 60.1865V105.117C207.749 108.247 208.475 110.538 209.928 111.991C211.493 113.332 214.064 114.003 217.64 114.003H228.537V133.785H213.784C194.001 133.785 184.11 124.173 184.11 104.949V60.1865H173.045V40.9067H184.11V17.9385H207.749V40.9067H228.537V60.1865H207.749Z" fill="#FFF6EB"/>
<path d="M163.29 85.3343C163.29 88.6874 163.066 91.7051 162.619 94.3875H94.7205C95.2793 101.094 97.6265 106.347 101.762 110.147C105.897 113.947 110.983 115.847 117.018 115.847C125.736 115.847 131.939 112.103 135.627 104.614H160.943C158.26 113.556 153.119 120.932 145.519 126.744C137.919 132.444 128.586 135.294 117.521 135.294C108.58 135.294 100.532 133.338 93.3793 129.427C86.338 125.403 80.8055 119.759 76.7818 112.494C72.87 105.229 70.9141 96.8464 70.9141 87.3461C70.9141 77.7342 72.87 69.2957 76.7818 62.0308C80.6937 54.766 86.1703 49.1776 93.2116 45.2657C100.253 41.3539 108.356 39.3979 117.521 39.3979C126.351 39.3979 134.23 41.298 141.16 45.0981C148.201 48.8982 153.622 54.3189 157.422 61.3602C161.334 68.2898 163.29 76.2812 163.29 85.3343ZM138.98 78.6283C138.869 72.5929 136.689 67.7869 132.442 64.2103C128.195 60.522 122.998 58.6778 116.85 58.6778C111.039 58.6778 106.121 60.4661 102.097 64.0427C98.1853 67.5074 95.7823 72.3693 94.8882 78.6283H138.98Z" fill="#FFF6EB"/>
<path d="M23.4711 115.176H62.0309V133.786H0V16.7651H23.4711V115.176Z" fill="#FFF6EB"/>
</svg>
