<svg width="1042" height="70" viewBox="0 0 1042 70" fill="none" xmlns="http://www.w3.org/2000/svg">
<path d="M1035.7 52.4482C1034.08 52.4482 1032.73 51.9575 1031.66 50.9762C1030.64 49.9522 1030.13 48.6935 1030.13 47.2001C1030.13 45.7068 1030.64 44.4695 1031.66 43.4881C1032.73 42.4641 1034.08 41.9521 1035.7 41.9521C1037.28 41.9521 1038.58 42.4641 1039.6 43.4881C1040.62 44.4695 1041.14 45.7068 1041.14 47.2001C1041.14 48.6935 1040.62 49.9522 1039.6 50.9762C1038.58 51.9575 1037.28 52.4482 1035.7 52.4482Z" fill="#FFF6EB"/>
<path d="M1014.81 22.0482C1015.97 20.1709 1017.46 18.6989 1019.29 17.6322C1021.17 16.5656 1023.3 16.0322 1025.69 16.0322V25.4402H1023.33C1020.51 25.4402 1018.38 26.1016 1016.93 27.4242C1015.52 28.7469 1014.81 31.0509 1014.81 34.3362V52.0002H1005.85V16.5442H1014.81V22.0482Z" fill="#FFF6EB"/>
<path d="M999.314 33.5038C999.314 34.7838 999.228 35.9358 999.058 36.9598H973.138C973.351 39.5198 974.247 41.5251 975.826 42.9758C977.404 44.4264 979.346 45.1518 981.65 45.1518C984.978 45.1518 987.346 43.7224 988.754 40.8638H998.418C997.394 44.2771 995.431 47.0931 992.53 49.3118C989.628 51.4878 986.066 52.5758 981.842 52.5758C978.428 52.5758 975.356 51.8291 972.626 50.3358C969.938 48.7998 967.826 46.6451 966.29 43.8718C964.796 41.0984 964.05 37.8984 964.05 34.2718C964.05 30.6024 964.796 27.3811 966.29 24.6078C967.783 21.8344 969.874 19.7011 972.562 18.2078C975.25 16.7144 978.343 15.9678 981.842 15.9678C985.212 15.9678 988.22 16.6931 990.866 18.1438C993.554 19.5944 995.623 21.6638 997.074 24.3518C998.567 26.9971 999.314 30.0478 999.314 33.5038ZM990.034 30.9438C989.991 28.6398 989.159 26.8051 987.538 25.4398C985.916 24.0318 983.932 23.3278 981.586 23.3278C979.367 23.3278 977.49 24.0104 975.954 25.3758C974.46 26.6984 973.543 28.5544 973.202 30.9438H990.034Z" fill="#FFF6EB"/>
<path d="M944.009 16.0321C946.697 16.0321 949.086 16.6295 951.177 17.8241C953.268 18.9761 954.889 20.7041 956.041 23.0081C957.236 25.2695 957.833 28.0001 957.833 31.2001V52.0001H948.873V32.4161C948.873 29.6001 948.169 27.4455 946.761 25.9521C945.353 24.4161 943.433 23.6481 941.001 23.6481C938.526 23.6481 936.564 24.4161 935.113 25.9521C933.705 27.4455 933.001 29.6001 933.001 32.4161V52.0001H924.041V4.64014H933.001V20.9601C934.153 19.4241 935.689 18.2295 937.609 17.3761C939.529 16.4801 941.662 16.0321 944.009 16.0321Z" fill="#FFF6EB"/>
<path d="M909.66 23.9039V41.0559C909.66 42.2505 909.937 43.1252 910.492 43.6799C911.089 44.1919 912.071 44.4479 913.436 44.4479H917.596V51.9999H911.964C904.412 51.9999 900.636 48.3306 900.636 40.9919V23.9039H896.412V16.5439H900.636V7.77588H909.66V16.5439H917.596V23.9039H909.66Z" fill="#FFF6EB"/>
<path d="M892.689 33.5038C892.689 34.7838 892.603 35.9358 892.433 36.9598H866.513C866.726 39.5198 867.622 41.5251 869.201 42.9758C870.779 44.4264 872.721 45.1518 875.025 45.1518C878.353 45.1518 880.721 43.7224 882.129 40.8638H891.793C890.769 44.2771 888.806 47.0931 885.905 49.3118C883.003 51.4878 879.441 52.5758 875.217 52.5758C871.803 52.5758 868.731 51.8291 866.001 50.3358C863.313 48.7998 861.201 46.6451 859.665 43.8718C858.171 41.0984 857.425 37.8984 857.425 34.2718C857.425 30.6024 858.171 27.3811 859.665 24.6078C861.158 21.8344 863.249 19.7011 865.937 18.2078C868.625 16.7144 871.718 15.9678 875.217 15.9678C878.587 15.9678 881.595 16.6931 884.241 18.1438C886.929 19.5944 888.998 21.6638 890.449 24.3518C891.942 26.9971 892.689 30.0478 892.689 33.5038ZM883.409 30.9438C883.366 28.6398 882.534 26.8051 880.913 25.4398C879.291 24.0318 877.307 23.3278 874.961 23.3278C872.742 23.3278 870.865 24.0104 869.329 25.3758C867.835 26.6984 866.918 28.5544 866.577 30.9438H883.409Z" fill="#FFF6EB"/>
<path d="M830.242 15.9678C832.887 15.9678 835.213 16.5011 837.218 17.5678C839.223 18.5918 840.802 19.9358 841.954 21.5998V16.5438H850.978V52.2558C850.978 55.5411 850.317 58.4638 848.994 61.0238C847.671 63.6264 845.687 65.6744 843.042 67.1678C840.396 68.7038 837.197 69.4718 833.442 69.4718C828.407 69.4718 824.268 68.2984 821.026 65.9518C817.826 63.6051 816.012 60.4051 815.586 56.3518H824.482C824.951 57.9731 825.954 59.2531 827.49 60.1918C829.068 61.1731 830.967 61.6638 833.186 61.6638C835.788 61.6638 837.9 60.8744 839.522 59.2958C841.143 57.7598 841.954 55.4131 841.954 52.2558V46.7518C840.802 48.4158 839.202 49.8024 837.154 50.9118C835.148 52.0211 832.844 52.5758 830.242 52.5758C827.255 52.5758 824.524 51.8078 822.05 50.2718C819.575 48.7358 817.612 46.5811 816.162 43.8078C814.754 40.9918 814.05 37.7704 814.05 34.1438C814.05 30.5598 814.754 27.3811 816.162 24.6078C817.612 21.8344 819.554 19.7011 821.986 18.2078C824.46 16.7144 827.212 15.9678 830.242 15.9678ZM841.954 34.2718C841.954 32.0958 841.527 30.2398 840.674 28.7038C839.82 27.1251 838.669 25.9304 837.218 25.1198C835.767 24.2664 834.21 23.8398 832.546 23.8398C830.882 23.8398 829.346 24.2451 827.938 25.0558C826.53 25.8664 825.378 27.0611 824.482 28.6398C823.628 30.1758 823.202 32.0104 823.202 34.1438C823.202 36.2771 823.628 38.1544 824.482 39.7758C825.378 41.3544 826.53 42.5704 827.938 43.4238C829.388 44.2771 830.925 44.7038 832.546 44.7038C834.21 44.7038 835.767 44.2984 837.218 43.4878C838.669 42.6344 839.82 41.4398 840.674 39.9038C841.527 38.3251 841.954 36.4478 841.954 34.2718Z" fill="#FFF6EB"/>
<path d="M791.285 52.5758C787.871 52.5758 784.799 51.8291 782.069 50.3358C779.338 48.7998 777.183 46.6451 775.605 43.8718C774.069 41.0984 773.301 37.8984 773.301 34.2718C773.301 30.6451 774.09 27.4451 775.669 24.6718C777.29 21.8984 779.487 19.7651 782.261 18.2718C785.034 16.7358 788.127 15.9678 791.541 15.9678C794.954 15.9678 798.047 16.7358 800.821 18.2718C803.594 19.7651 805.77 21.8984 807.349 24.6718C808.97 27.4451 809.781 30.6451 809.781 34.2718C809.781 37.8984 808.949 41.0984 807.285 43.8718C805.663 46.6451 803.445 48.7998 800.629 50.3358C797.855 51.8291 794.741 52.5758 791.285 52.5758ZM791.285 44.7678C792.906 44.7678 794.421 44.3838 795.829 43.6158C797.279 42.8051 798.431 41.6104 799.285 40.0318C800.138 38.4531 800.565 36.5331 800.565 34.2718C800.565 30.9011 799.669 28.3198 797.877 26.5278C796.127 24.6931 793.973 23.7758 791.413 23.7758C788.853 23.7758 786.698 24.6931 784.949 26.5278C783.242 28.3198 782.389 30.9011 782.389 34.2718C782.389 37.6424 783.221 40.2451 784.885 42.0798C786.591 43.8718 788.725 44.7678 791.285 44.7678Z" fill="#FFF6EB"/>
<path d="M761.16 23.9039V41.0559C761.16 42.2505 761.437 43.1252 761.992 43.6799C762.589 44.1919 763.571 44.4479 764.936 44.4479H769.096V51.9999H763.464C755.912 51.9999 752.136 48.3306 752.136 40.9919V23.9039H747.912V16.5439H752.136V7.77588H761.16V16.5439H769.096V23.9039H761.16Z" fill="#FFF6EB"/>
<path d="M728.939 33.5038C728.939 34.7838 728.853 35.9358 728.683 36.9598H702.763C702.976 39.5198 703.872 41.5251 705.451 42.9758C707.029 44.4264 708.971 45.1518 711.275 45.1518C714.603 45.1518 716.971 43.7224 718.379 40.8638H728.043C727.019 44.2771 725.056 47.0931 722.155 49.3118C719.253 51.4878 715.691 52.5758 711.467 52.5758C708.053 52.5758 704.981 51.8291 702.251 50.3358C699.563 48.7998 697.451 46.6451 695.915 43.8718C694.421 41.0984 693.675 37.8984 693.675 34.2718C693.675 30.6024 694.421 27.3811 695.915 24.6078C697.408 21.8344 699.499 19.7011 702.187 18.2078C704.875 16.7144 707.968 15.9678 711.467 15.9678C714.837 15.9678 717.845 16.6931 720.491 18.1438C723.179 19.5944 725.248 21.6638 726.699 24.3518C728.192 26.9971 728.939 30.0478 728.939 33.5038ZM719.659 30.9438C719.616 28.6398 718.784 26.8051 717.163 25.4398C715.541 24.0318 713.557 23.3278 711.211 23.3278C708.992 23.3278 707.115 24.0104 705.579 25.3758C704.085 26.6984 703.168 28.5544 702.827 30.9438H719.659Z" fill="#FFF6EB"/>
<path d="M672.948 16.0322C677.3 16.0322 680.799 17.3762 683.444 20.0642C686.132 22.7096 687.476 26.4216 687.476 31.2002V52.0002H678.516V32.4162C678.516 29.6429 677.812 27.5309 676.404 26.0802C674.996 24.5869 673.076 23.8402 670.644 23.8402C668.212 23.8402 666.271 24.5869 664.82 26.0802C663.412 27.5309 662.708 29.6429 662.708 32.4162V52.0002H653.748V32.4162C653.748 29.6429 653.044 27.5309 651.636 26.0802C650.228 24.5869 648.308 23.8402 645.876 23.8402C643.401 23.8402 641.439 24.5869 639.988 26.0802C638.58 27.5309 637.876 29.6429 637.876 32.4162V52.0002H628.916V16.5442H637.876V20.8322C639.028 19.3389 640.5 18.1656 642.292 17.3122C644.127 16.4589 646.132 16.0322 648.308 16.0322C651.081 16.0322 653.556 16.6296 655.732 17.8242C657.908 18.9762 659.593 20.6402 660.788 22.8162C661.94 20.7682 663.604 19.1256 665.78 17.8882C667.999 16.6509 670.388 16.0322 672.948 16.0322Z" fill="#FFF6EB"/>
<path d="M615.648 12.3202C614.069 12.3202 612.746 11.8296 611.68 10.8482C610.656 9.82422 610.144 8.56555 610.144 7.07222C610.144 5.57889 610.656 4.34155 611.68 3.36022C612.746 2.33622 614.069 1.82422 615.648 1.82422C617.226 1.82422 618.528 2.33622 619.552 3.36022C620.618 4.34155 621.152 5.57889 621.152 7.07222C621.152 8.56555 620.618 9.82422 619.552 10.8482C618.528 11.8296 617.226 12.3202 615.648 12.3202ZM620.064 16.5442V52.0002H611.104V16.5442H620.064Z" fill="#FFF6EB"/>
<path d="M596.723 23.9039V41.0559C596.723 42.2505 597 43.1252 597.555 43.6799C598.152 44.1919 599.133 44.4479 600.499 44.4479H604.659V51.9999H599.027C591.475 51.9999 587.699 48.3306 587.699 40.9919V23.9039H583.475V16.5439H587.699V7.77588H596.723V16.5439H604.659V23.9039H596.723Z" fill="#FFF6EB"/>
<path d="M556.66 23.9039V41.0559C556.66 42.2505 556.937 43.1252 557.492 43.6799C558.089 44.1919 559.071 44.4479 560.436 44.4479H564.596V51.9999H558.964C551.412 51.9999 547.636 48.3306 547.636 40.9919V23.9039H543.412V16.5439H547.636V7.77588H556.66V16.5439H564.596V23.9039H556.66Z" fill="#FFF6EB"/>
<path d="M500.55 34.1438C500.55 30.5598 501.254 27.3811 502.662 24.6078C504.112 21.8344 506.054 19.7011 508.486 18.2078C510.96 16.7144 513.712 15.9678 516.742 15.9678C519.387 15.9678 521.691 16.5011 523.654 17.5678C525.659 18.6344 527.259 19.9784 528.454 21.5998V16.5438H537.478V51.9998H528.454V46.8158C527.302 48.4798 525.702 49.8664 523.654 50.9758C521.648 52.0424 519.323 52.5758 516.678 52.5758C513.691 52.5758 510.96 51.8078 508.486 50.2718C506.054 48.7358 504.112 46.5811 502.662 43.8078C501.254 40.9918 500.55 37.7704 500.55 34.1438ZM528.454 34.2718C528.454 32.0958 528.027 30.2398 527.174 28.7038C526.32 27.1251 525.169 25.9304 523.718 25.1198C522.267 24.2664 520.71 23.8398 519.046 23.8398C517.382 23.8398 515.846 24.2451 514.438 25.0558C513.03 25.8664 511.878 27.0611 510.982 28.6398C510.128 30.1758 509.702 32.0104 509.702 34.1438C509.702 36.2771 510.128 38.1544 510.982 39.7758C511.878 41.3544 513.03 42.5704 514.438 43.4238C515.888 44.2771 517.425 44.7038 519.046 44.7038C520.71 44.7038 522.267 44.2984 523.718 43.4878C525.169 42.6344 526.32 41.4398 527.174 39.9038C528.027 38.3251 528.454 36.4478 528.454 34.2718Z" fill="#FFF6EB"/>
<path d="M496.314 33.5038C496.314 34.7838 496.228 35.9358 496.058 36.9598H470.138C470.351 39.5198 471.247 41.5251 472.826 42.9758C474.404 44.4264 476.346 45.1518 478.65 45.1518C481.978 45.1518 484.346 43.7224 485.754 40.8638H495.418C494.394 44.2771 492.431 47.0931 489.53 49.3118C486.628 51.4878 483.066 52.5758 478.842 52.5758C475.428 52.5758 472.356 51.8291 469.626 50.3358C466.938 48.7998 464.826 46.6451 463.29 43.8718C461.796 41.0984 461.05 37.8984 461.05 34.2718C461.05 30.6024 461.796 27.3811 463.29 24.6078C464.783 21.8344 466.874 19.7011 469.562 18.2078C472.25 16.7144 475.343 15.9678 478.842 15.9678C482.212 15.9678 485.22 16.6931 487.866 18.1438C490.554 19.5944 492.623 21.6638 494.074 24.3518C495.567 26.9971 496.314 30.0478 496.314 33.5038ZM487.034 30.9438C486.991 28.6398 486.159 26.8051 484.538 25.4398C482.916 24.0318 480.932 23.3278 478.586 23.3278C476.367 23.3278 474.49 24.0104 472.954 25.3758C471.46 26.6984 470.543 28.5544 470.202 30.9438H487.034Z" fill="#FFF6EB"/>
<path d="M446.439 22.0482C447.591 20.1709 449.084 18.6989 450.918 17.6322C452.796 16.5656 454.929 16.0322 457.319 16.0322V25.4402H454.951C452.135 25.4402 450.001 26.1016 448.551 27.4242C447.143 28.7469 446.439 31.0509 446.439 34.3362V52.0002H437.479V16.5442H446.439V22.0482Z" fill="#FFF6EB"/>
<path d="M407.992 15.9678C410.637 15.9678 412.962 16.5011 414.968 17.5678C416.973 18.5918 418.552 19.9358 419.704 21.5998V16.5438H428.728V52.2558C428.728 55.5411 428.066 58.4638 426.744 61.0238C425.421 63.6264 423.437 65.6744 420.792 67.1678C418.146 68.7038 414.946 69.4718 411.192 69.4718C406.157 69.4718 402.018 68.2984 398.776 65.9518C395.576 63.6051 393.762 60.4051 393.336 56.3518H402.232C402.701 57.9731 403.704 59.2531 405.24 60.1918C406.818 61.1731 408.717 61.6638 410.936 61.6638C413.538 61.6638 415.65 60.8744 417.272 59.2958C418.893 57.7598 419.704 55.4131 419.704 52.2558V46.7518C418.552 48.4158 416.952 49.8024 414.904 50.9118C412.898 52.0211 410.594 52.5758 407.992 52.5758C405.005 52.5758 402.274 51.8078 399.8 50.2718C397.325 48.7358 395.362 46.5811 393.912 43.8078C392.504 40.9918 391.8 37.7704 391.8 34.1438C391.8 30.5598 392.504 27.3811 393.912 24.6078C395.362 21.8344 397.304 19.7011 399.736 18.2078C402.21 16.7144 404.962 15.9678 407.992 15.9678ZM419.704 34.2718C419.704 32.0958 419.277 30.2398 418.424 28.7038C417.57 27.1251 416.418 25.9304 414.968 25.1198C413.517 24.2664 411.96 23.8398 410.296 23.8398C408.632 23.8398 407.096 24.2451 405.688 25.0558C404.28 25.8664 403.128 27.0611 402.232 28.6398C401.378 30.1758 400.952 32.0104 400.952 34.1438C400.952 36.2771 401.378 38.1544 402.232 39.7758C403.128 41.3544 404.28 42.5704 405.688 43.4238C407.138 44.2771 408.674 44.7038 410.296 44.7038C411.96 44.7038 413.517 44.2984 414.968 43.4878C416.418 42.6344 417.57 41.4398 418.424 39.9038C419.277 38.3251 419.704 36.4478 419.704 34.2718Z" fill="#FFF6EB"/>
<path d="M333.175 34.1438C333.175 30.5598 333.879 27.3811 335.287 24.6078C336.737 21.8344 338.679 19.7011 341.111 18.2078C343.585 16.7144 346.337 15.9678 349.367 15.9678C352.012 15.9678 354.316 16.5011 356.279 17.5678C358.284 18.6344 359.884 19.9784 361.079 21.5998V16.5438H370.103V51.9998H361.079V46.8158C359.927 48.4798 358.327 49.8664 356.279 50.9758C354.273 52.0424 351.948 52.5758 349.303 52.5758C346.316 52.5758 343.585 51.8078 341.111 50.2718C338.679 48.7358 336.737 46.5811 335.287 43.8078C333.879 40.9918 333.175 37.7704 333.175 34.1438ZM361.079 34.2718C361.079 32.0958 360.652 30.2398 359.799 28.7038C358.945 27.1251 357.793 25.9304 356.343 25.1198C354.892 24.2664 353.335 23.8398 351.671 23.8398C350.007 23.8398 348.471 24.2451 347.063 25.0558C345.655 25.8664 344.503 27.0611 343.607 28.6398C342.753 30.1758 342.327 32.0104 342.327 34.1438C342.327 36.2771 342.753 38.1544 343.607 39.7758C344.503 41.3544 345.655 42.5704 347.063 43.4238C348.513 44.2771 350.049 44.7038 351.671 44.7038C353.335 44.7038 354.892 44.2984 356.343 43.4878C357.793 42.6344 358.945 41.4398 359.799 39.9038C360.652 38.3251 361.079 36.4478 361.079 34.2718Z" fill="#FFF6EB"/>
<path d="M313.689 33.5038C313.689 34.7838 313.603 35.9358 313.433 36.9598H287.513C287.726 39.5198 288.622 41.5251 290.201 42.9758C291.779 44.4264 293.721 45.1518 296.025 45.1518C299.353 45.1518 301.721 43.7224 303.129 40.8638H312.793C311.769 44.2771 309.806 47.0931 306.905 49.3118C304.003 51.4878 300.441 52.5758 296.217 52.5758C292.803 52.5758 289.731 51.8291 287.001 50.3358C284.313 48.7998 282.201 46.6451 280.665 43.8718C279.171 41.0984 278.425 37.8984 278.425 34.2718C278.425 30.6024 279.171 27.3811 280.665 24.6078C282.158 21.8344 284.249 19.7011 286.937 18.2078C289.625 16.7144 292.718 15.9678 296.217 15.9678C299.587 15.9678 302.595 16.6931 305.241 18.1438C307.929 19.5944 309.998 21.6638 311.449 24.3518C312.942 26.9971 313.689 30.0478 313.689 33.5038ZM304.409 30.9438C304.366 28.6398 303.534 26.8051 301.913 25.4398C300.291 24.0318 298.307 23.3278 295.961 23.3278C293.742 23.3278 291.865 24.0104 290.329 25.3758C288.835 26.6984 287.918 28.5544 287.577 30.9438H304.409Z" fill="#FFF6EB"/>
<path d="M257.2 43.7439L266.16 16.5439H275.696L262.576 51.9999H251.696L238.64 16.5439H248.24L257.2 43.7439Z" fill="#FFF6EB"/>
<path d="M196.737 34.1438C196.737 30.5598 197.441 27.3811 198.849 24.6078C200.3 21.8344 202.241 19.7011 204.673 18.2078C207.148 16.7144 209.9 15.9678 212.929 15.9678C215.575 15.9678 217.879 16.5011 219.841 17.5678C221.847 18.6344 223.447 19.9784 224.641 21.5998V16.5438H233.665V51.9998H224.641V46.8158C223.489 48.4798 221.889 49.8664 219.841 50.9758C217.836 52.0424 215.511 52.5758 212.865 52.5758C209.879 52.5758 207.148 51.8078 204.673 50.2718C202.241 48.7358 200.3 46.5811 198.849 43.8078C197.441 40.9918 196.737 37.7704 196.737 34.1438ZM224.641 34.2718C224.641 32.0958 224.215 30.2398 223.361 28.7038C222.508 27.1251 221.356 25.9304 219.905 25.1198C218.455 24.2664 216.897 23.8398 215.233 23.8398C213.569 23.8398 212.033 24.2451 210.625 25.0558C209.217 25.8664 208.065 27.0611 207.169 28.6398C206.316 30.1758 205.889 32.0104 205.889 34.1438C205.889 36.2771 206.316 38.1544 207.169 39.7758C208.065 41.3544 209.217 42.5704 210.625 43.4238C212.076 44.2771 213.612 44.7038 215.233 44.7038C216.897 44.7038 218.455 44.2984 219.905 43.4878C221.356 42.6344 222.508 41.4398 223.361 39.9038C224.215 38.3251 224.641 36.4478 224.641 34.2718Z" fill="#FFF6EB"/>
<path d="M176.697 16.0321C179.385 16.0321 181.774 16.6295 183.865 17.8241C185.955 18.9761 187.577 20.7041 188.729 23.0081C189.923 25.2695 190.521 28.0001 190.521 31.2001V52.0001H181.561V32.4161C181.561 29.6001 180.857 27.4455 179.449 25.9521C178.041 24.4161 176.121 23.6481 173.689 23.6481C171.214 23.6481 169.251 24.4161 167.801 25.9521C166.393 27.4455 165.689 29.6001 165.689 32.4161V52.0001H156.729V4.64014H165.689V20.9601C166.841 19.4241 168.377 18.2295 170.297 17.3761C172.217 16.4801 174.35 16.0321 176.697 16.0321Z" fill="#FFF6EB"/>
<path d="M120.172 52.5758C117.27 52.5758 114.668 52.0638 112.364 51.0398C110.06 49.9731 108.225 48.5438 106.86 46.7518C105.537 44.9598 104.812 42.9758 104.684 40.7998H113.708C113.878 42.1651 114.54 43.2958 115.692 44.1918C116.886 45.0878 118.358 45.5358 120.108 45.5358C121.814 45.5358 123.137 45.1944 124.076 44.5118C125.057 43.8291 125.548 42.9544 125.548 41.8878C125.548 40.7358 124.95 39.8824 123.756 39.3278C122.604 38.7304 120.748 38.0904 118.188 37.4078C115.542 36.7678 113.366 36.1064 111.66 35.4238C109.996 34.7411 108.545 33.6958 107.308 32.2878C106.113 30.8798 105.516 28.9811 105.516 26.5918C105.516 24.6291 106.07 22.8371 107.18 21.2158C108.332 19.5944 109.953 18.3144 112.044 17.3758C114.177 16.4371 116.673 15.9678 119.532 15.9678C123.756 15.9678 127.126 17.0344 129.644 19.1678C132.161 21.2584 133.548 24.0958 133.804 27.6798H125.228C125.1 26.2718 124.502 25.1624 123.436 24.3518C122.412 23.4984 121.025 23.0718 119.276 23.0718C117.654 23.0718 116.396 23.3704 115.5 23.9678C114.646 24.5651 114.22 25.3971 114.22 26.4638C114.22 27.6584 114.817 28.5758 116.012 29.2158C117.206 29.8131 119.062 30.4318 121.58 31.0718C124.14 31.7118 126.252 32.3731 127.916 33.0558C129.58 33.7384 131.009 34.8051 132.204 36.2558C133.441 37.6638 134.081 39.5411 134.124 41.8878C134.124 43.9358 133.548 45.7704 132.396 47.3918C131.286 49.0131 129.665 50.2931 127.532 51.2318C125.441 52.1278 122.988 52.5758 120.172 52.5758Z" fill="#FFF6EB"/>
<path d="M99.7357 0.928223L98.9677 14.4962H92.8877L92.0557 0.928223H99.7357Z" fill="#FFF6EB"/>
<path d="M79.7226 23.9039V41.0559C79.7226 42.2505 79.9999 43.1252 80.5546 43.6799C81.1519 44.1919 82.1333 44.4479 83.4986 44.4479H87.6586V51.9999H82.0266C74.4746 51.9999 70.6986 48.3306 70.6986 40.9919V23.9039H66.4746V16.5439H70.6986V7.77588H79.7226V16.5439H87.6586V23.9039H79.7226Z" fill="#FFF6EB"/>
<path d="M62.7513 33.5038C62.7513 34.7838 62.666 35.9358 62.4953 36.9598H36.5753C36.7886 39.5198 37.6846 41.5251 39.2633 42.9758C40.842 44.4264 42.7833 45.1518 45.0873 45.1518C48.4153 45.1518 50.7833 43.7224 52.1913 40.8638H61.8553C60.8313 44.2771 58.8686 47.0931 55.9673 49.3118C53.066 51.4878 49.5033 52.5758 45.2793 52.5758C41.866 52.5758 38.794 51.8291 36.0633 50.3358C33.3753 48.7998 31.2633 46.6451 29.7273 43.8718C28.234 41.0984 27.4873 37.8984 27.4873 34.2718C27.4873 30.6024 28.234 27.3811 29.7273 24.6078C31.2206 21.8344 33.3113 19.7011 35.9993 18.2078C38.6873 16.7144 41.7806 15.9678 45.2793 15.9678C48.65 15.9678 51.658 16.6931 54.3033 18.1438C56.9913 19.5944 59.0606 21.6638 60.5113 24.3518C62.0046 26.9971 62.7513 30.0478 62.7513 33.5038ZM53.4713 30.9438C53.4286 28.6398 52.5966 26.8051 50.9753 25.4398C49.354 24.0318 47.37 23.3278 45.0233 23.3278C42.8046 23.3278 40.9273 24.0104 39.3913 25.3758C37.898 26.6984 36.9806 28.5544 36.6393 30.9438H53.4713Z" fill="#FFF6EB"/>
<path d="M9.37602 44.8961H24.096V52.0001H0.416016V7.32812H9.37602V44.8961Z" fill="#FFF6EB"/>
</svg>
