<svg width="218" height="68" viewBox="0 0 218 68" fill="none" xmlns="http://www.w3.org/2000/svg">
<path d="M23.8438 23.5871H6.36891C5.86963 23.5871 5.61998 23.8368 5.61998 24.3361V25.8339C5.61998 26.8325 5.1207 27.5814 3.87249 27.5814C2.87393 27.5814 2.125 27.0821 2.125 25.8339V22.5886C2.125 22.0893 2.37464 21.59 2.62428 21.0907C2.87393 20.5914 3.37321 20.5914 4.12213 20.5914H6.11927C6.11927 20.3418 5.61998 19.8425 5.37034 19.0936C5.1207 18.8439 5.1207 18.5943 5.37034 18.3447C5.61998 18.095 5.61998 17.8454 6.11927 17.5957H6.36891C6.61855 17.3461 7.36748 17.3461 7.86676 17.8454C8.36604 18.3447 9.11497 18.8439 9.61425 19.5929C9.61425 19.8425 9.86389 20.0922 9.86389 20.0922C9.86389 20.0922 9.86389 20.5914 9.61425 20.5914H13.3589V18.3447C13.3589 17.0965 13.8582 16.5972 15.1064 16.5972C16.3546 16.5972 16.8539 17.0965 16.8539 18.3447V20.5914H20.3488H20.0992C20.5985 19.8425 21.0978 19.0936 21.5971 18.3447C22.0963 17.3461 22.8453 16.8468 23.8438 17.3461C25.3417 17.8454 25.5913 18.5943 24.5928 19.8425C24.3431 20.0922 24.0935 20.5914 23.8438 20.5914H26.0906C26.5899 20.5914 27.0892 20.8411 27.5885 21.0907C28.0877 21.3404 28.0877 21.8396 28.0877 22.5886V25.8339C28.0877 27.0821 27.5885 27.5814 26.3402 27.5814C25.092 27.5814 24.5928 27.0821 24.5928 25.8339V24.5857C24.5928 23.8368 24.3431 23.5871 23.8438 23.5871ZM6.61855 33.3232H24.3431C24.8424 33.3232 25.3417 33.5728 25.841 33.8224C26.3402 34.0721 26.3402 34.5714 26.3402 35.3203V42.0606C26.3402 42.5599 26.0906 43.0592 25.841 43.5585C25.5913 44.0578 24.8424 44.0578 24.0935 44.0578H6.61855C6.11927 44.0578 5.61998 43.8081 5.1207 43.5585C4.62142 43.3088 4.62142 42.8095 4.62142 42.0606V35.3203C4.62142 34.821 4.87106 34.3217 5.1207 33.8224C5.37034 33.3232 5.86963 33.3232 6.61855 33.3232ZM21.0978 32.075H9.36461C8.86533 32.075 8.36604 31.8253 7.86676 31.5757C7.36748 31.326 7.36748 30.5771 7.36748 30.0778V27.0821C7.36748 26.5828 7.61712 26.0836 7.86676 25.5843C8.1164 25.085 8.61568 25.085 9.36461 25.085H21.0978C21.5971 25.085 22.0963 25.3346 22.5956 25.5843C23.0949 25.8339 23.0949 26.3332 23.0949 27.0821V30.0778C23.0949 30.5771 22.8453 31.0764 22.5956 31.5757C22.346 32.075 21.5971 32.075 21.0978 32.075ZM7.86676 37.3174H13.3589V35.8196H8.61568C8.1164 35.8196 7.86676 36.0692 7.86676 36.5685V37.3174ZM13.3589 39.8138H7.86676V40.8124C7.86676 41.3117 8.1164 41.5613 8.61568 41.5613H13.3589V39.8138ZM11.3617 29.5785H18.851C19.3503 29.5785 19.5999 29.3289 19.5999 28.8296V28.58C19.5999 28.0807 19.3503 27.831 18.851 27.831H11.3617C10.8625 27.831 10.6128 28.0807 10.6128 28.58V28.8296C10.6128 29.3289 10.8625 29.5785 11.3617 29.5785ZM16.8539 37.3174H22.5956V36.5685C22.5956 36.0692 22.346 35.8196 21.8467 35.8196H16.8539V37.3174ZM22.5956 39.8138H16.8539V41.3117H21.8467C22.346 41.3117 22.5956 41.0621 22.5956 40.5628V39.8138Z" fill="#460902"/>
<path d="M50.3056 25.0853H56.7963C58.0445 25.0853 58.5438 25.5846 58.5438 26.8328C58.5438 28.081 58.0445 28.5803 56.7963 28.5803H50.8049C51.0545 30.0782 51.3042 31.8257 51.8035 33.5732C52.802 32.5746 53.3013 31.576 53.8006 30.8271C54.2999 29.8285 55.0488 29.5789 56.0474 30.0782C57.0459 30.5775 57.2956 31.3264 56.7963 32.325C55.5481 34.0724 54.2999 35.8199 52.802 37.3178C53.8006 39.8142 54.5495 41.0624 55.5481 41.0624C55.7977 41.0624 56.0474 40.8128 56.297 40.0638C56.297 39.0653 56.5467 38.3164 57.0459 37.5674C57.5452 37.0681 58.0445 36.8185 58.5438 37.3178C58.7934 37.5674 59.0431 38.0667 59.2927 38.8156C59.5424 39.5646 59.2927 40.0638 59.2927 40.5631C59.0431 42.061 58.5438 43.3092 57.7949 43.8085C57.0459 44.3078 56.0474 44.807 54.7992 44.807C52.802 44.807 51.0545 43.3092 49.5567 40.0638C48.3085 41.0624 47.0603 42.061 45.5624 42.8099C44.5638 43.3092 43.8149 43.3092 43.066 42.3106C42.5667 41.8113 42.3171 41.3121 42.5667 40.8128C42.8164 40.3135 43.066 40.0638 43.8149 39.5646C45.5624 38.566 47.0603 37.5674 48.5581 36.3192C47.8092 34.0724 47.3099 31.3264 47.0603 28.3307H41.0689V31.8257C41.3185 31.8257 41.8178 31.576 42.5667 31.576C43.3156 31.576 43.8149 31.3264 44.0646 31.3264C45.3128 31.0767 45.8121 31.576 45.8121 32.8242C45.8121 33.8228 45.3128 34.3221 44.3142 34.5717L41.0689 35.3207V40.5631C41.0689 41.5617 41.0689 42.3106 40.8192 42.8099C40.5696 43.3092 40.0703 43.8085 39.571 44.0581C38.8221 44.3078 37.8235 44.5574 36.3257 44.807C34.8278 44.807 34.0789 44.3078 33.8293 43.3092C33.5796 42.5603 33.5796 42.061 34.0789 41.5617C34.5782 41.0624 35.0775 41.0624 36.076 41.0624C36.3257 41.0624 36.3257 41.0624 36.5753 41.0624C36.825 41.0624 36.825 41.0624 37.0746 41.0624C37.5739 41.0624 37.8235 40.8128 37.8235 40.5631V36.3192C37.3242 36.3192 36.825 36.5689 35.8264 36.8185C34.8278 37.0681 34.3285 37.0681 34.0789 37.0681C32.8307 37.3178 32.3314 36.8185 32.0818 35.5703C31.8321 34.8214 31.8321 34.3221 32.0818 34.0724C32.3314 33.8228 32.581 33.5732 33.33 33.3235C34.5782 33.0739 36.076 32.8242 37.8235 32.5746V28.5803H33.8293C32.581 28.5803 32.0818 28.081 32.0818 26.8328C32.0818 25.5846 32.581 25.0853 33.8293 25.0853H37.8235V21.5904C37.3242 21.5904 36.076 21.84 34.5782 22.0896C33.5796 22.0896 33.0803 21.84 32.581 20.8414C32.3314 19.8429 32.581 19.0939 33.8293 18.8443C37.0746 18.5947 39.8207 17.8457 42.3171 17.0968C43.066 16.8472 43.8149 17.0968 44.3142 17.8457C45.3128 19.0939 45.0631 19.8429 43.5653 20.3422C42.3171 20.5918 41.5681 20.8414 40.8192 20.8414V24.8357H46.561C46.3113 22.8386 46.3113 20.8414 46.3113 18.5947C46.3113 17.3465 46.8106 16.8472 48.0588 16.8472C49.307 16.8472 49.8063 17.3465 49.8063 18.8443C50.056 20.5918 50.056 22.8386 50.3056 25.0853ZM54.7992 18.345C55.7977 19.3436 56.7963 20.3422 57.2956 21.0911C57.7949 21.84 57.7949 22.5889 56.7963 23.3379C55.7977 24.0868 55.0488 23.8371 54.2999 23.0882C53.8006 22.5889 53.3013 21.84 52.3027 20.8414C51.3042 19.8429 51.5538 19.0939 52.5524 18.345C53.3013 17.8457 54.0502 17.8457 54.7992 18.345Z" fill="#460902"/>
<path d="M69.5285 18.0953H76.0192C76.5184 18.0953 77.0177 18.345 77.517 18.5946C78.0163 18.8443 78.0163 19.3435 78.0163 20.0925V27.5817C78.0163 28.081 77.7667 28.5803 77.517 29.0796C77.2674 29.5789 76.7681 29.5789 76.0192 29.5789H72.7738V42.8099C72.7738 43.8084 72.2745 44.3077 71.276 44.3077C70.2774 44.3077 69.5285 43.8084 69.5285 42.8099V18.0953C68.7796 19.8428 68.2803 21.5903 67.5313 23.3378V42.8099C67.5313 43.8084 67.0321 44.5574 65.7839 44.5574C64.5356 44.5574 64.0364 44.0581 64.0364 42.8099V29.5789C62.7882 31.3263 61.7896 31.3263 61.0407 29.5789C60.791 29.0796 60.791 28.5803 60.791 28.3306C60.791 28.081 61.0407 27.5817 61.2903 27.0824C63.0378 24.586 64.5356 21.84 65.7839 18.345C66.0335 17.8457 66.5328 17.5961 67.2817 17.3464C68.0306 17.0968 68.5299 17.0968 69.0292 17.3464C69.2788 17.3464 69.2788 17.5961 69.5285 17.5961C69.7781 17.5961 69.7781 18.0953 69.5285 18.0953ZM72.7738 22.5889H75.2702V21.5903C75.2702 21.091 75.0206 20.8414 74.5213 20.8414H72.7738V22.5889ZM75.2702 25.0853H72.7738V26.8328H74.5213C75.0206 26.8328 75.2702 26.5832 75.2702 26.0839V25.0853ZM81.2616 18.0953H86.2545C86.7538 18.0953 87.253 18.345 87.7523 18.5946C88.2516 18.8443 88.2516 19.3435 88.2516 20.0925V40.3135C88.2516 41.312 88.2516 42.0609 88.002 42.5602C87.7523 43.0595 87.253 43.5588 86.7538 43.8084C86.0048 44.0581 84.7566 44.3077 83.0091 44.3077C81.5113 44.3077 80.7624 43.8084 80.5127 42.8099C80.2631 42.0609 80.5127 41.5617 80.7624 41.312C81.012 41.0624 81.7609 40.8127 82.7595 40.8127C83.0091 40.8127 83.2588 40.8127 83.7581 40.8127C84.2573 40.8127 84.2573 40.8127 84.2573 40.8127C84.7566 40.8127 85.0063 40.5631 85.0063 40.0638V29.3292H81.5113C81.012 29.3292 80.5127 29.0796 80.0134 28.8299C79.5141 28.5803 79.5141 28.081 79.5141 27.3321V19.8428C79.5141 19.3435 79.7638 18.8443 80.0134 18.345C80.2631 17.8457 80.5127 18.0953 81.2616 18.0953ZM82.0106 22.5889H84.7566V21.5903C84.7566 21.091 84.507 20.8414 84.0077 20.8414H82.7595C82.2602 20.8414 82.0106 21.091 82.0106 21.5903V22.5889ZM84.7566 25.0853H82.0106V26.0839C82.0106 26.5832 82.2602 26.8328 82.7595 26.8328H84.7566V25.0853Z" fill="#460902"/>
<path d="M100.667 29.6095L111.539 29.3132C112.315 29.166 112.743 29.7276 112.89 30.5031C113.037 31.2787 112.476 31.7067 111.7 31.854L107.641 32.062C107.08 32.4901 106.518 32.9181 105.957 33.3461C106.632 33.9411 107.308 34.536 107.736 35.0976C108.611 34.2082 109.206 33.5327 109.768 33.1047C110.363 32.4293 111.105 32.5294 111.78 33.1244C112.703 33.7527 112.603 34.4949 111.727 35.3844C110.043 36.6684 109.2 37.3105 109.2 37.3105C110.618 38.0056 112.002 38.9481 113.42 39.6432C113.634 39.924 113.881 39.9574 114.095 40.2382C114.062 40.4856 114.062 40.4856 114.029 40.733C113.995 40.9804 113.714 41.1944 113.648 41.6892C113.333 42.1506 113.019 42.612 112.524 42.5452C112.03 42.4785 111.782 42.4451 111.321 42.1309C110.859 41.8167 110.431 41.2552 109.509 40.6268C109.522 42.392 109.108 43.5956 108.266 44.2377C107.423 44.8797 106.614 45.2744 105.344 45.3548L103.826 45.4019C103.331 45.3352 102.87 45.021 102.656 44.7402C102.509 43.9646 102.114 43.1557 101.933 42.6275C101.653 42.8415 100.844 43.2362 100.035 43.6308C99.5065 43.8114 99.0117 43.7447 98.5169 43.6779C98.0221 43.6111 97.5607 43.297 97.38 42.7688C97.38 42.7688 97.166 42.488 96.952 42.2072C96.8852 42.702 96.5711 43.1634 96.5043 43.6582C96.09 44.8618 95.067 44.9757 94.1108 44.5948C93.1879 43.9664 92.7933 43.1575 93.455 41.9872C94.5978 39.1186 94.9179 34.8794 94.9436 29.0891L94.7415 21.2528C94.8416 20.5106 94.9084 20.0158 95.47 19.5877C95.7842 19.1263 96.3123 18.9457 97.0545 19.0459L101.08 19.0852L100.905 14.7793C100.825 13.5089 101.667 12.8668 102.937 12.7863C104.208 12.7059 104.636 13.2674 104.75 14.2904L110.54 14.3161C111.563 14.2022 111.991 14.7638 112.105 15.7867C112.219 16.8097 111.657 17.2378 110.634 17.3516L104.844 17.326L104.891 18.8438L110.715 18.622C111.457 18.7222 111.952 18.7889 112.38 19.3505C112.808 19.9121 112.988 20.4402 112.888 21.1824C112.788 21.9246 112.407 22.8808 112.273 23.8704C111.926 24.5793 111.398 24.7599 110.656 24.6597C109.419 24.4928 109.024 23.6839 109.438 22.4802C109.505 21.9854 109.291 21.7047 108.796 21.6379L105.018 21.6319L105.066 23.1497L107.64 22.7413C108.415 22.5941 108.877 22.9083 108.776 23.6505C108.924 24.426 108.61 24.8875 107.834 25.0347L104.765 25.3763L104.732 25.6237C104.665 26.1185 104.912 26.1519 104.879 26.3993C105.126 26.4327 105.374 26.466 105.869 26.5328L109.151 26.472C109.532 25.5158 110.341 25.1212 111.298 25.5021C112.04 25.6022 112.187 26.3778 112.053 27.3674C111.706 28.0762 110.864 28.7183 109.379 28.518L105.568 28.7594C104.298 28.8399 103.555 28.7397 102.847 28.3922C102.385 28.078 101.924 27.7639 101.777 26.9883C101.629 26.2127 101.415 25.9319 100.887 26.1125L100.359 26.2932C99.5834 26.4404 99.122 26.1262 98.9747 25.3507C98.8275 24.5751 99.1416 24.1137 99.9172 23.9664L101.468 23.6719L101.455 21.9067L98.9473 21.8203C98.4525 21.7535 98.1383 22.215 98.0716 22.7097L98.2265 29.0283C98.2677 34.3238 97.9142 38.8104 96.9854 41.9598C98.5699 41.4179 99.9071 40.8426 101.525 40.0533C103.143 39.2641 104.266 38.408 105.142 37.5185C104.928 37.2378 104.961 36.9904 104.747 36.7096C103.343 37.7797 101.973 38.6023 100.388 39.1442C99.86 39.3249 99.1178 39.2247 98.9372 38.6965C98.2951 37.8542 98.6093 37.3928 99.6656 37.0315C101.25 36.4896 102.621 35.6669 103.71 35.0583C103.496 34.7775 103.249 34.7441 103.035 34.4633C102.507 34.6439 101.698 35.0386 100.361 35.6139C99.8326 35.7945 99.0904 35.6943 98.9097 35.1662C98.5151 34.3572 98.5819 33.8624 99.6048 33.7485C100.909 33.4207 101.998 32.812 103.335 32.2367L100.053 32.2975C99.277 32.4448 98.8489 31.8832 98.7017 31.1076C99.3634 29.9374 99.6776 29.476 100.667 29.6095ZM106.078 39.9121C104.955 40.7681 103.832 41.6242 102.214 42.4135C102.956 42.5136 103.699 42.6138 104.227 42.4331C105.464 42.6001 106.092 41.6772 106.078 39.9121ZM114.121 34.4478L113.784 18.2804C113.703 17.01 114.298 16.3346 115.535 16.5015C116.805 16.421 117.481 17.016 117.314 18.253L117.651 34.4204C117.732 35.6908 117.137 36.3662 115.9 36.1993C114.629 36.2798 114.201 35.7182 114.121 34.4478ZM123.786 15.0958L124.192 40.0891C124.305 41.1121 124.172 42.1017 123.858 42.5631C123.51 43.2719 123.196 43.7333 122.42 43.8806C121.611 44.2752 120.308 44.6031 118.79 44.6502C117.272 44.6973 116.316 44.3164 115.988 43.0126C115.841 42.237 115.941 41.4948 116.222 41.2808C116.783 40.8528 117.311 40.6721 118.301 40.8057C118.548 40.8391 118.548 40.8391 118.796 40.8725C119.043 40.9058 119.291 40.9392 119.291 40.9392C119.538 40.9726 119.785 41.006 119.819 40.7586C119.819 40.7586 119.852 40.5112 119.886 40.2638L120.008 15.0899C119.927 13.8195 120.522 13.144 122.04 13.0969C123.03 13.2305 123.705 13.8254 123.786 15.0958Z" fill="#FFA13C" stroke="#FFA13C" stroke-width="0.249642" stroke-miterlimit="10"/>
<path d="M154.328 24.3154H140.144C138.878 26.5857 137.865 28.6037 136.598 30.1172V42.9821C136.598 44.2433 136.092 44.7478 134.825 44.7478C133.559 44.7478 133.052 44.2433 133.052 42.9821V34.4055C132.293 34.91 132.039 35.1622 132.039 35.1622C130.773 35.919 130.013 35.919 129.253 34.6577C128.747 33.6487 129 32.6397 130.013 31.883C132.293 29.8649 134.319 27.3424 135.838 24.3154H131.026C129.76 24.3154 129.253 23.8109 129.253 22.5496C129.253 21.2884 129.76 20.7839 131.026 20.7839H137.358C137.611 20.0271 137.865 19.2703 138.118 18.5136C138.624 17.2523 139.384 16.7478 140.651 17.0001C141.917 17.5046 142.424 18.2613 141.917 19.5226C141.917 20.0271 141.664 20.5316 141.41 20.7839H154.328C155.594 20.7839 156.1 21.2884 156.1 22.5496C156.1 23.8109 155.594 24.3154 154.328 24.3154ZM154.328 44.2433H139.638C138.624 44.2433 137.865 43.7388 137.865 42.4776C137.865 41.2163 138.371 40.7118 139.638 40.7118H145.21V33.901H140.904C139.638 33.901 139.131 33.3965 139.131 32.3875C139.131 31.3785 139.638 30.6217 140.904 30.6217H145.21V27.3424C145.21 26.0812 145.716 25.5767 146.983 25.5767C148.249 25.5767 148.755 26.0812 148.755 27.3424V30.6217H153.061C154.074 30.6217 154.834 31.1262 154.834 32.3875C154.834 33.6487 154.328 33.901 153.314 33.901H149.009V40.7118H154.328C155.341 40.7118 156.1 41.2163 156.1 42.4776C156.1 43.7388 155.594 44.2433 154.328 44.2433Z" fill="#460902"/>
<path d="M184.732 32.3248H161.266C160.017 32.3248 159.269 31.5759 159.269 30.3277C159.269 29.0795 160.017 28.3306 161.266 28.3306H184.732C185.98 28.3306 186.729 29.0795 186.729 30.3277C186.729 31.5759 185.98 32.3248 184.732 32.3248Z" fill="#460902"/>
<path d="M214.19 43.8081H204.454C201.458 43.8081 199.211 43.5585 197.464 43.0592C195.716 42.5599 194.218 41.3117 193.22 39.8138C192.97 41.0621 192.721 42.3103 192.471 43.5585C192.221 44.0578 191.972 44.557 191.722 44.557C191.472 44.557 190.973 44.557 190.474 44.3074C189.974 44.0578 189.725 43.8081 189.475 43.5585C189.226 43.3088 189.475 42.8095 189.475 42.3103C190.224 40.0635 190.723 36.8181 190.723 32.3246C190.723 31.8253 190.973 31.326 191.223 30.8267C191.472 30.3275 191.972 30.3275 192.471 30.3275C193.469 30.3275 193.969 31.0764 193.969 32.075C193.969 32.3246 193.969 32.8239 193.969 33.3232C193.969 33.8224 193.969 34.0721 193.969 34.5714C194.468 36.0692 194.967 37.0678 195.966 38.0664V28.8296H191.472C190.474 28.8296 189.975 28.3303 189.975 27.3318C189.975 26.3332 190.474 25.8339 191.472 25.8339H195.217V23.0879H192.221C191.223 23.0879 190.723 22.5886 190.723 21.59C190.723 20.5914 191.223 20.0922 192.221 20.0922H195.217V18.3447C195.217 17.3461 195.716 16.5972 196.964 16.5972C197.963 16.5972 198.712 17.0965 198.712 18.3447V19.5929H201.458C202.457 19.5929 202.956 20.0922 202.956 21.0907C202.956 22.0893 202.457 22.5886 201.458 22.5886H198.712V25.3346H202.207C203.206 25.3346 203.705 25.8339 203.705 26.8325C203.705 27.831 203.206 28.3303 202.207 28.3303H199.211V31.5757H201.957C202.956 31.5757 203.455 32.075 203.455 33.0735C203.455 34.0721 202.956 34.5714 201.957 34.5714H199.211V39.5642C200.709 40.0635 202.457 40.0635 204.953 40.0635C205.702 40.0635 207.2 40.0635 209.696 40.0635C212.193 40.0635 213.94 40.0635 215.688 40.0635C216.437 40.0635 216.936 40.0635 217.185 40.5628C217.435 41.0621 217.435 41.3117 216.936 42.3103C215.937 43.3088 215.438 43.8081 214.19 43.8081ZM205.952 18.095H213.441C213.94 18.095 214.439 18.3447 214.939 18.5943C215.438 18.8439 215.438 19.3432 215.438 20.0922V27.3318C215.438 27.831 215.188 28.3303 214.939 28.8296C214.689 29.3289 214.19 29.3289 213.441 29.3289H207.449V33.8224C207.449 34.5714 207.449 34.821 207.699 35.0707C207.949 35.3203 208.198 35.3203 208.947 35.3203H212.442C212.692 35.3203 212.942 35.3203 213.191 35.0707C213.441 34.3217 213.69 33.5728 213.94 33.0735C214.19 32.5742 214.939 32.5742 215.438 32.8239C215.937 33.0735 216.187 33.3232 216.187 34.0721C216.187 34.821 216.437 35.3203 216.187 35.8196C215.937 36.8181 215.438 37.5671 214.939 38.0664C214.439 38.5656 213.441 38.8153 212.442 38.8153H207.949C206.201 38.8153 205.203 38.5656 204.703 37.8167C204.204 37.0678 203.954 35.8196 203.954 34.0721V20.0922C203.954 19.5929 204.204 19.0936 204.454 18.5943C204.703 18.095 205.452 18.095 205.952 18.095ZM211.943 25.5843V22.0893C211.943 21.59 211.693 21.3404 211.194 21.3404H208.198C207.699 21.3404 207.449 21.59 207.449 22.0893V26.3332H211.194C211.693 26.0836 211.943 25.8339 211.943 25.5843Z" fill="#460902"/>
<path d="M117.875 1.81006L119.157 6.48462" stroke="#FFA13C" stroke-width="3.24534" stroke-miterlimit="10" stroke-linecap="round" stroke-linejoin="round"/>
<path d="M128.182 2.69009L126.195 7.06143" stroke="#FFA13C" stroke-width="3.24534" stroke-miterlimit="10" stroke-linecap="round" stroke-linejoin="round"/>
<path d="M135.186 11.0209L130.526 12.5521" stroke="#FFA13C" stroke-width="3.24534" stroke-miterlimit="10" stroke-linecap="round" stroke-linejoin="round"/>
<path d="M8.61509 61.7555H5.92122C5.67632 61.7555 5.43142 61.7555 5.43142 61.5106C5.18652 61.5106 5.18652 61.2657 5.18652 61.0208V51.4698C5.18652 51.2249 5.18652 50.98 5.43142 50.7351C5.67632 50.4902 5.92122 50.4902 6.16612 50.4902H8.3702C10.0845 50.4902 11.5539 50.98 12.5335 51.9596C13.5131 52.9392 14.0028 54.4086 14.0028 56.3678C14.0028 58.327 13.758 59.3066 12.7784 60.2862C11.7988 61.2657 10.3294 61.7555 8.61509 61.7555ZM7.8804 52.4494V59.5515H8.3702C9.34979 59.5515 10.0845 59.3066 10.8192 58.8168C11.309 58.327 11.5539 57.3474 11.5539 56.1229C11.5539 54.8984 11.309 53.9188 10.5743 53.429C10.0845 52.6943 9.34979 52.4494 8.3702 52.4494H7.8804Z" fill="#460902"/>
<path d="M16.207 60.5311V54.1637C16.207 53.429 16.6968 52.9392 17.4315 52.9392C18.1662 52.9392 18.656 53.1841 18.656 53.9188V54.4086C18.9009 53.9188 19.3907 53.6739 19.8805 53.1841C20.3703 52.9392 20.8601 52.6943 21.3499 52.6943C21.5948 52.6943 21.8397 52.9392 22.0846 53.1841C22.0846 53.429 22.3295 53.6739 22.0846 54.1637C22.0846 54.4086 21.8397 54.6535 21.5948 54.8984C21.3499 55.1433 21.105 55.3882 20.8601 55.1433C20.3703 55.1433 20.1254 55.3882 19.8805 55.6331C19.3907 55.878 19.1458 56.3678 18.9009 56.8576V60.5311C18.9009 61.5107 18.4111 62.0005 17.4315 62.0005C16.6968 61.7556 16.207 61.2658 16.207 60.5311Z" fill="#460902"/>
<path d="M30.6553 56.8576V60.776C30.6553 61.0209 30.6553 61.5107 30.4104 61.5107C29.9206 61.7556 29.6757 61.7556 29.4308 61.7556C28.6961 61.7556 28.4512 61.5107 28.2063 61.0209C27.2267 61.7556 26.492 62.0005 25.5125 62.0005C24.7778 62.0005 24.0431 61.7556 23.7982 61.2658C23.3084 60.776 23.0635 60.0413 23.0635 59.3066C23.0635 58.327 23.5533 57.5923 24.288 57.1025C25.0227 56.6127 26.2471 56.1229 27.9614 56.1229C27.9614 55.3882 27.4716 54.8984 26.7369 54.8984C26.492 54.8984 26.0023 54.8984 25.5125 55.1433C24.5329 55.6331 24.0431 55.3882 23.7982 54.8984C23.3084 54.1637 23.5533 53.9188 24.0431 53.429C25.0227 52.9392 26.0023 52.6943 26.9818 52.6943C29.4308 52.9392 30.6553 54.1637 30.6553 56.8576ZM26.0023 58.327C25.7574 58.5719 25.5125 58.8168 25.5125 59.0617C25.5125 59.5515 25.7574 59.7964 26.492 59.7964C26.9818 59.7964 27.4716 59.5515 27.7165 59.0617V57.8372C26.9818 57.8372 26.492 58.0821 26.0023 58.327Z" fill="#460902"/>
<path d="M33.8403 52.9395C34.575 52.9395 35.0648 53.4292 35.0648 54.1639C35.5545 53.6741 35.7994 53.4292 36.2892 53.1844C36.779 52.9395 37.2688 52.9395 37.7586 52.9395C38.9831 52.9395 39.7178 53.4292 40.2076 54.4088C40.6974 53.919 41.1872 53.6741 41.4321 53.4292C41.9219 53.1844 42.4117 52.9395 42.9015 52.9395C43.8811 52.9395 44.6158 53.1844 44.8607 53.919C45.3505 54.6537 45.5954 55.3884 45.5954 56.6129V60.7762C45.5954 61.7558 45.1056 62.2456 44.126 62.2456C43.1464 62.2456 42.6566 61.7558 42.6566 60.7762V56.8578C42.6566 56.368 42.6566 55.8782 42.4117 55.6333C42.1668 55.3884 42.4117 55.1435 41.9219 55.1435C41.4321 55.1435 40.9423 55.3884 40.4525 55.8782V60.2864C40.4525 61.266 39.9627 61.7558 38.9831 61.7558C38.0035 61.7558 37.5137 61.266 37.5137 60.2864V56.8578C37.5137 56.368 37.5137 55.8782 37.2688 55.6333C37.0239 55.3884 36.779 55.3884 36.5341 55.3884C36.0443 55.3884 35.5545 55.6333 35.0648 56.1231V60.5313C35.0648 61.5109 34.575 62.0007 33.5954 62.0007C32.6158 62.0007 32.126 61.5109 32.126 60.5313V54.1639C32.6158 53.4292 33.1056 52.9395 33.8403 52.9395Z" fill="#460902"/>
<path d="M55.1455 56.8574V60.7757C55.1455 61.0206 55.1455 61.5104 54.9006 61.5104C54.6558 61.7553 54.4109 61.7553 53.9211 61.7553C53.1864 61.7553 52.9415 61.5104 52.6966 61.0206C51.9619 61.7553 50.9823 62.0002 50.2476 62.0002C49.5129 62.0002 48.7782 61.7553 48.2884 61.2655C47.7986 60.7757 47.5537 60.0411 47.5537 59.3064C47.5537 58.3268 48.0435 57.5921 48.7782 57.1023C49.5129 56.6125 50.7374 56.1227 52.4517 56.1227C52.4517 55.388 51.9619 54.8982 51.2272 54.8982C50.9823 54.8982 50.4925 54.8982 50.0027 55.1431C49.268 55.388 48.7782 55.388 48.5333 54.6533C48.2884 54.1635 48.2884 53.6737 49.0231 53.1839C50.0027 52.6941 50.9823 52.4492 51.9619 52.4492C53.9211 52.939 55.1455 54.1635 55.1455 56.8574ZM50.4925 58.3268C50.2476 58.5717 50.0027 58.8166 50.0027 59.0615C50.0027 59.5513 50.2476 59.7962 50.9823 59.7962C51.4721 59.7962 51.9619 59.5513 52.2068 59.0615V57.837C51.4721 57.837 50.9823 58.0819 50.4925 58.3268Z" fill="#460902"/>
<path d="M63.2277 55.3878H65.4318C65.6767 55.3878 65.9216 55.3878 66.1665 55.6327C66.4114 55.6327 66.4114 55.8776 66.4114 56.3673V60.2857C66.4114 60.7755 66.4114 61.0204 66.1665 61.0204C65.1869 61.7551 63.9624 62 62.7379 62C61.0236 62 59.7991 61.5102 58.5746 60.5306C57.595 59.551 56.8604 58.0816 56.8604 56.1224C56.8604 54.1633 57.3501 52.6939 58.5746 51.7143C59.7991 50.7347 61.0236 50 62.493 50C63.7175 50 64.6971 50.2449 65.4318 50.9796C65.6767 51.2245 65.9216 51.4694 65.9216 51.7143C65.9216 51.9592 65.9216 52.2041 65.6767 52.449C65.1869 52.9388 64.6971 53.1837 63.9624 52.6939C63.4726 52.6939 62.9828 52.449 62.7379 52.449C61.7583 52.449 61.2685 52.6939 60.5338 53.4286C59.7991 54.1633 59.7991 54.898 59.7991 56.1224C59.7991 57.3469 60.044 58.0816 60.5338 58.8163C61.0236 59.551 61.7583 59.7959 62.9828 59.7959C63.4726 59.7959 63.7175 59.7959 63.9624 59.551V57.5918H63.2277C62.493 57.5918 62.0032 57.102 62.0032 56.3673C62.2481 55.6327 62.493 55.3878 63.2277 55.3878Z" fill="#460902"/>
<path d="M68.126 57.3476C68.126 56.1231 68.6158 54.8986 69.3505 54.1639C70.0852 53.1844 71.3096 52.9395 72.5341 52.9395C73.7586 52.9395 74.7382 53.4292 75.4729 54.1639C76.2076 54.8986 76.6974 56.1231 76.6974 57.3476C76.6974 58.5721 76.2076 59.7966 75.4729 60.7762C74.7382 61.5109 73.5137 62.0007 72.5341 62.0007C71.3096 62.0007 70.3301 61.5109 69.5954 60.7762C68.3709 60.0415 68.126 58.817 68.126 57.3476ZM72.2892 55.1435C71.3096 55.1435 70.8199 55.8782 70.8199 57.5925C70.8199 59.0619 71.3096 60.0415 72.2892 60.0415C73.2688 59.7966 73.7586 59.0619 73.7586 57.3476C73.7586 55.8782 73.2688 55.1435 72.2892 55.1435Z" fill="#460902"/>
<path d="M216.288 60.0403H85.8593C85.1246 60.0403 84.6348 59.5505 84.6348 58.8158C84.6348 58.0811 85.1246 57.5913 85.8593 57.5913H212.614L206.002 52.2035C205.512 51.7137 205.512 50.9791 205.757 50.4893C206.247 49.9995 206.982 49.9995 207.471 50.2444L216.778 57.8362C217.267 58.0811 217.267 58.8158 217.267 59.3056C217.267 59.7954 216.778 60.0403 216.288 60.0403Z" fill="#460902"/>
</svg>
