<svg width="24" height="24" viewBox="0 0 24 24" fill="none" xmlns="http://www.w3.org/2000/svg">
<path d="M2.32705 8.31128L2.32706 8.31127L2.32612 8.30867C2.26262 8.13311 2.213 7.87648 2.213 7.51739C2.213 7.16218 2.26586 6.9039 2.32692 6.7239C2.433 6.42983 2.71528 6.31954 2.95316 6.30848C3.65285 6.27826 5.83175 6.21739 12 6.21739C18.1686 6.21739 20.3517 6.27826 21.0468 6.30848C21.2906 6.31962 21.5712 6.43073 21.6729 6.72351L21.6728 6.72351L21.6738 6.72612C21.7373 6.90167 21.7869 7.1583 21.7869 7.51739C21.7869 7.87261 21.734 8.13088 21.673 8.31088C21.5669 8.60497 21.2846 8.71526 21.0467 8.72631C20.347 8.75653 18.168 8.81739 12 8.81739C5.83135 8.81739 3.64825 8.75652 2.95309 8.7263C2.70935 8.71517 2.42875 8.60405 2.32705 8.31128Z" fill="#989898" stroke="#989898" stroke-width="0.434783"/>
<path d="M6.87591 15.6931L6.87591 15.6931L6.87355 15.6929C6.64509 15.6829 6.37623 15.556 6.29482 15.2365C6.25172 15.0634 6.21739 14.8247 6.21739 14.4979C6.21739 14.1704 6.25185 13.932 6.29466 13.7641L6.2947 13.7639C6.37541 13.4463 6.64231 13.321 6.87564 13.307C7.49552 13.2772 9.27618 13.2174 14 13.2174C18.7279 13.2174 20.5066 13.2731 21.1241 13.3069V13.3069L21.1265 13.3071C21.3549 13.3171 21.6238 13.444 21.7052 13.7635C21.7483 13.9367 21.7826 14.1755 21.7826 14.4979C21.7826 14.8205 21.7483 15.0635 21.7052 15.2365C21.6243 15.5539 21.3576 15.679 21.1244 15.693C20.5045 15.7228 18.7238 15.7826 14 15.7826C9.2721 15.7826 7.49338 15.7269 6.87591 15.6931Z" fill="#989898" stroke="#989898" stroke-width="0.434783"/>
</svg>
