<svg width="306" height="115" viewBox="0 0 306 115" fill="none" xmlns="http://www.w3.org/2000/svg">
<g clip-path="url(#clip0_1578_16449)">
<rect width="306" height="115" fill="#DD4102"/>
<path d="M264.111 96.1259H218.701V100.232H264.111V96.1259Z" fill="#DBE6EC"/>
<path d="M241.406 96.1259H218.701V100.232H241.406V96.1259Z" fill="#E8F3F8"/>
<path d="M267.162 133.395V100.216L215.631 100.216V133.395H267.162Z" fill="#263E53"/>
<path d="M158 22.6145L205.194 53.5886L200.682 32.6684L287.293 80.5586L283.826 53.8062L326 73.0725L268.027 28.5337L273.772 58.5793L193.472 17L195.14 36.2518L158 22.6145Z" fill="#FFCF0F"/>
<path d="M270.493 57.7669C270.449 58.0716 269.042 67.6032 267.49 71.6944C265.909 75.8436 263.167 83.1265 262.224 87.0871C261.774 88.9731 261.179 92.9483 260.758 96.1255H222.762C222.965 92.7307 223.096 89.597 222.936 88.5234C221.297 85.1286 206.789 64.3535 206.049 62.7286C205.281 61.0457 205.077 56.9255 208.661 47.0747C212.244 37.2384 212.592 36.3389 213.811 34.6415C214.899 33.1182 217.482 32.1172 220.818 32.3638C221.341 30.6084 223.647 24.1814 229.291 23.5721C235.37 22.9192 238.982 27.6053 236.777 33.9597C237.792 31.856 240.273 28.1275 245.032 28.5628C251.618 29.1721 251.909 36.1213 249.529 41.5182C249.616 41.3731 252.881 35.6861 257.421 38.0363C261.31 40.0529 263.776 42.3161 261.527 47.7711C261.542 47.7275 261.556 47.6985 261.571 47.655C263.631 47.1037 265.807 47.1472 267.606 48.4965C270.653 50.8032 271.538 54.5172 270.493 57.7669Z" fill="#F0AE74"/>
<path opacity="0.54" d="M229.726 34.4236C229.726 34.4236 225.838 33.1324 221.95 32.5231C221.558 32.465 221.181 32.4215 220.804 32.3925C220.876 32.1459 220.992 31.7977 221.137 31.3915C221.602 31.4205 232.149 33.7417 234.746 34.3365C236.066 30.1148 236.124 27.3873 236.008 26.0381L236.022 26.0526C237.488 27.9386 237.894 30.7531 236.762 33.9883C237.038 33.408 237.43 32.7117 237.937 32.0153C238.126 32.9438 238.155 33.9738 237.995 35.0764C235.805 34.6992 233.353 34.6557 232.366 34.6992C230.567 34.7428 229.726 34.4236 229.726 34.4236Z" fill="#DC9964"/>
<path opacity="0.54" d="M263.979 66.4569C263.964 66.4714 263.95 66.4859 263.95 66.5004C261.251 69.2714 259.249 69.8082 254.607 68.1543C252.605 67.4434 251.633 65.9201 251.284 64.0921C251.284 64.0921 251.299 64.0921 251.299 64.0776C249.224 65.1077 244.611 65.5719 242.072 60.9584C242.072 60.9584 241.448 59.8849 241.666 57.4911C240.113 58.289 237.676 58.3906 234.745 56.1709C232.888 54.7636 231.96 53.5014 231.96 51.1802C231.96 50.6869 232.003 50.1501 232.091 49.5553C232.149 49.0911 232.25 48.5833 232.366 48.0175C233.367 47.6548 234.006 47.3501 234.006 47.3501C242.783 43.6362 242.812 39.2693 241.956 37.0206C241.927 36.9481 241.898 36.8755 241.854 36.8175C242.551 37.1367 243.073 37.5429 243.262 38.0507C244.117 40.2849 244.088 44.6662 235.311 48.3802C235.311 48.3802 234.049 48.9895 232.279 49.4973C236.559 54.8652 239.925 55.4165 244.48 53.4434C245.858 50.3097 247.831 45.3626 249.5 41.547C249.5 41.547 249.5 41.547 249.5 41.5325C249.587 41.3729 250.312 40.1543 251.502 39.0952C251.502 39.0952 251.516 39.0952 251.516 39.0807C251.444 40.9232 250.951 42.8963 250.167 44.6952C248.238 49.0911 245.902 54.9957 244.553 57.8973C245.873 59.5222 249.021 62.5108 253.751 61.2486C253.823 61.2341 253.881 61.2196 253.954 61.2051C255.622 58.7097 257.668 54.8797 260.265 50.3097C260.772 49.4103 261.193 48.5688 261.512 47.7999C261.527 47.7709 261.541 47.7273 261.556 47.6983C261.977 47.5823 262.397 47.4952 262.833 47.4372C262.658 48.888 262.02 50.6289 260.801 52.7761C258.538 56.7657 256.681 60.2185 255.129 62.6849C256.449 63.8165 259.728 66.2973 263.979 66.4569Z" fill="#DC9964"/>
<path d="M241.231 36.1501C241.956 38.6455 236.675 41.1843 236.675 41.1843C233.367 40.8361 230.103 39.8496 229.363 38.689C228.609 37.5284 229.726 34.4237 229.726 34.4237C229.726 34.4237 230.567 34.7429 232.381 34.6848C233.919 34.6268 239.185 34.7284 241.231 36.1501Z" fill="#F6E2CA"/>
<path opacity="0.39" d="M233.018 34.6706C231.93 37.0208 230.088 37.8913 229.174 38.225C228.855 36.8613 229.725 34.424 229.725 34.424C229.725 34.424 230.567 34.7431 232.38 34.6851C232.554 34.6706 232.757 34.6706 233.018 34.6706Z" fill="white"/>
<path opacity="0.54" d="M244.568 57.8828C244.481 58.0859 244.51 58.0134 244.568 57.8828V57.8828Z" fill="#DC9964"/>
<path opacity="0.54" d="M244.568 57.8828C244.481 58.0859 244.51 58.0134 244.568 57.8828V57.8828Z" fill="#DC9964"/>
<path d="M270.492 57.752C270.492 57.752 270.391 58.4484 270.217 59.551C269.723 62.5686 268.65 68.6329 267.504 71.6795C265.922 75.8287 263.18 83.1116 262.237 87.0722C261.788 88.9582 261.193 92.9334 260.772 96.1106H258.712C259.234 92.9044 259.974 88.7406 260.511 86.8111C261.585 82.894 264.559 75.6981 266.256 71.5924C267.214 69.2712 268.186 65.1655 268.853 62.0318C267.141 64.8028 264.66 67.893 262.223 69.3582C260.598 70.3448 257.377 70.5334 255.303 69.5904C249.949 67.1386 251.313 66.2536 250.21 65.5282C249.209 64.8753 248.731 65.6297 247.294 65.3831C247.889 72.0277 244.668 78.7448 244.581 78.9334C246.25 74.5375 245.06 67.6898 244.291 64.295C241.462 62.7717 241.288 60.7116 240.432 59.3914C239.605 58.1147 239.359 58.7966 237.937 58.55C236.515 58.3033 235.369 57.6215 233.918 56.5624C232.467 55.5033 232.018 54.4733 229.9 53.3272C228.057 52.3261 226.548 53.3126 225.982 53.3272C224.053 56.8235 222.327 57.752 222.268 57.781C224.009 55.8515 225.127 53.5158 225.417 52.8774C225.228 52.7178 225.025 52.5437 224.836 52.3987C221.253 54.2266 218.134 53.1821 218.032 53.1531C220.194 53.6463 223.357 52.1665 224.503 51.5717C224.706 51.0494 224.836 50.4111 224.923 49.9033C219.352 46.8712 219.73 44.0567 219.744 43.9987C219.773 44.0712 220.774 46.8422 225.721 49.0909C228.086 49.352 230.727 48.6121 232.38 48.0173C231.423 52.5582 232.192 54.2266 234.774 56.1707C237.705 58.3904 240.142 58.3033 241.694 57.4909C241.477 59.8992 242.101 60.9582 242.101 60.9582C244.639 65.5572 249.224 65.1075 251.313 64.0919C251.661 65.9199 252.619 67.4432 254.635 68.1541C260.613 70.2867 262.223 68.7634 266.561 63.5261C266.561 63.5261 266.561 63.5261 266.561 63.5116C268.795 60.3344 270.492 57.752 270.492 57.752Z" fill="#DC9964"/>
<path d="M270.493 57.7527C270.493 57.7672 281.359 72.7392 287.293 80.5589C283.695 78.5713 265.212 68.3579 263.195 67.2263C264.196 66.3268 265.241 65.0936 266.532 63.5268C266.532 63.5268 266.532 63.5268 266.532 63.5123C268.795 60.3351 270.493 57.7527 270.493 57.7527Z" fill="#FFCB00"/>
<path opacity="0.2" d="M272.045 57.68C272.045 58.4344 267.548 68.2997 266.677 69.1556C266.532 69.0831 263.311 67.2987 263.195 67.2261C264.196 66.3266 265.241 65.0935 266.532 63.5266C266.532 63.5266 266.532 63.5266 266.532 63.5121C268.795 60.3059 270.493 57.738 270.493 57.738C270.58 57.4769 270.638 57.2303 270.696 56.9691L272.045 57.68Z" fill="black"/>
<circle cx="13" cy="115" r="30" fill="#FFCA88"/>
<circle cx="44" cy="117" r="16" fill="#FFF6EB"/>
</g>
<defs>
<clipPath id="clip0_1578_16449">
<rect width="306" height="115" fill="white"/>
</clipPath>
</defs>
</svg>
