<svg width="24" height="24" viewBox="0 0 24 24" fill="none" xmlns="http://www.w3.org/2000/svg">
<path d="M12.3008 9.81494L5.38281 16.7319C5.2708 16.8441 5.13766 16.9334 4.99121 16.9941C4.84476 17.0549 4.68784 17.0859 4.5293 17.0859C4.37075 17.0859 4.21384 17.0549 4.06738 16.9941C3.92093 16.9334 3.7878 16.8441 3.67578 16.7319C3.45581 16.5022 3.33301 16.1965 3.33301 15.8784C3.33301 15.5604 3.45581 15.2546 3.67578 15.0249L11.4468 7.25586C11.5584 7.14323 11.6911 7.05418 11.8374 6.99316C11.9837 6.93215 12.1408 6.90039 12.2993 6.90039C12.4579 6.90039 12.6147 6.93215 12.761 6.99316C12.9073 7.05418 13.0403 7.14323 13.1519 7.25586L20.9248 15.0288C21.1512 15.2552 21.2783 15.5622 21.2783 15.8823C21.2783 16.2024 21.1512 16.5095 20.9248 16.7358C20.6984 16.9622 20.3914 17.0894 20.0713 17.0894C19.7512 17.0894 19.4441 16.9622 19.2178 16.7358L12.3008 9.81494Z" fill="#989898" stroke="#989898" stroke-width="2"/>
</svg>
