<svg width="24" height="24" viewBox="0 0 24 24" fill="none" xmlns="http://www.w3.org/2000/svg">
<path d="M9.12598 12L16.043 5.08203C16.1552 4.97002 16.2444 4.83688 16.3052 4.69043C16.3659 4.54398 16.397 4.38706 16.397 4.22852C16.397 4.06997 16.3659 3.91305 16.3052 3.7666C16.2444 3.62015 16.1552 3.48701 16.043 3.375C15.8133 3.15503 15.5075 3.03223 15.1895 3.03223C14.8714 3.03223 14.5656 3.15503 14.3359 3.375L6.56689 11.146C6.45427 11.2576 6.36521 11.3903 6.3042 11.5366C6.24319 11.6829 6.21143 11.84 6.21143 11.9985C6.21143 12.1571 6.24319 12.3139 6.3042 12.4602C6.36521 12.6065 6.45427 12.7395 6.56689 12.8511L14.3398 20.624C14.5662 20.8504 14.8732 20.9775 15.1934 20.9775C15.5135 20.9775 15.8205 20.8504 16.0469 20.624C16.2732 20.3977 16.4004 20.0906 16.4004 19.7705C16.4004 19.4504 16.2732 19.1434 16.0469 18.917L9.12598 12Z" fill="#989898" stroke="#989898" stroke-width="2"/>
</svg>
