<svg width="24" height="24" viewBox="0 0 24 24" fill="none" xmlns="http://www.w3.org/2000/svg">
<path d="M14.4858 11.9902L7.56885 5.07226C7.45664 4.96025 7.36738 4.82712 7.30664 4.68066C7.2459 4.53421 7.21484 4.3773 7.21484 4.21875C7.21484 4.0602 7.2459 3.90329 7.30664 3.75684C7.36738 3.61038 7.45664 3.47725 7.56885 3.36523C7.79855 3.14526 8.10432 3.02246 8.42236 3.02246C8.7404 3.02246 9.04618 3.14526 9.27588 3.36523L17.0449 11.1362C17.1575 11.2478 17.2466 11.3805 17.3076 11.5269C17.3686 11.6732 17.4004 11.8302 17.4004 11.9888C17.4004 12.1473 17.3686 12.3041 17.3076 12.4504C17.2466 12.5968 17.1575 12.7297 17.0449 12.8413L9.27197 20.6143C9.04561 20.8406 8.73858 20.9678 8.41846 20.9678C8.09833 20.9678 7.7913 20.8406 7.56494 20.6143C7.33858 20.3879 7.21142 20.0809 7.21142 19.7607C7.21142 19.4406 7.33858 19.1336 7.56494 18.9072L14.4858 11.9902Z" fill="#989898" stroke="#989898" stroke-width="2"/>
</svg>
