<svg width="24" height="24" viewBox="0 0 24 24" fill="none" xmlns="http://www.w3.org/2000/svg">
<path d="M12.3105 15.2749L19.2285 8.35791C19.3405 8.2457 19.4737 8.15644 19.6201 8.0957C19.7666 8.03497 19.9235 8.00391 20.082 8.00391C20.2406 8.00391 20.3975 8.03497 20.5439 8.0957C20.6904 8.15644 20.8235 8.2457 20.9355 8.35791C21.1555 8.58761 21.2783 8.89338 21.2783 9.21143C21.2783 9.52947 21.1555 9.83524 20.9355 10.0649L13.1646 17.834C13.053 17.9466 12.9202 18.0357 12.7739 18.0967C12.6276 18.1577 12.4705 18.1895 12.312 18.1895C12.1535 18.1895 11.9967 18.1577 11.8503 18.0967C11.704 18.0357 11.571 17.9466 11.4595 17.834L3.68652 10.061C3.46016 9.83467 3.33301 9.52764 3.33301 9.20752C3.33301 8.88739 3.46016 8.58037 3.68652 8.354C3.91289 8.12764 4.21991 8.00049 4.54004 8.00049C4.86016 8.00049 5.16719 8.12764 5.39355 8.354L12.3105 15.2749Z" fill="#989898" stroke="#989898" stroke-width="2"/>
</svg>
