<svg width="24" height="24" viewBox="0 0 24 24" fill="none" xmlns="http://www.w3.org/2000/svg">
<path d="M9.56054 12.1002L14.2417 6.83932C14.2749 6.80544 14.3066 6.79756 14.3275 6.79786C14.3493 6.79818 14.3829 6.80765 14.4172 6.84622C14.4534 6.88682 14.4823 6.95284 14.4832 7.0324C14.4841 7.11014 14.4581 7.17634 14.4237 7.21887L10.2057 11.9594L9.90996 12.2918L10.2057 12.6242L14.429 17.3708C14.4658 17.4122 14.4947 17.4791 14.4946 17.5598C14.4946 17.6405 14.4654 17.7081 14.4287 17.7494C14.3934 17.789 14.3593 17.7979 14.3382 17.7979C14.3169 17.7978 14.2826 17.7888 14.2474 17.7492L14.2473 17.749L9.56054 12.4819C9.56038 12.4817 9.56021 12.4815 9.56005 12.4813C9.52333 12.4394 9.49463 12.372 9.49463 12.2913C9.49463 12.2103 9.52356 12.1424 9.56008 12.1008C9.56023 12.1006 9.56039 12.1004 9.56054 12.1002Z" fill="#989898" stroke="#989898"/>
</svg>
