<svg width="24" height="24" viewBox="0 0 24 24" fill="none" xmlns="http://www.w3.org/2000/svg">
<path d="M14.82 13.0555L15.1125 12.7244L14.82 12.3934L10.6062 7.62443C10.4985 7.50252 10.4985 7.37179 10.6062 7.24988C10.6516 7.19853 10.6808 7.18765 10.6895 7.18567C10.6982 7.18765 10.7275 7.19853 10.7728 7.24988L15.4446 12.5371C15.5523 12.6591 15.5523 12.7898 15.4446 12.9117L10.8144 18.1519C10.7379 18.1951 10.6506 18.1967 10.5733 18.1566C10.4999 18.0471 10.5108 17.9323 10.6062 17.8244L14.82 13.0555ZM10.6922 7.1853C10.6922 7.18537 10.6915 7.18551 10.6901 7.18554L10.6922 7.1853ZM10.6889 7.18554C10.6875 7.18551 10.6868 7.18537 10.6868 7.1853L10.6889 7.18554Z" fill="#989898" stroke="#989898"/>
</svg>
