<svg width="24" height="24" viewBox="0 0 24 24" fill="none" xmlns="http://www.w3.org/2000/svg">
<path fill-rule="evenodd" clip-rule="evenodd" d="M12.1 1.75C8.9828 1.75 7.06638 2.05177 6.05097 2.25485C4.92411 2.48023 4.05918 3.58687 3.95095 4.77736L3.95055 4.78337C3.85008 6.29052 3.75 8.89634 3.75 12.9V12.9089C3.75 15.7973 3.75 18.0011 3.85001 19.7075C3.85225 20.6864 4.2939 21.4702 5.07597 21.9171L5.09746 21.9293L5.12094 21.9372C5.16688 21.9525 5.21192 21.9685 5.2571 21.9845L5.25724 21.9846C5.48825 22.0666 5.72297 22.15 6.1 22.15C6.66553 22.15 7.21191 21.9246 7.7287 21.6145L11.136 19.4101L11.1453 19.4034C11.7584 18.9655 12.6415 18.9657 13.2545 19.4036L16.6642 21.6099L16.6675 21.612C17.5121 22.1399 18.5032 22.2739 19.2052 21.9269C20.0314 21.5691 20.3469 20.7457 20.449 19.7249L20.4496 19.7147C20.55 18.0074 20.55 15.8015 20.55 12.909L20.5501 12.9L20.5499 12.8938C20.4499 8.89366 20.3499 6.28906 20.2495 4.78337L20.2491 4.77924C20.1418 3.49107 19.3786 2.47942 18.1469 2.25443C17.131 2.05136 15.215 1.75 12.1 1.75ZM6.05 5.3C6.05 5.00996 6.27738 4.60874 6.67278 4.4404C7.66395 4.24282 9.34238 3.95 12.1 3.95C14.8808 3.95 16.5625 4.24814 17.4457 4.4444L17.4589 4.4466C17.6885 4.48486 17.8261 4.59348 17.913 4.7325C18.0053 4.88015 18.05 5.07933 18.05 5.3V5.30892L18.0506 5.31781C18.1501 6.71015 18.2498 9.1039 18.2498 12.9L18.2502 12.9096C18.35 15.5057 18.3497 17.6963 18.2505 19.2844L18.25 19.2922V19.3C18.25 19.4838 18.2263 19.618 18.1849 19.709C18.1479 19.7905 18.0979 19.8372 18.0209 19.8628L18.0041 19.8684L17.9882 19.8764C17.967 19.887 17.8883 19.9025 17.7274 19.868C17.5819 19.8369 17.4069 19.7729 17.2247 19.6828L14.0372 17.591L14.0342 17.5891C12.8523 16.837 11.3477 16.837 10.1658 17.5891L6.97522 19.6829C6.59753 19.8705 6.38659 19.923 6.20005 19.8693C6.17452 19.8516 6.1357 19.8094 6.09009 19.709C6.03976 19.5983 5.99569 19.45 5.94796 19.261C5.85014 17.7719 5.85 15.5905 5.85 12.9C5.85 9.1039 5.94991 6.71015 6.04936 5.31781L6.05 5.30892V5.3Z" fill="#989898"/>
<path d="M6.05097 2.25485L6.00194 2.00971L6.05097 2.25485ZM3.95095 4.77736L3.70191 4.75472L3.70151 4.76073L3.95095 4.77736ZM3.95055 4.78337L3.70111 4.76674L3.70111 4.76674L3.95055 4.78337ZM3.85001 19.7075L4.1004 19.7069L4.09958 19.6929L3.85001 19.7075ZM5.07597 21.9171L5.20001 21.7L5.2 21.7L5.07597 21.9171ZM5.09746 21.9293L4.97341 22.1464L4.99491 22.1587L5.01841 22.1665L5.09746 21.9293ZM5.12094 21.9372L5.2 21.7L5.2 21.7L5.12094 21.9372ZM5.2571 21.9845L5.34273 21.7496L5.34077 21.7489L5.2571 21.9845ZM5.25724 21.9846L5.17161 22.2195L5.17356 22.2202L5.25724 21.9846ZM7.7287 21.6145L7.8574 21.829L7.8645 21.8244L7.7287 21.6145ZM11.136 19.4101L11.2719 19.6202L11.2812 19.6136L11.136 19.4101ZM11.1453 19.4034L11.2906 19.6069L11.2906 19.6069L11.1453 19.4034ZM13.2545 19.4036L13.1091 19.6073L13.1187 19.6135L13.2545 19.4036ZM16.6642 21.6099L16.5283 21.8198L16.5317 21.8219L16.6642 21.6099ZM16.6675 21.612L16.8 21.4L16.8 21.4L16.6675 21.612ZM19.2052 21.9269L19.1057 21.6972L19.0944 21.7028L19.2052 21.9269ZM20.449 19.7249L20.6979 19.7498L20.6985 19.7396L20.449 19.7249ZM20.4496 19.7147L20.2 19.7L20.2 19.7L20.4496 19.7147ZM20.55 12.909L20.3 12.9069V12.909H20.55ZM20.5501 12.9L20.8002 12.9022L20.8 12.8937L20.5501 12.9ZM20.5499 12.8938L20.3 12.9L20.3 12.9L20.5499 12.8938ZM20.2495 4.78337L20.499 4.76674L20.4986 4.76254L20.2495 4.78337ZM20.2491 4.77924L20 4.8L20 4.80007L20.2491 4.77924ZM18.1469 2.25443L18.0979 2.49962L18.102 2.50036L18.1469 2.25443ZM6.67278 4.4404L6.62391 4.19523L6.5986 4.20027L6.57486 4.21038L6.67278 4.4404ZM17.4457 4.4444L17.3914 4.68879L17.4046 4.691L17.4457 4.4444ZM17.4589 4.4466L17.5 4.2L17.5 4.2L17.4589 4.4466ZM17.913 4.7325L17.701 4.865L17.701 4.865L17.913 4.7325ZM18.05 5.30892H17.8V5.31783L17.8006 5.32672L18.05 5.30892ZM18.0506 5.31781L17.8013 5.33562L17.8013 5.33562L18.0506 5.31781ZM18.2498 12.9H17.9996L18 12.9096L18.2498 12.9ZM18.2502 12.9096L18.5 12.9L18.5 12.9L18.2502 12.9096ZM18.2505 19.2844L18.5 19.3L18.5 19.3L18.2505 19.2844ZM18.25 19.2922L18.0005 19.2766L18 19.2844V19.2922H18.25ZM18.1849 19.709L18.4125 19.8125L18.4125 19.8125L18.1849 19.709ZM18.0209 19.8628L17.9419 19.6257L17.9419 19.6257L18.0209 19.8628ZM18.0041 19.8684L17.925 19.6313L17.9082 19.6369L17.8923 19.6448L18.0041 19.8684ZM17.9882 19.8764L18.1 20.1L18.1 20.1L17.9882 19.8764ZM17.7274 19.868L17.675 20.1125L17.675 20.1125L17.7274 19.868ZM17.2247 19.6828L17.0875 19.8918L17.1002 19.9002L17.1139 19.9069L17.2247 19.6828ZM14.0372 17.591L14.1744 17.3819L14.1714 17.3801L14.0372 17.591ZM14.0342 17.5891L14.1684 17.3782L14.1684 17.3782L14.0342 17.5891ZM10.1658 17.5891L10.0315 17.3781L10.0286 17.3801L10.1658 17.5891ZM6.97522 19.6829L7.08646 19.9067L7.09987 19.9001L7.11238 19.8919L6.97522 19.6829ZM6.20005 19.8693L6.05742 20.0747L6.09129 20.0982L6.13092 20.1096L6.20005 19.8693ZM6.09009 19.709L5.8625 19.8125L5.8625 19.8125L6.09009 19.709ZM5.94796 19.261L5.6985 19.2774L5.7 19.3001L5.70557 19.3222L5.94796 19.261ZM6.04936 5.31781L5.8 5.3L5.8 5.3L6.04936 5.31781ZM6.05 5.30892L6.29936 5.32673L6.3 5.31783V5.30892H6.05ZM6.1 2.5C7.1 2.3 9 2 12.1 2V1.5C8.9656 1.5 7.03275 1.80355 6.00194 2.00971L6.1 2.5ZM4.19993 4.79999C4.29996 3.69968 5.10027 2.69994 6.1 2.5L6.00194 2.00971C4.74794 2.26051 3.81841 3.47406 3.70198 4.75473L4.19993 4.79999ZM4.2 4.8L4.2004 4.79399L3.70151 4.76073L3.70111 4.76674L4.2 4.8ZM4 12.9C4 8.9 4.1 6.3 4.2 4.8L3.70111 4.76674C3.60015 6.28103 3.5 8.89268 3.5 12.9H4ZM4 12.9089V12.9H3.5V12.9089H4ZM4.09958 19.6929C4.0001 17.9956 4 15.8004 4 12.9089H3.5C3.5 15.7943 3.4999 18.0067 3.60044 19.7221L4.09958 19.6929ZM5.2 21.7C4.5018 21.301 4.10206 20.6036 4.10001 19.7069L3.60001 19.7081C3.60243 20.7691 4.086 21.6393 4.95193 22.1341L5.2 21.7ZM5.2215 21.7123L5.20001 21.7L4.95192 22.1341L4.97341 22.1464L5.2215 21.7123ZM5.2 21.7L5.17651 21.6922L5.01841 22.1665L5.04189 22.1743L5.2 21.7ZM5.34077 21.7489C5.29594 21.733 5.24863 21.7162 5.2 21.7L5.04188 22.1743C5.08513 22.1888 5.12789 22.2039 5.17343 22.2201L5.34077 21.7489ZM5.34287 21.7497L5.34272 21.7496L5.17147 22.2194L5.17161 22.2195L5.34287 21.7497ZM6.1 21.9C5.7674 21.9 5.56591 21.8289 5.34091 21.749L5.17356 22.2202C5.41058 22.3043 5.67854 22.4 6.1 22.4V21.9ZM7.60007 21.4001C7.10013 21.7001 6.60004 21.9 6.1 21.9V22.4C6.73101 22.4 7.32369 22.1491 7.85732 21.8289L7.60007 21.4001ZM11.0002 19.2002L7.5929 21.4046L7.8645 21.8244L11.2718 19.62L11.0002 19.2002ZM11 19.2L10.9907 19.2067L11.2812 19.6136L11.2906 19.6069L11 19.2ZM13.3998 19.2002C12.6999 18.7002 11.7 18.7 11 19.2L11.2906 19.6069C11.8167 19.2311 12.583 19.2312 13.1092 19.6071L13.3998 19.2002ZM16.8 21.4L13.3904 19.1938L13.1187 19.6135L16.5284 21.8198L16.8 21.4ZM16.8 21.4L16.7966 21.3979L16.5317 21.8219L16.535 21.824L16.8 21.4ZM19.0944 21.7028C18.4946 21.9993 17.5976 21.8985 16.8 21.4L16.535 21.824C17.4266 22.3812 18.5118 22.5486 19.316 22.151L19.0944 21.7028ZM20.2002 19.7C20.1004 20.6978 19.8013 21.3963 19.1058 21.6975L19.3045 22.1563C20.2615 21.7419 20.5933 20.7936 20.6977 19.7498L20.2002 19.7ZM20.2 19.7L20.1994 19.7102L20.6985 19.7396L20.6991 19.7294L20.2 19.7ZM20.3 12.909C20.3 15.8046 20.2999 18.0018 20.2 19.7L20.6991 19.7294C20.8001 18.013 20.8 15.7984 20.8 12.909H20.3ZM20.3001 12.8978L20.3 12.9069L20.8 12.9112L20.8001 12.9022L20.3001 12.8978ZM20.3 12.9L20.3002 12.9063L20.8 12.8937L20.7998 12.8875L20.3 12.9ZM20 4.8C20.1 6.3 20.2 8.9 20.3 12.9L20.7998 12.8875C20.6998 8.88732 20.5997 6.27812 20.4989 4.76674L20 4.8ZM20 4.80007L20.0004 4.8042L20.4986 4.76254L20.4983 4.75841L20 4.80007ZM18.102 2.50036C19.2004 2.70101 19.9 3.60027 20 4.8L20.4983 4.75848C20.3836 3.38186 19.5568 2.25784 18.1918 2.0085L18.102 2.50036ZM12.1 2C15.1979 2 17.0974 2.29959 18.0979 2.49958L18.1959 2.00928C17.1646 1.80313 15.2322 1.5 12.1 1.5V2ZM6.57486 4.21038C6.0906 4.41654 5.8 4.90612 5.8 5.3H6.3C6.3 5.1138 6.46415 4.80093 6.77071 4.67042L6.57486 4.21038ZM12.1 3.7C9.32237 3.7 7.62721 3.99522 6.62391 4.19523L6.72166 4.68558C7.70069 4.49041 9.36239 4.2 12.1 4.2V3.7ZM17.4999 4.20035C16.6 4.00036 14.9 3.7 12.1 3.7V4.2C14.8616 4.2 16.5251 4.49593 17.3915 4.68844L17.4999 4.20035ZM17.5 4.2L17.4868 4.1978L17.4046 4.691L17.4178 4.6932L17.5 4.2ZM18.125 4.6C18 4.40001 17.8 4.25 17.5 4.2L17.4178 4.6932C17.5769 4.71971 17.6522 4.78695 17.701 4.865L18.125 4.6ZM18.3 5.3C18.3 5.04993 18.25 4.79996 18.125 4.6L17.701 4.865C17.7606 4.96033 17.8 5.10873 17.8 5.3H18.3ZM18.3 5.30892V5.3H17.8V5.30892H18.3ZM18.3 5.30001L18.2994 5.29111L17.8006 5.32672L17.8013 5.33562L18.3 5.30001ZM18.4998 12.9C18.4998 9.10001 18.4 6.70001 18.3 5.3L17.8013 5.33562C17.9002 6.72029 17.9998 9.10779 17.9998 12.9H18.4998ZM18.5 12.9L18.4996 12.8904L18 12.9096L18.0004 12.9192L18.5 12.9ZM18.5 19.3C18.6 17.7 18.6 15.5 18.5 12.9L18.0004 12.9192C18.1001 15.5114 18.0995 17.6926 18.001 19.2688L18.5 19.3ZM18.4995 19.3078L18.5 19.3L18.001 19.2688L18.0005 19.2766L18.4995 19.3078ZM18.5 19.3V19.2922H18V19.3H18.5ZM18.4125 19.8125C18.475 19.675 18.5 19.4999 18.5 19.3H18C18 19.4677 17.9775 19.5611 17.9573 19.6056L18.4125 19.8125ZM18.1 20.1C18.2496 20.0501 18.3498 19.9505 18.4125 19.8125L17.9573 19.6056C17.949 19.6239 17.9446 19.6267 17.947 19.6244C17.9474 19.624 17.9478 19.6237 17.9483 19.6233C17.9488 19.6229 17.9491 19.6228 17.9491 19.6228C17.9491 19.6228 17.9486 19.6231 17.9475 19.6235C17.9464 19.624 17.9445 19.6248 17.9419 19.6257L18.1 20.1ZM18.0832 20.1056L18.1 20.1L17.9419 19.6257L17.925 19.6313L18.0832 20.1056ZM18.1 20.1L18.1159 20.0921L17.8923 19.6448L17.8764 19.6528L18.1 20.1ZM17.675 20.1125C17.7706 20.133 17.8502 20.1405 17.9155 20.1391C17.9728 20.1378 18.041 20.1295 18.1 20.1L17.8764 19.6528C17.8894 19.6463 17.8996 19.6429 17.9046 19.6414C17.9102 19.6397 17.9139 19.6389 17.9152 19.6387C17.9177 19.6382 17.9147 19.639 17.9049 19.6392C17.8853 19.6396 17.845 19.6376 17.7798 19.6236L17.675 20.1125ZM17.1139 19.9069C17.3091 20.0034 17.5039 20.0758 17.675 20.1125L17.7798 19.6236C17.6598 19.5979 17.5048 19.5424 17.3354 19.4587L17.1139 19.9069ZM13.9 17.8L17.0875 19.8918L17.3618 19.4738L14.1743 17.382L13.9 17.8ZM13.9 17.8L13.903 17.8019L14.1714 17.3801L14.1684 17.3782L13.9 17.8ZM10.3 17.8C11.4 17.1 12.8 17.1 13.9 17.8L14.1684 17.3782C12.9047 16.5739 11.2953 16.5739 10.0315 17.3781L10.3 17.8ZM7.11238 19.8919L10.3029 17.7981L10.0286 17.3801L6.83805 19.4739L7.11238 19.8919ZM6.13092 20.1096C6.41838 20.1923 6.70873 20.0944 7.08646 19.9067L6.86397 19.459C6.48633 19.6466 6.35481 19.6537 6.26918 19.6291L6.13092 20.1096ZM5.8625 19.8125C5.91695 19.9323 5.97939 20.0205 6.05742 20.0747L6.34268 19.664C6.35731 19.6742 6.36017 19.6805 6.35408 19.6722C6.34799 19.6639 6.33515 19.644 6.31768 19.6056L5.8625 19.8125ZM5.70557 19.3222C5.7536 19.5124 5.80214 19.6797 5.8625 19.8125L6.31768 19.6056C6.27739 19.517 6.23778 19.3875 6.19035 19.1998L5.70557 19.3222ZM5.6 12.9C5.6 15.5866 5.6 17.778 5.6985 19.2774L6.19743 19.2446C6.10027 17.7657 6.1 15.5945 6.1 12.9H5.6ZM5.8 5.3C5.7 6.7 5.6 9.1 5.6 12.9H6.1C6.1 9.10781 6.19982 6.7203 6.29873 5.33562L5.8 5.3ZM5.80064 5.2911L5.8 5.3L6.29873 5.33562L6.29936 5.32673L5.80064 5.2911ZM5.8 5.3V5.30892H6.3V5.3H5.8Z" fill="#989898"/>
</svg>
