<svg width="24" height="24" viewBox="0 0 24 24" fill="none" xmlns="http://www.w3.org/2000/svg">
<path d="M20.288 19.1931L20.3219 19.227C20.4475 19.3685 20.5173 19.5514 20.5173 19.7412C20.5173 19.9465 20.4356 20.1437 20.29 20.2893C20.1446 20.4347 19.9475 20.5164 19.7419 20.5164C19.5364 20.5164 19.3393 20.4347 19.1939 20.2893L19.1938 20.2892L12.3707 13.4674L12.0171 13.1138L11.6636 13.4675L4.8425 20.2915C4.69708 20.4369 4.49998 20.5186 4.29443 20.5186C4.08888 20.5186 3.89178 20.4369 3.74636 20.2915C3.60084 20.146 3.51904 19.9486 3.51904 19.7432C3.51904 19.5379 3.60076 19.3407 3.74636 19.1951L10.5685 12.373L10.922 12.0194L10.5685 11.6659L3.74996 4.84635C3.61036 4.70014 3.53335 4.50566 3.53517 4.30409C3.537 4.1011 3.61863 3.90662 3.7625 3.76275C3.9062 3.61905 4.10061 3.53749 4.30384 3.53566C4.50565 3.53383 4.70006 3.61077 4.8461 3.7502L11.6637 10.5675L12.0172 10.9211L12.3708 10.5675L19.1919 3.74563C19.1919 3.74562 19.1919 3.74561 19.1919 3.74561C19.2644 3.67311 19.3497 3.61603 19.4431 3.57736C19.5367 3.53859 19.6377 3.51855 19.74 3.51855C19.8423 3.51855 19.9433 3.53859 20.0369 3.57736C20.1303 3.61604 20.2155 3.67312 20.2881 3.74563C20.3601 3.81764 20.4171 3.90303 20.4561 3.99705C20.4953 4.09163 20.5154 4.19246 20.5154 4.2937C20.5154 4.39493 20.4953 4.49577 20.4561 4.59035C20.4171 4.68436 20.3601 4.76975 20.2881 4.84177L20.288 4.8418L13.4669 11.6639L13.1134 12.0175L13.4669 12.371L20.288 19.1931Z" fill="#989898" stroke="#989898"/>
</svg>
