<svg width="24" height="24" viewBox="0 0 24 24" fill="none" xmlns="http://www.w3.org/2000/svg">
<g clip-path="url(#clip0_1122_912)">
<path d="M21.6659 20.0475L17.8661 16.2475C19.2395 14.4639 19.8825 12.2243 19.6649 9.98381C19.4473 7.74327 18.3851 5.66971 16.6942 4.18376C15.0032 2.69781 12.8103 1.9109 10.5604 1.98308C8.31048 2.05525 6.17218 2.98092 4.57993 4.57219C2.98768 6.16345 2.06072 8.30106 1.98716 10.5509C1.9136 12.8008 2.69904 14.9943 4.18394 16.6862C5.66884 18.3781 7.74187 19.4416 9.98228 19.6606C12.2227 19.8796 14.4625 19.2377 16.2469 17.8654L20.0467 21.6654C20.1523 21.7723 20.2781 21.857 20.4168 21.9147C20.5556 21.9724 20.7046 22.0019 20.8548 22.0014V22.0014C21.0812 22.0016 21.3028 21.9346 21.4911 21.809C21.6794 21.6834 21.8262 21.5047 21.9129 21.2956C21.9997 21.0865 22.022 20.8565 21.9779 20.6344C21.9338 20.4124 21.825 20.2086 21.6649 20.0485L21.6659 20.0475ZM10.85 4.29338C12.1477 4.29318 13.4164 4.67775 14.4955 5.3986C15.5746 6.11946 16.4157 7.14428 16.9125 8.34318C17.4092 9.54209 17.5391 10.8614 17.286 12.1342C17.0329 13.407 16.4077 14.5762 15.4901 15.4938C14.5725 16.4114 13.4035 17.0363 12.1307 17.2895C10.8579 17.5426 9.53861 17.4124 8.3397 16.9157C7.14079 16.419 6.11622 15.578 5.39536 14.4989C4.67451 13.4198 4.2897 12.1512 4.28989 10.8534C4.29201 9.11427 4.98394 7.44699 6.21372 6.21721C7.4435 4.98743 9.11078 4.29549 10.85 4.29338V4.29338Z" fill="#989898"/>
</g>
<defs>
<clipPath id="clip0_1122_912">
<rect width="24" height="24" fill="white"/>
</clipPath>
</defs>
</svg>
